<?xml version="1.0" encoding="UTF-8" standalone="no"?>
<!-- Created with Inkscape (http://www.inkscape.org/) -->
<svg xmlns:dc="http://purl.org/dc/elements/1.1/" xmlns:cc="http://web.resource.org/cc/" xmlns:rdf="http://www.w3.org/1999/02/22-rdf-syntax-ns#" xmlns:svg="http://www.w3.org/2000/svg" xmlns="http://www.w3.org/2000/svg" xmlns:xlink="http://www.w3.org/1999/xlink" xmlns:sodipodi="http://sodipodi.sourceforge.net/DTD/sodipodi-0.dtd" xmlns:inkscape="http://www.inkscape.org/namespaces/inkscape" width="449.23657" height="746.43195" id="svg2" sodipodi:version="0.32" inkscape:version="0.45.1" version="1.0" sodipodi:docbase="C:\Documents and Settings\Owner\Desktop" sodipodi:docname="BigRedSmile_A_Computer.svg" inkscape:output_extension="org.inkscape.output.svg.inkscape">
  <defs id="defs4">
    <linearGradient id="linearGradient13043">
      <stop style="stop-color:#000000;stop-opacity:1;" offset="0" id="stop13045"/>
      <stop style="stop-color:#93969e;stop-opacity:1;" offset="1" id="stop13047"/>
    </linearGradient>
    <linearGradient id="linearGradient11065">
      <stop id="stop11067" offset="0" style="stop-color:#ececec;stop-opacity:0;"/>
      <stop style="stop-color:#d9dada;stop-opacity:1;" offset="0.35714287" id="stop11069"/>
      <stop style="stop-color:#c6c9c9;stop-opacity:1;" offset="0.47193879" id="stop11071"/>
      <stop id="stop11073" offset="1" style="stop-color:#a0a6a6;stop-opacity:1;"/>
    </linearGradient>
    <linearGradient id="linearGradient10078">
      <stop style="stop-color:#797979;stop-opacity:1;" offset="0" id="stop10080"/>
      <stop style="stop-color:#d8d8d8;stop-opacity:1;" offset="1" id="stop10082"/>
    </linearGradient>
    <linearGradient id="linearGradient8128">
      <stop id="stop8130" offset="0" style="stop-color:#dcdcdc;stop-opacity:1;"/>
      <stop style="stop-color:#a0a0a0;stop-opacity:1;" offset="0.1179847" id="stop8138"/>
      <stop style="stop-color:#d9dada;stop-opacity:1;" offset="0.23596939" id="stop8132"/>
      <stop style="stop-color:#838686;stop-opacity:1;" offset="0.47193879" id="stop8134"/>
      <stop id="stop8136" offset="1" style="stop-color:#c8c5c8;stop-opacity:1;"/>
    </linearGradient>
    <linearGradient id="linearGradient5205">
      <stop style="stop-color:#000000;stop-opacity:1;" offset="0" id="stop5207"/>
      <stop id="stop5213" offset="0.51785713" style="stop-color:#5c5c5c;stop-opacity:1;"/>
      <stop style="stop-color:#000000;stop-opacity:1;" offset="1" id="stop5209"/>
    </linearGradient>
    <linearGradient id="linearGradient2180">
      <stop style="stop-color:#ececec;stop-opacity:1;" offset="0" id="stop2182"/>
      <stop id="stop8126" offset="0.35714287" style="stop-color:#d9dada;stop-opacity:1;"/>
      <stop id="stop2188" offset="0.47193879" style="stop-color:#c6c9c9;stop-opacity:1;"/>
      <stop style="stop-color:#a0a6a6;stop-opacity:1;" offset="1" id="stop2184"/>
    </linearGradient>
    <linearGradient id="linearGradient2172">
      <stop style="stop-color:#8e9699;stop-opacity:1;" offset="0" id="stop2174"/>
      <stop id="stop2190" offset="0.13816509" style="stop-color:#e0e0e0;stop-opacity:1;"/>
      <stop style="stop-color:#9ca0a0;stop-opacity:1;" offset="0.85969388" id="stop2192"/>
      <stop style="stop-color:#596161;stop-opacity:1;" offset="1" id="stop2176"/>
    </linearGradient>
    <linearGradient inkscape:collect="always" xlink:href="#linearGradient2172" id="linearGradient2178" x1="721.72852" y1="607.70367" x2="821.63049" y2="12.772178" gradientUnits="userSpaceOnUse" gradientTransform="translate(-198.43794,116.00987)"/>
    <linearGradient inkscape:collect="always" xlink:href="#linearGradient2180" id="linearGradient2186" x1="382.97214" y1="32.745865" x2="714.56012" y2="614.02844" gradientUnits="userSpaceOnUse" gradientTransform="translate(-198.43794,116.00987)"/>
    <linearGradient inkscape:collect="always" xlink:href="#linearGradient5205" id="linearGradient5211" x1="538.73169" y1="491.46875" x2="495.68903" y2="464.57144" gradientUnits="userSpaceOnUse" gradientTransform="matrix(1,0,-8.7693206e-2,1,-157.64967,114.90258)"/>
    <linearGradient inkscape:collect="always" xlink:href="#linearGradient8128" id="linearGradient8124" x1="549.14648" y1="626.96899" x2="614.65906" y2="493.69016" gradientUnits="userSpaceOnUse" gradientTransform="translate(-198.43794,116.00987)"/>
    <linearGradient inkscape:collect="always" xlink:href="#linearGradient10078" id="linearGradient10084" x1="763.23669" y1="618.32849" x2="534.74567" y2="743.13446" gradientUnits="userSpaceOnUse" gradientTransform="translate(-198.43794,116.00987)"/>
    <linearGradient inkscape:collect="always" xlink:href="#linearGradient11065" id="linearGradient11063" x1="588.12378" y1="740.29028" x2="645.94708" y2="595.99292" gradientUnits="userSpaceOnUse" gradientTransform="translate(-199.9596,116.00987)"/>
    <filter inkscape:collect="always" id="filter13039">
      <feGaussianBlur inkscape:collect="always" stdDeviation="1.32134" id="feGaussianBlur13041"/>
    </filter>
    <linearGradient inkscape:collect="always" xlink:href="#linearGradient13043" id="linearGradient13049" x1="649.95123" y1="57.661476" x2="621.14984" y2="300.40631" gradientUnits="userSpaceOnUse" gradientTransform="translate(-198.43794,116.00987)"/>
    <filter inkscape:collect="always" x="-0.10008387" width="1.2001677" y="-0.13308699" height="1.266174" id="filter3243">
      <feGaussianBlur inkscape:collect="always" stdDeviation="2.1547733" id="feGaussianBlur3245"/>
    </filter>
    <filter inkscape:collect="always" id="filter4246">
      <feGaussianBlur inkscape:collect="always" stdDeviation="1.6090782" id="feGaussianBlur4248"/>
    </filter>
    <filter inkscape:collect="always" id="filter5246">
      <feGaussianBlur inkscape:collect="always" stdDeviation="0.63611468" id="feGaussianBlur5248"/>
    </filter>
  </defs>
  <sodipodi:namedview id="base" pagecolor="#ffffff" bordercolor="#666666" borderopacity="1.0" gridtolerance="10000" guidetolerance="10" objecttolerance="10" inkscape:pageopacity="0.0" inkscape:pageshadow="2" inkscape:zoom="0.73147995" inkscape:cx="198.18203" inkscape:cy="373.21598" inkscape:document-units="px" inkscape:current-layer="layer1" width="744.09px" height="1052.3622px" inkscape:window-width="988" inkscape:window-height="742" inkscape:window-x="-4" inkscape:window-y="-4"/>
  <g inkscape:label="Layer 1" inkscape:groupmode="layer" id="layer1" transform="translate(-159.00418,-160.84405)">
    <path style="fill:url(#linearGradient11063);fill-opacity:1;fill-rule:evenodd;stroke:none;stroke-width:1px;stroke-linecap:butt;stroke-linejoin:miter;stroke-opacity:1" d="M 371.42583,734.56694 L 494.89031,793.34515 C 517.46757,831.38679 480.00756,869.23435 454.3566,907.27599 L 367.62166,857.06102 C 393.90159,797.98583 384.47795,773.79045 371.42583,734.56694 z " id="path11061" sodipodi:nodetypes="ccccc"/>
    <path style="fill:#e6e6e6;fill-rule:evenodd;stroke:none;stroke-width:1px;stroke-linecap:butt;stroke-linejoin:miter;stroke-opacity:1" d="M 255.39146,740.83156 C 255.12653,745.28324 254.32371,750.50849 263.91277,757.29198 L 384.12792,823.72667 C 394.3186,827.0099 401.73179,831.28958 421.26643,823.72667 C 436.32408,817.89705 457.35785,808.35545 471.10449,800.98195 C 489.22475,791.26252 494.86388,802.71434 498.07563,808.53364 L 499.76374,809.3777 C 498.92604,783.22888 475.12093,793.18155 466.00146,790.80844 L 255.39146,740.83156 z " id="path10090" sodipodi:nodetypes="cccsscccc"/>
    <path style="fill:#000000;fill-rule:evenodd;stroke:#000000;stroke-width:0.99700952px;stroke-linecap:butt;stroke-linejoin:miter;stroke-opacity:1;filter:url(#filter13039)" d="M 257.25876,740.74398 C 256.97577,743.44828 257.55573,745.86317 260.34537,747.53702 L 385.93189,816.82597 C 403.69651,825.09034 420.37648,818.72012 423.35704,817.02006 L 492.0983,785.57819 L 444.7468,759.54697 L 257.25876,740.74398 z " id="path12044" sodipodi:nodetypes="ccccccc"/>
    <path sodipodi:nodetypes="ccscssscc" id="path4136" d="M 353.18522,668.99901 C 416.01496,724.1106 355.64608,737.62984 256.17441,732.94617 C 256.37747,736.39828 253.23677,743.69291 263.38618,749.22256 L 379.8773,812.68978 C 396.60136,821.99138 410.69604,821.84795 427.65705,814.28878 C 451.42974,803.69378 466.14835,796.72091 483.65548,787.96736 C 498.35843,780.6159 502.39162,767.79614 497.11752,757.42724 C 485.73314,735.04548 451.78823,690.6829 451.78823,690.6829 L 353.18522,668.99901 z " style="fill:url(#linearGradient10084);fill-opacity:1;fill-rule:evenodd;stroke:none;stroke-width:0.95392907px;stroke-linecap:butt;stroke-linejoin:miter;stroke-opacity:1"/>
    <path style="fill:url(#linearGradient8124);fill-opacity:1;fill-rule:evenodd;stroke:none;stroke-width:0.95392907px;stroke-linecap:butt;stroke-linejoin:miter;stroke-opacity:1" d="M 351.72444,660.96793 C 351.72444,660.96793 356.508,680.93986 359.8532,694.83832 C 364.04598,712.25826 345.946,721.39144 333.11421,722.29464 L 269.96992,726.73922 C 255.08251,728.20138 251.77599,735.66184 261.9254,741.19149 L 378.41651,804.6587 C 395.14057,813.96031 409.23526,813.81688 426.19627,806.25771 C 449.96897,795.66271 482.1947,779.93628 482.1947,779.93628 C 496.30994,771.4306 492.58186,759.9186 486.16163,750.19927 C 471.13234,727.44702 440.83234,683.45493 440.83234,683.45493 L 351.72444,660.96793 z " id="path4134" sodipodi:nodetypes="csscscscscc"/>
    <path style="fill:url(#linearGradient2178);fill-opacity:1;fill-rule:evenodd;stroke:none;stroke-width:1px;stroke-linecap:butt;stroke-linejoin:miter;stroke-opacity:1" d="M 569.57466,162.31111 L 592.05335,171.71167 C 603.44479,176.52957 609.43774,183.19195 608.04107,194.69716 L 541.72238,687.64334 C 539.60819,704.97073 529.07708,712.1811 517.54205,712.20159 L 484.27143,715.55669 L 528.78896,162.66789 L 569.57466,162.31111 z " id="path2162" sodipodi:nodetypes="cccccccc"/>
    <path style="fill:url(#linearGradient2186);fill-opacity:1;fill-rule:evenodd;stroke:none;stroke-width:1px;stroke-linecap:butt;stroke-linejoin:miter;stroke-opacity:1" d="M 228.49063,191.88797 C 208.44336,306.37544 178.65673,485.88475 159.23781,596.31208 C 157.9939,603.38566 161.5588,618.91963 173.75913,622.7045 C 249.68493,646.25872 394.97534,690.13535 480.37608,714.45519 C 488.93985,716.89392 503.10006,713.15438 506.1905,692.06637 C 526.57895,553.67916 579.90381,187.9815 579.90381,187.9815 C 581.47568,172.87847 572.95755,160.91701 560.55818,160.84405 C 560.55818,160.84405 322.11094,170.51066 249.10599,172.23468 C 239.08104,172.47142 230.72987,179.09992 228.49063,191.88797 z " id="path2160" sodipodi:nodetypes="cssssccss"/>
    <path style="fill:#000000;fill-rule:evenodd;stroke:#000000;stroke-width:1.01422322px;stroke-linecap:butt;stroke-linejoin:miter;stroke-opacity:1" d="M 234.64241,195.39267 C 236.23397,186.13299 239.74082,177.69776 254.11199,177.2724 L 551.20067,168.47922 C 561.15794,168.18451 574.93149,171.35351 571.97653,190.72698 L 517.05476,550.80894 C 515.52783,560.81993 511.22324,577.05335 492.43102,573.60696 L 193.27222,518.74291 C 186.21464,517.44858 180.47535,510.53679 181.71811,503.30635 L 234.64241,195.39267 z " id="path2166" sodipodi:nodetypes="cssssssss"/>
    <path style="fill:#4d4d4d;fill-rule:evenodd;stroke:none;stroke-width:1.03482962px;stroke-linecap:butt;stroke-linejoin:miter;stroke-opacity:1" d="M 254.20097,204.63989 L 542.73183,202.90622 L 489.9097,532.00145 L 202.89282,489.67144 L 254.20097,204.63989 z " id="path2170" sodipodi:nodetypes="ccccc"/>
    <path sodipodi:nodetypes="ccccc" id="path6184" d="M 256.64264,208.4547 L 542.73703,206.7412 L 490.36095,532.00665 L 205.76776,490.16924 L 256.64264,208.4547 z " style="fill:url(#linearGradient13049);fill-opacity:1;fill-rule:evenodd;stroke:none;stroke-width:1.02443767px;stroke-linecap:butt;stroke-linejoin:miter;stroke-opacity:1"/>
    <path transform="matrix(0.8541656,0.1550615,-0.1254314,0.8254192,225.29026,208.8009)" d="M 188.21075 430.68665 A 25.644287 32.284325 0 1 1  136.92218,430.68665 A 25.644287 32.284325 0 1 1  188.21075 430.68665 z" sodipodi:ry="32.284325" sodipodi:rx="25.644287" sodipodi:cy="430.68665" sodipodi:cx="162.56647" id="path3247" style="opacity:1;fill:#000000;fill-opacity:1;stroke:none;stroke-width:3.5999999;stroke-linecap:round;stroke-linejoin:round;stroke-miterlimit:4;stroke-dasharray:none;stroke-opacity:1;filter:url(#filter4246)" sodipodi:type="arc"/>
    <path sodipodi:type="arc" style="opacity:1;fill:#000000;fill-opacity:1;stroke:none;stroke-width:3.5999999;stroke-linecap:round;stroke-linejoin:round;stroke-miterlimit:4;stroke-dasharray:none;stroke-opacity:1" id="path2209" sodipodi:cx="162.56647" sodipodi:cy="430.68665" sodipodi:rx="25.644287" sodipodi:ry="32.284325" d="M 188.21075 430.68665 A 25.644287 32.284325 0 1 1  136.92218,430.68665 A 25.644287 32.284325 0 1 1  188.21075 430.68665 z" transform="matrix(0.8541656,0.1550615,-0.1254314,0.8254192,224.85499,208.29113)"/>
    <path transform="matrix(0.8541656,0.1550615,-0.1254314,0.8254192,223.96179,207.72681)" style="opacity:0.35555558;fill:#ececec;fill-opacity:1;stroke:none;stroke-width:3.5999999;stroke-linecap:round;stroke-linejoin:round;stroke-miterlimit:4;stroke-opacity:1;filter:url(#filter3243)" d="M 188.21075,430.68665 C 188.21075,448.50759 170.24392,424.44682 156.08828,424.44682 C 141.93263,424.44682 136.92218,448.50759 136.92218,430.68665 C 136.92218,412.8657 148.41082,398.40232 162.56647,398.40232 C 176.72211,398.40232 188.21075,412.8657 188.21075,430.68665 z " id="path2216" sodipodi:nodetypes="csssc"/>
    <path transform="matrix(0.8541656,0.1550615,-0.1254314,0.8254192,224.85499,208.29113)" style="opacity:0.23640005;fill:#cccccc;fill-opacity:1;stroke:none;stroke-width:3.5999999;stroke-linecap:round;stroke-linejoin:round;stroke-miterlimit:4;stroke-opacity:1;filter:url(#filter5246)" d="M 188.21075,430.68665 C 188.21075,448.50759 176.72211,462.97097 162.56647,462.97097 C 148.41082,462.97097 136.92218,448.50759 136.92218,430.68665 C 136.92218,412.8657 143.24953,438.5095 157.40518,438.5095 C 171.56082,438.5095 188.21075,412.8657 188.21075,430.68665 z " id="path4250" sodipodi:nodetypes="csssc"/>
  </g>
  <metadata>
    <rdf:RDF>
      <cc:Work>
        <dc:format>image/svg+xml</dc:format>
        <dc:type rdf:resource="http://purl.org/dc/dcmitype/StillImage"/>
        <cc:license rdf:resource="http://creativecommons.org/licenses/publicdomain/"/>
        <dc:publisher>
          <cc:Agent rdf:about="http://openclipart.org/">
            <dc:title>Open Clip Art Library</dc:title>
          </cc:Agent>
        </dc:publisher>
        <dc:title>A new Computer</dc:title>
        <dc:date>2007-08-08T17:43:49</dc:date>
        <dc:description/>
        <dc:source>http://openclipart.org/detail/4714/a-new-computer-by-bigredsmile</dc:source>
        <dc:creator>
          <cc:Agent>
            <dc:title>BigRedSmile</dc:title>
          </cc:Agent>
        </dc:creator>
        <dc:subject>
          <rdf:Bag>
            <rdf:li>apple</rdf:li>
            <rdf:li>apple</rdf:li>
            <rdf:li>clip art</rdf:li>
            <rdf:li>clipart</rdf:li>
            <rdf:li>computer</rdf:li>
            <rdf:li>computer</rdf:li>
            <rdf:li>imac</rdf:li>
            <rdf:li>imac</rdf:li>
            <rdf:li>image</rdf:li>
            <rdf:li>media</rdf:li>
            <rdf:li>public domain</rdf:li>
            <rdf:li>reflection</rdf:li>
            <rdf:li>reflection</rdf:li>
            <rdf:li>svg</rdf:li>
          </rdf:Bag>
        </dc:subject>
      </cc:Work>
      <cc:License rdf:about="http://creativecommons.org/licenses/publicdomain/">
        <cc:permits rdf:resource="http://creativecommons.org/ns#Reproduction"/>
        <cc:permits rdf:resource="http://creativecommons.org/ns#Distribution"/>
        <cc:permits rdf:resource="http://creativecommons.org/ns#DerivativeWorks"/>
      </cc:License>
    </rdf:RDF>
  </metadata>
</svg>