<?xml version="1.0" encoding="UTF-8"?>
<!-- Generator: Adobe Illustrator 12.0.1, SVG Export Plug-In . SVG Version: 6.00 Build 51448)  -->
<!DOCTYPE svg PUBLIC "-//W3C//DTD SVG 1.1//EN" "http://www.w3.org/Graphics/SVG/1.1/DTD/svg11.dtd" [
<!ENTITY ns_svg "http://www.w3.org/2000/svg">
<!ENTITY ns_xlink "http://www.w3.org/1999/xlink">
]>
<svg xmlns="http://www.w3.org/2000/svg" xmlns:xlink="http://www.w3.org/1999/xlink" xmlns:svg="http://www.w3.org/2000/svg" xmlns:dc="http://purl.org/dc/elements/1.1/" xmlns:cc="http://web.resource.org/cc/" xmlns:rdf="http://www.w3.org/1999/02/22-rdf-syntax-ns#" version="1.1" id="Layer_1" width="394.542" height="403.735" viewBox="0 0 394.542 403.735" overflow="visible" enable-background="new 0 0 394.542 403.735" xml:space="preserve">
<g>
	<path fill-rule="evenodd" clip-rule="evenodd" d="M264.016,6.454c-0.993,0.71-3.55-1.058-4.8-1.68   c-4.729-1.003-10.82-2.076-14.88-1.68c2.445-1.244,5.934-0.646,8.64-0.24C257.146,3.479,261.232,4.931,264.016,6.454z"/>
	<path fill-rule="evenodd" clip-rule="evenodd" d="M294.736,28.294c-13.514-7.687-27.562-14.838-42.721-20.88   c-3.004-0.63-8.479-2.018-8.88,1.44c-0.21,1.82,3.739,4.681,5.521,6c0.428,0.316,1.891,1.639,2.16,1.68   c0.402,0.062,1.269-0.649,1.68-0.72c3.027-0.524,6.738,0.003,8.4,1.44c-2.59-0.467-6.17-1.169-9.12-0.48   c3.359,3.2,7.883,5.237,12,7.68c1.577-0.822,2.964-1.835,4.08-3.12c-1.829-1.611-4.714-2.167-6.48-3.84   c1.772-0.541,3.603,0.922,5.04,1.68c1.608,0.848,3.223,1.759,4.8,2.64c3.188,1.779,6.729,3.226,9.84,5.04   c5.078,2.96,9.903,6.299,15.12,9.12c5.239,2.833,10.503,5.665,15.36,8.88c3.013,0.427,5.611,1.268,8.88,1.44   c-3.662-3.54-8.833-7.092-13.68-10.32c-1.59-1.059-3.504-1.812-4.561-3.36c7.404,3.796,13.591,8.81,19.68,13.92   c1.102,0.222,1.16-0.6,2.16-0.48c0,0.4,0,0.8,0,1.2c4.274-0.722,0.151-4.438-0.479-5.52c2.17,0.694,3.687,3.707,2.64,5.52   c-4.612,1.115-10.738-0.526-15.6-1.68c-10.992-2.609-20.318-7.055-30-11.28c-6.094-2.659-12.35-6.062-18.24-9.36   c-7.127-3.991-13.287-8.144-18.72-12.72c-3.153-2.696-0.394-6.599,4.08-6.48c3.489,0.093,6.625,2.189,9.359,3.36   c7.351,3.147,14.191,5.927,21.601,9.84c4.294,2.268,8.362,4.38,12.479,6.72C292.427,26.387,294.252,26.828,294.736,28.294z    M306.976,43.414c-12.525-7.474-25.339-14.661-38.159-21.84c-1.531,0.949-2.703,2.257-4.08,3.36   C277.663,32.087,292.005,39.105,306.976,43.414z"/>
	<path fill-rule="evenodd" clip-rule="evenodd" d="M272.176,10.534c2.263,1.112,6.023,1.958,6.721,3.84   C276.716,13.034,273.918,12.312,272.176,10.534z"/>
	<path fill-rule="evenodd" clip-rule="evenodd" fill="#FFFFFF" d="M225.616,282.934c-7.709,0.269-12.492-2.389-17.76-4.561   c0.707,1.778,3.166,1.854,5.04,2.64c3.592,1.507,8.13,2.669,12.96,2.881c-0.153,1.527-3.011,0.349-4.32,0.72   c0.236,1.443,2.955,0.405,4.32,0.72c0.592,31.142,1.77,59.971,4.08,88.08c-1.393,0.688-2.83,1.33-5.04,1.2   c-1.824-18.912-1.848-38.043-3.601-55.92c0.233,18.135,1.796,36.552,2.88,55.92c-1.404,0.298-3.793-0.102-5.04-0.721   c-1.975-26.562-3.537-59.37-4.319-90.479c-0.436,29.492,1.929,59.673,3.6,90c-17.072-5.728-32.63-12.971-48.24-20.16   c-0.313-4.407-0.477-9.867-1.2-12.479c-0.318,3.599,0.504,8.135,0.72,12c-22.738-9.982-43.716-21.725-64.8-33.36   c-0.308-2.731-0.22-5.859-0.96-8.16c-0.554,2.079,0.467,5.929,0.24,7.68c-1.845-0.251-1.076-2.558-1.2-3.84   c-0.398-4.112-0.911-9.409-1.44-13.439c-0.664,4.632,1.04,10.694,0.96,16.08c-33.689-18.552-65.339-39.14-93.6-63.12   c-3.069-27.343-5.409-64.458-5.04-91.44c2.243,0.797,3.146,2.933,5.52,3.6c-1.457-2.144-4.09-3.11-5.76-5.04   c0.576-10.456,0.426-19.458,0.96-30c-1.467,6.283-1.083,12.466-1.2,18.24c-0.624,30.652,0.779,67.403,4.8,102.96   c-1.283-0.228-2.176-2.986-2.4-4.561c-1.947-13.672-2.051-26.229-3.12-40.32c-3.717-48.995-1.528-103.594,5.52-148.08   c0.423,0.217,0.396,0.884,0.96,0.96c0.325-1.134-0.625-1.413-0.72-2.64c-0.257-3.313,1.753-7.142,3.12-9.6   c2.925-5.261,7.852-9.981,12.24-12.24c0.8,0,1.6,0,2.4,0c0.832-0.177-0.94-0.915-0.24-0.96c21.232-9.128,41.41-20.185,69.12-22.32   c25.854-1.992,47.62,5.378,66,12.72c7.062,2.821,13.663,6.28,20.16,9.84c18.912,10.361,39.038,21.134,54.48,35.52   c10.01,9.325,20.729,21.553,22.08,37.2c0.201,2.336,0.169,4.832,0,6.96c-1.053,13.197-7.571,23.888-13.681,33.36   c-5.854,9.244-14.581,17.122-16.08,30.72c-1.01,9.165-0.771,18.792-1.199,28.56C225.697,233.51,225.803,258.85,225.616,282.934z    M90.736,16.294c4.525-0.362,10.542-1.292,16.56-0.96C102.48,14.298,94.246,14.821,90.736,16.294z M137.536,19.654   c-4.111,3.507-9.04,6.301-13.2,9.36c-1.434,1.055-3.152,2.019-4.08,3.6c4.157-2.697,9.392-6.526,13.92-9.6   c1.369-0.93,3.367-2.982,4.8-3.12c1.726-0.166,3.205,1.383,5.04,1.2c-3.236-1.717-7.299-2.711-11.28-3.6   c-7.855-1.753-16.357-2.955-24.96-2.4C118.606,15.704,129.005,16.745,137.536,19.654z M51.376,27.334   c11.149-3.419,22.896-8.163,34.8-10.32c1.273-0.23,3.635,0.165,3.36-1.2c-0.014,0.146-0.036,0.284-0.24,0.24   C75.958,18.155,62.65,22.368,51.376,27.334z M154.096,24.454c-0.95-1.132-3.471-1.965-5.04-1.68   C150.672,23.397,152.222,24.088,154.096,24.454z M182.176,37.654c-3.448-2.919-7.885-4.5-12-6.48   c-4.137-1.99-8.085-4.554-12.72-5.76c-0.16,0-0.32,0-0.48,0C165.452,29.418,173.772,33.578,182.176,37.654z M124.336,26.374   c-10.055,8.024-21.164,14.996-30.96,23.28c10.88-7.199,20.989-15.171,31.44-22.8C124.789,26.561,124.745,26.286,124.336,26.374z    M42.496,31.414c1.272-0.205,4.137-0.981,3.12-1.92C44.754,30.311,42.97,30.208,42.496,31.414z M84.976,53.494   c9.113-6.088,18.955-13.524,27.84-20.64c-0.053-0.187-0.201-0.279-0.48-0.24C103.558,39.916,93.542,45.98,84.976,53.494z    M35.776,33.814c-7.199,3.201-13.553,7.247-18.24,12.96c-0.349,1.646-2.951,3.345-2.16,4.56c2.621-3.835,5.182-7.51,8.88-10.32   c3.736-2.839,8.32-4.341,12.24-7.2C36.256,33.814,36.016,33.814,35.776,33.814z M35.536,42.454c-1.701-1.34-3.701-3.657-5.76-3.84   C31.535,39.896,33.447,42.301,35.536,42.454z M235.456,74.134c-5.605,4.714-12.517,8.124-17.76,13.2   c6.396-3.924,12.311-8.33,18.239-12.72c3.29,3.448,6.899,6.954,9.36,11.28c2.139,3.759,3.592,7.869,5.521,12   c-4.15-16.112-15.775-26.035-27.12-35.04c-11.612-9.217-25.547-16.024-38.4-23.76c-0.16,0-0.32,0-0.48,0   C202.235,50.235,221.601,59.43,235.456,74.134z M94.576,43.174c-1.629,1.391-3.352,2.929-5.28,4.32   c-5.002,3.609-10.147,7.691-14.88,11.04c-1.066,0.754-2.559,1.013-2.64,2.4c8.039-5.561,15.75-11.45,23.28-17.52   C95.003,43.227,94.855,43.135,94.576,43.174z M44.176,48.694c-1.271-1.849-3.42-2.82-5.52-3.84   C40.012,46.618,42.139,47.611,44.176,48.694z M29.296,57.814c7.409,4.879,14.747,10.083,22.32,14.16   c-0.608-1.379-2.221-1.941-3.36-2.64c-8.953-5.488-17.813-11.154-25.92-17.28c-0.24,0-0.48,0-0.72,0   C23.495,54.314,26.541,55.999,29.296,57.814z M65.776,62.134c-3.597-2.003-6.474-4.726-10.56-6.24c2.79,2.811,7.16,4.04,9.84,6.96   c-2.949,3.21-6.686,5.634-8.64,9.84c1.555-0.22,1.611-1.89,2.4-2.88c2.031-2.549,4.833-4.726,7.44-6.72   c4.435,2.849,9.654,6.182,14.16,8.16c-4.153-3.286-9.373-5.507-13.68-8.64c3.915-3.525,8.654-6.226,12.48-9.84   c-0.053-0.187-0.201-0.279-0.48-0.24C74.531,55.849,70.303,59.141,65.776,62.134z M10.816,66.694   c0.681-3.959,1.085-8.194,2.64-11.28c-0.027-0.293-0.071-0.568-0.48-0.48C11.631,57.953,10.034,63.862,10.816,66.694z    M20.417,69.094c-2.44-1.16-4.008-3.192-6.72-4.08C15.418,66.733,17.912,68.957,20.417,69.094z M49.216,83.494   c1.388-1.832,2.113-4.158,3.12-6.24c1.042-2.157,2.321-4.171,3.36-6.24c1.083-0.437,1.208-1.831,2.16-2.4   c-0.027-0.293-0.072-0.568-0.48-0.48C54.007,72.604,50.75,77.187,49.216,83.494z M5.056,112.534c1.352-0.523,0.628-2.195,0.72-3.12   c1.309-13.146,2.497-27.401,4.56-39.84c-0.053-0.187-0.201-0.279-0.48-0.24C7.485,83.494,6.266,97.348,5.056,112.534z    M29.056,75.334c-1.958-1.962-4.301-3.539-6.96-4.8C23.889,72.661,26.334,74.136,29.056,75.334z M54.016,77.494   c0.452-0.333,1.389-1.688,0.48-1.92C54.128,75.992,53.107,77.262,54.016,77.494z M75.136,86.134c0.315-1.637-3.097-1.512-3.6-3.12   c-4.422-1.817-8.012-4.468-12-6.72c-0.16,0-0.32,0-0.48,0C63.815,80.174,69.802,82.828,75.136,86.134z M46.336,85.654   c-0.344-0.026-1.251-1.054-1.2,0c2.663,0.676-0.407,5.086,0.96,6.48c0.646-1.753,0.194-3.435,0.96-5.28   c6.703,4.337,13.977,8.103,20.64,12.48c0.023,1.508-1.199,4.18,0,5.28c0.172-2.262-0.022-4.013,0.96-5.04   c2.646,1.594,4.977,3.503,8.16,4.56c-9.311-6.689-20.346-11.654-29.76-18.24c0.453-2.187,1.352-3.929,1.92-6   c-0.053-0.187-0.201-0.279-0.48-0.24C47.617,81.495,47.207,83.804,46.336,85.654z M191.056,104.374   c5.151-2.864,9.481-6.827,14.16-10.32c5.712-4.266,11.86-8.036,17.28-12.72C211.443,88.441,201.015,96.172,191.056,104.374z    M20.656,224.133c0.297,5.226,0.032,10.909,0.96,15.12c0.941,4.269,4.716,5.947,7.92,8.16c-1.516-2.404-4.449-3.392-6.24-5.52   c-1.093-2.659-1.442-5.483-1.68-8.881c-3.305-47.148-2.909-100.125,1.44-145.679c-2.42,43.104-3.914,85.132-1.44,128.64   c0.31,5.454,1.143,12.274,1.44,18.239c0.069,1.376-0.241,2.832,0,4.08c0.892,4.623,6.603,6.916,10.08,9.36   c6.559,4.61,13.606,10.591,20.64,13.92c-7.098-5.371-14.952-10.114-22.32-15.601c-2.276-1.694-5.804-3.765-6.96-5.76   c-1.786-3.08-1.067-10.369-1.44-14.88c-1.001-12.121-1.708-24.822-1.92-36.24c-0.551-29.64-0.086-68.896,2.88-101.76   c0.775,7.57-0.488,15.497-0.96,23.28c-2.472,40.784-1.099,86.694,1.68,126.96c0.531,0.749,0.948,1.612,1.2,2.64   c50.51,38.685,108.813,69.387,169.439,97.68c1.825,0.853,4.297,1.241,5.52,3.12c-12.61-5.424-24.957-10.819-36.96-16.8   c-11.948-5.953-23.577-12.382-35.76-18c20.204,11.436,42.143,21.744,63.6,31.68c3.059,1.417,6.459,2.396,9.12,4.561   c-1.979,0.375-2.938-1.536-4.56-0.72c1.105,0.975,3.37,0.79,4.56,1.68c-2.061,2.682-4.947-0.07-6.96-0.96   c-6.041-2.67-12.306-5.202-17.76-7.92c-0.975-0.485-2.291-1.429-3.36-0.96c4.202,2.578,8.984,4.358,13.68,6.479   c4.406,1.991,9.176,5.46,14.64,4.561c0.93-4.833,0.332-9.925,0-14.88c-3.125-46.595-2.097-94.307,1.44-140.16   c1.277,4.783,0.143,10.158-0.24,15.36c-1.185,16.102-2.471,32.979-1.68,47.279c0.45-12.852,0.583-25.63,1.44-38.399   c0.564-8.422,2.72-19.327,0.72-26.4c-2.974-3.778-7.834-5.509-12.96-7.68c-10.593-4.485-21.337-9.954-30.72-14.88   c-0.161-3.041,0.436-5.324,0.48-8.16c-1.133,2.109-0.514,4.88-1.2,7.68c-26.098-12.317-53.559-27.887-78-42.72   c-2.121-1.288-9.839-4.511-10.56-6.72c-0.648-1.986,1.462-6.217,0.96-8.4c-1.458,1.902-0.708,6.013-1.68,8.4   c-13.58-8.279-29.084-18.415-42.48-28.08c-1.998-1.441-4.326-4.005-6.48-3.84c-1.79,0.137-3.082,2.271-3.36,3.84   c-0.295,1.661-0.276,4.212-0.48,6.72c-0.394,4.85-0.309,10.5-0.72,15.12c1.368-0.847,0.545-4.044,0.72-6.48   c0.062-0.866,0.398-2.016,0.48-3.12c0.41-5.565-0.537-19.681,6.24-13.92c-4.287-0.248-3.489,3.127-3.84,6.96   c-1.139,12.439-2.347,27.762-1.68,39.36c0.336-12.456,1.053-24.688,2.16-37.2c0.248-2.797-0.943-7.909,2.88-8.4   C18.208,127.771,18.208,181.08,20.656,224.133z M79.936,89.014c2.183,0.699,4.055,2.984,6.24,2.88   C84.435,90.87,81.768,88.364,79.936,89.014z M144.976,107.734c-1.594-1.448-3.584-2.603-5.52-3.6   c-5.608-2.889-11.412-6.213-17.28-9.6c-0.24,0-0.48,0-0.72,0C128.849,99.381,136.917,103.553,144.976,107.734z M95.056,97.654   c16.858,8.821,32.587,18.773,49.68,27.36c-16.437-9.723-33.258-19.062-50.16-28.32C94.401,97.349,95.053,97.177,95.056,97.654z    M196.336,97.174c-7.1,6.5-15.833,11.367-22.8,18c8.226-5.694,16.161-11.679,23.76-18   C196.976,97.174,196.656,97.174,196.336,97.174z M251.776,103.894c0.187-0.687,0.041-2.848-0.721-3.36   C251.098,101.853,250.982,103.328,251.776,103.894z M68.416,109.414c0.955-1.704,1.319-6.496,0.72-8.16   C68.914,103.991,68.593,106.63,68.416,109.414z M245.296,128.134c-1.005,0.767-1.361,2.32-2.16,3.6   c-0.699,1.12-2.401,2.349-1.68,3.36c5.134-7.906,9.868-16.211,10.56-28.56c-0.053-0.187-0.2-0.279-0.479-0.24   C251.226,115.344,247.961,121.438,245.296,128.134z M166.096,118.294c4.822-2.458,8.391-6.169,12.48-9.36   c-0.053-0.187-0.201-0.279-0.48-0.24C174.209,112.007,169.874,114.872,166.096,118.294z M85.936,109.414   c7.773,4.811,17.148,9.7,24.96,14.4c1.007,0.605,2.429,1.557,3.6,1.2c-9.582-5.458-18.995-11.084-29.04-16.08   C85.483,109.227,85.528,109.502,85.936,109.414z M15.376,120.454c0.071-1.957,1.119-5.402,0-6.96   C15.717,116.24,14.335,119.125,15.376,120.454z M164.896,119.254c-4.927,4.033-8.643,9.277-11.52,15.36   c4.059-5.221,6.819-11.741,12.48-15.36c9.863,5.497,19.672,11.048,30.24,15.84c-10.968-6.312-22.345-12.215-33.84-18   C162.545,118.404,164.539,118.012,164.896,119.254z M4.816,124.774c-0.043-2.038,1.08-3.702,0-5.04   C4.762,121.156,3.715,123.75,4.816,124.774z M252.256,122.374c1.066,0.25,1.635-2.231,0.72-2.4   C252.757,120.795,252.383,121.461,252.256,122.374z M149.296,141.094c2.401-5.359,4.378-11.143,7.92-15.36   c-0.038-0.283,0.041-0.681-0.24-0.72C153.668,129.469,150.58,135.414,149.296,141.094z M14.656,126.214   c-0.543,17.788-0.822,32.085-0.96,47.76c-1.729-0.511-2.179-2.301-4.08-2.64c0.829,2.131,3.708,2.318,4.32,4.32   c0.392,1.283-0.067,3.276,0,4.8c0.706,16.069,0.14,34.051,2.4,48c-2.156-36.362-2.723-68.562-0.96-102.72   c-0.307-0.013-0.333-0.308-0.72-0.24C14.656,125.734,14.656,125.974,14.656,126.214z M152.416,129.333   c0.123-0.702-1.102-1.273-1.44-0.72C151.562,128.748,151.487,129.542,152.416,129.333z M129.136,134.134   c0.604,0.326,1.871,1.009,2.4,0.48c-2.856-1.305-5.695-3.904-8.64-4.32C124.837,131.192,127.132,133.052,129.136,134.134z    M248.656,131.974c0.691,0.135,1.247-1.894,0.479-1.68C248.779,130.657,248.749,131.347,248.656,131.974z M198.976,153.574   c-12.137-6.503-24.299-12.981-36.72-19.2c-0.058-0.368-0.396-0.035-0.48,0.24c18.661,9.658,36.757,19.883,56.64,28.32   C212.32,159.43,205.816,156.333,198.976,153.574z M156.256,149.014c0.128,1.812-0.714,3.921,0,5.52   c0.732-1.187-0.412-4.252,0.72-5.04c3.409,1.535,7.137,3.91,10.32,5.52c1.119,0.566,2.433,1.303,3.36,1.2   c-4.882-2.858-12.071-6.681-18-9.84c-1.356-0.722-4.961-2.174-5.28-3.6c-0.433-1.938,1.929-3.57,0.96-5.52   c-0.755,1.724-0.654,4.306-1.92,5.52c-3.766-1.835-7.633-4.847-11.52-5.76C142.032,140.998,149.091,145.059,156.256,149.014z    M227.776,150.454c-1.809-1.679-4.247-2.34-6.48-3.36c-6.827-3.118-13.393-6.814-20.16-9.84c-0.16,0-0.32,0-0.48,0   C209.266,142.084,218.156,146.633,227.776,150.454z M233.776,153.574c-0.923-0.554-2.569-2.549-3.36-1.68   c0.817,0.863,2.13,1.23,2.88,2.16c-0.55,1.45-2.16,1.839-2.399,3.6c5.787-5.892,10.874-12.485,14.88-20.16   c-0.053-0.187-0.201-0.279-0.48-0.24C242.069,143.307,238.124,148.642,233.776,153.574z M17.056,143.734   c0.212-0.986,0.686-3.733-0.24-4.32C16.914,141.438,16.165,142.618,17.056,143.734z M232.336,147.094   c2.254-1.506,3.62-3.9,5.04-6.24c-0.053-0.188-0.201-0.279-0.479-0.24C235.748,143.146,233.531,144.609,232.336,147.094z    M218.416,169.174c3.288-6.472,6.323-13.197,11.04-18.24C224.107,155.345,220.935,161.932,218.416,169.174z M157.456,159.574   c0.337-2.387,1.129-6.011,0.48-8.16C157.526,153.725,157.044,157.239,157.456,159.574z M16.336,168.934c0,5.009-0.118,9.97,0,14.88   c0.228,9.522,0.09,19.044,1.44,27.359c-1.017-18.391-0.726-38.25-1.2-56.879C16.316,157.779,16.336,164.039,16.336,168.934z    M234.736,155.014c0.729,0.55,1.393,1.167,2.16,1.68C237.122,155.336,235.158,154.193,234.736,155.014z M228.496,161.014   c0.819-0.14,2.279-1.931,1.2-2.4C229.493,159.611,228.733,160.051,228.496,161.014z M222.256,184.774   c0.171-6.095,1.365-13.177,3.84-17.76c1.094-0.102,1.783,1.102,2.641,0.48c-0.16-1.12-1.988-0.572-2.4-1.44   c0.266-0.933,1.938-2.479,0.96-3.12C224.346,168.916,221.081,176.83,222.256,184.774z M223.696,165.574   c0.031-0.912-0.628-1.132-1.44-1.2C222.225,165.285,222.884,165.506,223.696,165.574z M5.296,166.534   c2.809,1.351,4.553,3.767,7.44,5.04c-2.001-2.479-4.904-4.056-7.44-6C5.296,165.894,5.296,166.214,5.296,166.534z M217.696,173.494   c0.215-0.285,0.676-2.272-0.24-2.16C217.77,172.351,216.725,173.235,217.696,173.494z M215.296,178.774   c-4.089-2.792-9.19-4.569-13.68-6.96c-0.16,0-0.32,0-0.48,0C205.26,174.729,210.152,176.878,215.296,178.774z M215.536,198.213   c-0.394,7.51-0.703,14.774-0.24,21.601c0.9-13.604,0.34-30.614,1.681-43.92c0.368-0.057,0.035-0.395-0.24-0.48   C215.224,182.331,215.924,190.82,215.536,198.213z M221.056,180.214c-1.02-0.58-2.705-0.495-3.84-0.96   C217.462,180.339,220.481,181.039,221.056,180.214z M223.937,180.934c0.579,0.039,2.261,1.067,2.399,0   C225.686,180.548,224.485,180.151,223.937,180.934z M222.256,189.813c-0.197-0.602,0.467-2.066-0.479-1.92   C221.49,188.635,221.472,189.307,222.256,189.813z M221.536,194.134c-1.125,27.431-2.188,57.179-0.96,87.12   c-0.235-28.699,0.312-63.609,1.439-87.6c-0.053-0.187-0.2-0.279-0.479-0.24C221.536,193.654,221.536,193.894,221.536,194.134z    M19.216,239.973c0.244-5.513-0.673-12.319-0.96-19.68c-0.053-0.187-0.201-0.279-0.48-0.24   C17.86,227.089,18.458,233.612,19.216,239.973z M215.056,234.454c0.267-1.282,0.665-4.624-0.239-5.52   C214.974,230.696,214.499,233.091,215.056,234.454z M17.056,239.494c0.027-0.864,0.073-3.292-0.72-4.08   C16.47,236.879,15.905,239.044,17.056,239.494z M215.056,241.173c-0.229-0.729,0.515-2.434-0.479-2.399   C214.806,239.503,214.062,241.208,215.056,241.173z M19.937,245.253c-0.974-1.347-1.494-3.146-2.64-4.319   C17.663,242.887,18.18,244.69,19.937,245.253z M19.937,242.614c1.854,2.851,4.281,4.21,6.96,6.24   c1.343,1.018,2.706,2.133,4.08,3.119c19.727,14.175,41.003,28.031,62.4,39.601c25.192,13.62,49.835,29.037,75.84,40.08   c-2.712-2.501-6.408-3.142-9.6-4.8c-6.396-3.323-12.808-6.654-19.2-10.08c-15.973-8.561-31.599-16.973-47.28-25.92   c-18.191-10.38-36.295-22.291-53.76-33.841c-6.607-4.368-14.696-9.829-19.44-15.359C19.937,241.973,19.937,242.293,19.937,242.614z    M37.216,258.694c-5.267-4.413-10.953-8.407-16.8-12.24C25.559,250.991,31.151,255.079,37.216,258.694z M33.136,250.053   c0.123-1.013-1.252-1.773-1.92-1.199C31.896,249.214,32.239,249.912,33.136,250.053z M214.816,279.574   c0.128-9.011-0.091-19.748,0-29.521c-0.053-0.187-0.201-0.278-0.48-0.239C214.637,259.466,213.723,271.501,214.816,279.574z    M38.656,254.374c5.725,3.605,11.295,7.523,17.04,11.28c17.055,11.153,34.653,21.755,52.56,31.68   c12.05,6.679,24.378,13.001,36.48,19.68c10.687,5.898,22.061,10.835,32.88,16.08c1.369,0.664,2.79,2.296,4.56,1.681   c-50.734-24.069-98.833-50.765-143.28-81.12c-0.16,0-0.32,0-0.48,0C38.454,253.936,38.375,254.334,38.656,254.374z    M200.416,260.614c0.287-0.718,0.615-3.255-0.24-3.601C199.964,258.291,199.614,259.913,200.416,260.614z M43.456,263.494   c1.156,0.778,2.629,2.184,3.6,1.68c-2.17-1.669-4.417-3.263-6.96-4.56C40.676,261.726,42.193,262.643,43.456,263.494z    M61.936,266.854c-0.892-0.469-1.359-1.361-2.64-1.44C59.717,266.19,61.409,267.719,61.936,266.854z M199.936,266.133   c0.224,20.535-0.196,39.395,1.68,57.36c-0.531-17.188-1.438-34.886-0.96-51.12c1.708,0.009,3.652,2.219,4.8,1.2   c-1.42-1.061-3.689-1.271-5.04-2.4c-0.298-1.782,0.61-4.77-0.48-5.76C199.936,265.654,199.936,265.894,199.936,266.133z    M50.416,268.293c5.26,2.734,10.098,6.614,14.88,9.601c1.575,0.983,3.415,2.215,5.28,2.399c-6.743-4.377-13.425-8.814-20.4-12.96   C49.694,267.823,50.282,267.804,50.416,268.293z M123.856,304.053c-3.9-3.339-8.8-5.147-13.2-7.68   c-13.812-7.95-27.893-16.263-41.04-24.479C86.255,284.054,105.262,293.848,123.856,304.053z M211.216,278.374   c-2.512-1.888-5.661-3.139-9.12-4.08C204.672,276.118,207.896,277.293,211.216,278.374z M99.376,298.293   c0.208,3.745,0.086,6.335,0.96,9.36c0.356-3.855-0.924-6.371-0.24-9.36c12.001,6.479,23.423,13.536,36,19.44   c-2.257-1.818-4.9-3.193-7.44-4.561c-18.404-9.906-36.333-19.851-53.76-30.479c-0.24,0-0.48,0-0.72,0   C81.602,288.869,91.688,292.382,99.376,298.293z M220.816,292.053c-0.515-3.148,0.668-4.911-0.721-6.479   C220.365,287.705,219.449,291.02,220.816,292.053z M221.056,308.133c-0.158-2.001,0.318-4.638-0.239-6.239   C220.554,303.401,220.142,307.015,221.056,308.133z M151.696,325.893c-0.517-1.003-1.532-1.508-2.88-1.68   C149.272,325.277,150.458,325.611,151.696,325.893z M164.896,332.854c0.294,2.404-0.352,4.459,0.96,6   c-0.031-2.338-0.761-3.915-0.24-5.761c1.588,0.076,0.824,1.988,0.96,2.88c0.452,2.967,0.749,6.503,0.96,9.36   c0.08,1.087-0.613,3.025,0.72,3.6c-0.342-5.046-1.036-10.58-0.96-15.119c7.817,3.609,16.083,7.611,24,11.04   c2.646,1.146,5.282,3.052,8.16,2.64c-15.21-5.83-28.79-13.29-43.44-19.68C158.264,330.206,162.503,330.606,164.896,332.854z    M202.096,329.494c-0.041-0.679,0.207-1.646-0.48-1.68C201.238,328.22,201.356,329.484,202.096,329.494z M202.336,346.534   c1.244-2.638,0.596-8.452-0.24-11.28C201.896,339.433,202.642,342.692,202.336,346.534z M189.136,338.374   c0.173,0.787,0.983,0.938,1.92,0.96C191.046,338.417,189.587,338.098,189.136,338.374z M200.176,347.734   c1.086,0.206,1.495-0.266,1.68-0.96C200.924,346.722,200.351,347.028,200.176,347.734z"/>
	<path fill-rule="evenodd" clip-rule="evenodd" d="M107.296,15.334c-6.018-0.333-12.035,0.598-16.56,0.96   C94.246,14.821,102.48,14.298,107.296,15.334z"/>
	<path fill-rule="evenodd" clip-rule="evenodd" d="M107.776,15.094c8.603-0.555,17.105,0.647,24.96,2.4   c3.981,0.889,8.044,1.883,11.28,3.6c-1.835,0.183-3.314-1.365-5.04-1.2c-1.433,0.137-3.431,2.19-4.8,3.12   c-4.528,3.074-9.763,6.903-13.92,9.6c0.928-1.581,2.646-2.545,4.08-3.6c4.16-3.059,9.089-5.853,13.2-9.36   C129.005,16.745,118.606,15.704,107.776,15.094z"/>
	<path fill-rule="evenodd" clip-rule="evenodd" d="M282.016,15.574c1.569,0.035,2.175,1.578,3.841,1.92   c2.327,0.479,4.971-0.845,7.439,0c-1.035,1.045-3.945,0.215-5.76,0.48c9.784,6.216,20.304,11.696,29.52,18.479   c-1.689,0.067-2.987-1.312-4.319-2.16c-9.461-6.024-19.503-12.624-30.24-17.76C282.493,16.057,281.841,16.229,282.016,15.574z"/>
	<path fill-rule="evenodd" clip-rule="evenodd" d="M89.296,16.054c0.204,0.044,0.226-0.093,0.24-0.24   c0.275,1.365-2.087,0.969-3.36,1.2c-11.904,2.157-23.65,6.901-34.8,10.32C62.65,22.368,75.958,18.155,89.296,16.054z"/>
	<path fill-rule="evenodd" clip-rule="evenodd" d="M306.016,17.494c-1.071-0.128-2.025-0.375-2.399-1.2   C304.223,16.05,305.757,16.624,306.016,17.494z"/>
	<path fill-rule="evenodd" clip-rule="evenodd" d="M299.776,18.934c-1.634,1.267-5.371,0.682-8.4,0.48   C293.231,18.309,297.125,19.243,299.776,18.934z"/>
	<path fill-rule="evenodd" clip-rule="evenodd" d="M149.056,22.774c1.569-0.286,4.09,0.547,5.04,1.68   C152.222,24.088,150.672,23.397,149.056,22.774z"/>
	<path fill-rule="evenodd" clip-rule="evenodd" d="M156.976,25.414c0.16,0,0.32,0,0.48,0c4.635,1.206,8.583,3.77,12.72,5.76   c4.115,1.98,8.552,3.561,12,6.48C173.772,33.578,165.452,29.418,156.976,25.414z"/>
	<path fill-rule="evenodd" clip-rule="evenodd" d="M124.816,26.854c-10.451,7.629-20.56,15.601-31.44,22.8   c9.796-8.284,20.905-15.256,30.96-23.28C124.745,26.286,124.789,26.561,124.816,26.854z"/>
	<path fill-rule="evenodd" clip-rule="evenodd" d="M252.016,26.374c-6.458,2.503-14.982,4.214-21.84,5.52   c1.532-0.939,3.518-1.501,5.28-1.92C240.811,28.703,246.432,27.525,252.016,26.374z"/>
	<path fill-rule="evenodd" clip-rule="evenodd" d="M236.896,28.294c-0.951,1.168-2.77,1.097-4.08,1.44   c-9.634,2.518-21.046,5.289-30.72,7.44C212.905,33.583,225.877,30.875,236.896,28.294z"/>
	<path fill-rule="evenodd" clip-rule="evenodd" d="M45.616,29.494c1.017,0.939-1.848,1.716-3.12,1.92   C42.97,30.208,44.754,30.311,45.616,29.494z"/>
	<path fill-rule="evenodd" clip-rule="evenodd" d="M297.136,29.494c1.075,0.206,2.156,0.404,2.16,1.68   C298.373,30.816,297.554,30.356,297.136,29.494z"/>
	<path fill-rule="evenodd" clip-rule="evenodd" d="M112.336,32.614c0.279-0.039,0.427,0.053,0.48,0.24   c-8.885,7.116-18.727,14.552-27.84,20.64C93.542,45.98,103.558,39.916,112.336,32.614z"/>
	<path fill-rule="evenodd" clip-rule="evenodd" d="M36.496,33.814c-3.919,2.858-8.504,4.36-12.24,7.2   c-3.698,2.81-6.259,6.485-8.88,10.32c-0.792-1.215,1.811-2.915,2.16-4.56c4.687-5.713,11.041-9.759,18.24-12.96   C36.016,33.814,36.256,33.814,36.496,33.814z"/>
	<path fill-rule="evenodd" clip-rule="evenodd" d="M29.776,38.614c2.059,0.183,4.059,2.5,5.76,3.84   C33.447,42.301,31.535,39.896,29.776,38.614z"/>
	<path fill-rule="evenodd" clip-rule="evenodd" d="M319.456,38.374c0.994,0.046,1.363,0.716,1.68,1.44   C320.368,39.542,319.455,39.415,319.456,38.374z"/>
	<path fill-rule="evenodd" clip-rule="evenodd" d="M184.816,39.094c0.16,0,0.32,0,0.48,0c12.854,7.736,26.788,14.543,38.4,23.76   c11.345,9.005,22.97,18.928,27.12,35.04c-1.929-4.131-3.382-8.241-5.521-12c-2.461-4.326-6.07-7.833-9.36-11.28   c-5.929,4.391-11.843,8.796-18.239,12.72c5.243-5.077,12.154-8.486,17.76-13.2C221.601,59.43,202.235,50.235,184.816,39.094z"/>
	<path fill-rule="evenodd" clip-rule="evenodd" d="M95.056,43.414c-7.53,6.07-15.241,11.959-23.28,17.52   c0.081-1.387,1.574-1.646,2.64-2.4c4.733-3.349,9.878-7.431,14.88-11.04c1.928-1.391,3.651-2.929,5.28-4.32   C94.855,43.135,95.003,43.227,95.056,43.414z"/>
	<path fill-rule="evenodd" clip-rule="evenodd" d="M38.656,44.854c2.1,1.02,4.249,1.991,5.52,3.84   C42.139,47.611,40.012,46.618,38.656,44.854z"/>
	<path fill-rule="evenodd" clip-rule="evenodd" d="M21.616,52.054c0.24,0,0.48,0,0.72,0c8.106,6.126,16.967,11.792,25.92,17.28   c1.139,0.698,2.751,1.261,3.36,2.64c-7.573-4.077-14.911-9.281-22.32-14.16C26.541,55.999,23.495,54.314,21.616,52.054z"/>
	<path fill-rule="evenodd" clip-rule="evenodd" d="M78.736,52.534c0.279-0.039,0.427,0.053,0.48,0.24   c-3.826,3.614-8.565,6.314-12.48,9.84c4.307,3.133,9.526,5.354,13.68,8.64c-4.506-1.979-9.725-5.312-14.16-8.16   c-2.607,1.994-5.409,4.171-7.44,6.72c-0.79,0.99-0.846,2.66-2.4,2.88c1.955-4.206,5.691-6.629,8.64-9.84   c-2.68-2.92-7.05-4.149-9.84-6.96c4.086,1.514,6.963,4.236,10.56,6.24C70.303,59.141,74.531,55.849,78.736,52.534z"/>
	<path fill-rule="evenodd" clip-rule="evenodd" d="M12.976,54.934c0.409-0.088,0.453,0.187,0.48,0.48   c-1.554,3.085-1.959,7.32-2.64,11.28C10.034,63.862,11.631,57.953,12.976,54.934z"/>
	<path fill-rule="evenodd" clip-rule="evenodd" d="M13.696,65.014c2.712,0.888,4.28,2.92,6.72,4.08   C17.912,68.957,15.418,66.733,13.696,65.014z"/>
	<path fill-rule="evenodd" clip-rule="evenodd" d="M327.616,67.414c19.271,1.119,38.957,0.85,50.88,9.6   c-5.771-2.55-11.796-5.172-18.96-6.48c-9.352-1.708-20.454-1.872-31.44-2.4C327.94,67.89,327.544,67.886,327.616,67.414z"/>
	<path fill-rule="evenodd" clip-rule="evenodd" d="M57.376,68.134c0.408-0.088,0.453,0.187,0.48,0.48   c-0.952,0.569-1.077,1.963-2.16,2.4c-1.039,2.069-2.317,4.083-3.36,6.24c-1.007,2.082-1.732,4.408-3.12,6.24   C50.75,77.187,54.007,72.604,57.376,68.134z"/>
	<path fill-rule="evenodd" clip-rule="evenodd" d="M357.136,71.494c-4.728,0.235-9.92-0.74-15.359-0.96   c-16.506-0.666-32.962-1.251-50.16-1.68C314.036,68.664,336.49,68.744,357.136,71.494z"/>
	<path fill-rule="evenodd" clip-rule="evenodd" d="M9.856,69.334c0.279-0.039,0.427,0.053,0.48,0.24   c-2.063,12.438-3.251,26.694-4.56,39.84c-0.092,0.925,0.631,2.597-0.72,3.12C6.266,97.348,7.485,83.494,9.856,69.334z"/>
	<path fill-rule="evenodd" clip-rule="evenodd" d="M22.096,70.534c2.659,1.262,5.002,2.838,6.96,4.8   C26.334,74.136,23.889,72.661,22.096,70.534z"/>
	<path fill-rule="evenodd" clip-rule="evenodd" d="M319.696,71.254c-19.639-0.408-38.912,0.155-59.761,1.68   c1.927-1.539,4.621-0.816,6.961-0.96c12.219-0.754,24.833-1.44,38.399-1.44C310.36,70.534,315.691,70.058,319.696,71.254z"/>
	<path fill-rule="evenodd" clip-rule="evenodd" d="M279.376,73.174c-10.679,1.162-21.893,1.788-32.88,2.64   C256.604,73.758,268.093,73.469,279.376,73.174z"/>
	<path fill-rule="evenodd" clip-rule="evenodd" d="M54.496,75.574c0.909,0.232-0.028,1.586-0.48,1.92   C53.107,77.262,54.128,75.992,54.496,75.574z"/>
	<path fill-rule="evenodd" clip-rule="evenodd" d="M59.056,76.294c0.16,0,0.32,0,0.48,0c3.988,2.252,7.578,4.902,12,6.72   c0.503,1.608,3.915,1.483,3.6,3.12C69.802,82.828,63.815,80.174,59.056,76.294z"/>
	<path fill-rule="evenodd" clip-rule="evenodd" d="M48.496,79.654c0.279-0.039,0.427,0.053,0.48,0.24   c-0.568,2.071-1.467,3.813-1.92,6c9.414,6.586,20.45,11.55,29.76,18.24c-3.183-1.057-5.515-2.966-8.16-4.56   c-0.982,1.027-0.788,2.778-0.96,5.04c-1.199-1.1,0.023-3.772,0-5.28c-6.663-4.377-13.937-8.143-20.64-12.48   c-0.766,1.845-0.314,3.527-0.96,5.28c-1.367-1.394,1.703-5.804-0.96-6.48c-0.051-1.054,0.856-0.026,1.2,0   C47.207,83.804,47.617,81.495,48.496,79.654z"/>
	<path fill-rule="evenodd" clip-rule="evenodd" d="M222.496,81.334c-5.42,4.684-11.567,8.454-17.28,12.72   c-4.679,3.493-9.009,7.456-14.16,10.32C201.015,96.172,211.443,88.441,222.496,81.334z"/>
	<path fill-rule="evenodd" clip-rule="evenodd" fill="#9FA1A4" d="M137.776,265.654c-0.096-1.833-1.478-3.355-2.4-4.8   c-6.775-10.61-14.106-21.751-20.88-32.881c-23.013-37.812-44.278-78.295-62.64-121.199c40.483,25.377,83.865,50.243,129.6,71.52   c2.912,1.355,6.171,2.962,9.84,4.56c4.208,1.833,9.293,3.322,10.32,6.96c-3.597,48.11-4.474,98.418-0.96,149.041   c-2.795-0.726-4.754-2.286-7.44-3.12c-37.535-46.868-70.79-98.007-101.04-152.16c0.723,3.438,3.872,6.527,5.04,10.32   c28.259,49.823,60.07,97.367,94.08,140.64c-30.283-13.236-58.708-28.334-86.64-43.92c-15.683-22.397-30.212-45.948-44.64-69.6   c2.685,6.157,6.523,11.75,10.08,17.52c10.551,17.115,21.537,34.376,32.88,50.88c-22.677-12.578-45.109-27.504-66.24-42.479   c-3.065-2.173-6.6-4.203-8.88-6.48c-3.515-3.51-3.197-15.712-3.6-22.8c-1.034-18.184-1.48-37.803-1.68-57.36   c2.059,1.834,2.833,4.562,4.08,6.96c18.753,36.041,38.762,71.632,60.96,104.64c-0.726-2.58-2.473-4.771-3.84-6.96   c-9.833-15.749-20.189-32.115-29.76-48.721c-10.914-18.936-21.535-38.261-31.44-58.08c0.248-25.239,1.566-44.791,2.64-69.6   c4.903,2.708,12.95,8.771,18.96,12.96c2.113,1.473,5,2.662,6.24,4.08c1.868,2.136,3.276,7.279,4.8,10.8   c4.644,10.726,9.889,21.21,14.88,31.44C90.403,189.442,113.471,229.421,137.776,265.654z M71.536,157.654   c1.76,3.679,3.74,7.347,5.52,11.04c1.789,3.711,3.525,7.476,6,10.56c-3.908-7.452-7.305-15.415-11.76-22.32   C71.286,157.264,71.409,157.46,71.536,157.654z M88.336,176.854c-0.437-2.043-1.306-3.654-2.64-4.8   C86.485,173.745,86.983,175.727,88.336,176.854z M98.176,206.614c-1.399-2.681-2.764-5.396-4.56-7.68   C94.718,201.912,96.053,204.657,98.176,206.614z M48.016,212.854c-0.559-2.575-2.801-5.509-4.32-7.92   C44.073,207.691,46.524,210.416,48.016,212.854z M116.656,237.814c-2.218-4.503-4.694-8.746-7.68-12.48   C111.218,229.812,113.774,233.975,116.656,237.814z M126.496,236.614c-1.586-3.614-3.481-6.919-6-9.6   C122.25,230.459,124.151,233.759,126.496,236.614z M169.936,300.933c-0.437-2.139-2.171-3.833-3.36-5.52   c-9.153-12.985-18.839-25.907-27.12-39.6c-0.307-0.014-0.332-0.308-0.72-0.24C148.38,271.45,158.917,286.432,169.936,300.933z    M152.416,286.293c-1.362-2.078-2.553-4.327-4.32-6C149.092,282.738,150.365,284.905,152.416,286.293z"/>
	<path fill-rule="evenodd" clip-rule="evenodd" d="M86.176,91.894c-2.186,0.104-4.057-2.182-6.24-2.88   C81.768,88.364,84.435,90.87,86.176,91.894z"/>
	<path fill-rule="evenodd" clip-rule="evenodd" d="M257.536,91.894c1.061,0.539,1.536,1.664,1.92,2.88   C258.126,94.504,257.882,93.148,257.536,91.894z"/>
	<path fill-rule="evenodd" clip-rule="evenodd" d="M121.456,94.534c0.24,0,0.48,0,0.72,0c5.868,3.387,11.671,6.711,17.28,9.6   c1.936,0.997,3.926,2.152,5.52,3.6C136.917,103.553,128.849,99.381,121.456,94.534z"/>
	<path fill-rule="evenodd" clip-rule="evenodd" d="M94.576,96.694c16.902,9.258,33.723,18.597,50.16,28.32   c-17.093-8.586-32.822-18.539-49.68-27.36C95.053,97.177,94.401,97.349,94.576,96.694z"/>
	<path fill-rule="evenodd" clip-rule="evenodd" d="M260.176,96.694c2.154,2.966,2.709,7.531,4.08,11.28   c10.581,3.579,21.18,7.14,29.28,13.2c-8.949-4.811-18.234-9.285-29.04-12.24c0.065,4.052,1.663,11.002-0.24,15.12   c0.475-5.848,0.187-11.177-0.72-16.08C262.746,103.705,260.674,100.217,260.176,96.694z"/>
	<path fill-rule="evenodd" clip-rule="evenodd" d="M197.296,97.174c-7.599,6.321-15.534,12.306-23.76,18   c6.967-6.633,15.7-11.5,22.8-18C196.656,97.174,196.976,97.174,197.296,97.174z"/>
	<path fill-rule="evenodd" clip-rule="evenodd" fill="#FFFFFF" d="M391.696,97.654c1.878,22.548-5.466,41.961-12.721,58.56   c-4.561,10.436-8.762,20.718-13.92,30.72c-1.658,3.216-3.969,6.413-5.28,9.6c-0.335,0.816-0.158,1.868-0.479,2.64   c-1.649,3.972-4.826,7.002-6.24,11.04c-1.921-4.277,0.408-7.968,2.4-11.52c12.067-21.52,23.404-44.43,31.439-69.6   C389.928,119.597,391.606,109.243,391.696,97.654z"/>
	<path fill-rule="evenodd" clip-rule="evenodd" d="M251.056,100.534c0.762,0.512,0.907,2.673,0.721,3.36   C250.982,103.328,251.098,101.853,251.056,100.534z"/>
	<path fill-rule="evenodd" clip-rule="evenodd" d="M69.136,101.254c0.599,1.664,0.234,6.456-0.72,8.16   C68.593,106.63,68.914,103.991,69.136,101.254z"/>
	<path fill-rule="evenodd" clip-rule="evenodd" d="M251.536,106.294c0.279-0.039,0.427,0.053,0.479,0.24   c-0.691,12.349-5.426,20.654-10.56,28.56c-0.722-1.011,0.98-2.24,1.68-3.36c0.799-1.28,1.155-2.833,2.16-3.6   C247.961,121.438,251.226,115.344,251.536,106.294z"/>
	<path fill-rule="evenodd" clip-rule="evenodd" d="M178.096,108.694c0.279-0.039,0.427,0.053,0.48,0.24   c-4.089,3.191-7.658,6.902-12.48,9.36C169.874,114.872,174.209,112.007,178.096,108.694z"/>
	<path fill-rule="evenodd" clip-rule="evenodd" d="M85.456,108.934c10.045,4.996,19.458,10.622,29.04,16.08   c-1.171,0.357-2.593-0.594-3.6-1.2c-7.812-4.701-17.187-9.589-24.96-14.4C85.528,109.502,85.483,109.227,85.456,108.934z"/>
	<path fill-rule="evenodd" clip-rule="evenodd" d="M261.376,109.414c1.218,0.785,0.723,4.554,0.72,5.76   C261.066,114.043,261.896,111.053,261.376,109.414z"/>
	<path fill-rule="evenodd" clip-rule="evenodd" d="M275.536,109.894c21.607,7.912,37.837,21.202,50.16,38.4   c-2.056-1.771-3.576-3.985-5.28-6c-9.916-11.725-22.405-21.88-37.44-28.8C280.562,112.382,277.631,111.905,275.536,109.894z"/>
	<path fill-rule="evenodd" clip-rule="evenodd" fill="#FFFFFF" d="M393.136,109.894c1.79,40.802-15.616,74.715-29.52,103.92   c0.048-3.733-0.894-6.177-1.92-9.12c-0.567-1.624-1.673-3.835-1.681-4.8c-0.013-1.745,4.122-8.855,5.04-10.561   c5.474-10.167,10.485-20.795,14.641-31.44C385.665,142.603,391.635,128.099,393.136,109.894z"/>
	<path fill-rule="evenodd" clip-rule="evenodd" d="M15.376,113.494c1.119,1.558,0.071,5.003,0,6.96   C14.335,119.125,15.717,116.24,15.376,113.494z"/>
	<path fill-rule="evenodd" clip-rule="evenodd" d="M162.256,117.094c11.495,5.785,22.872,11.688,33.84,18   c-10.568-4.792-20.377-10.343-30.24-15.84c-5.661,3.619-8.421,10.139-12.48,15.36c2.877-6.083,6.593-11.327,11.52-15.36   C164.539,118.012,162.545,118.404,162.256,117.094z"/>
	<path fill-rule="evenodd" clip-rule="evenodd" d="M296.896,118.534c0.239,0,0.479,0,0.72,0c21.182,14.258,37.415,33.464,45.6,60.72   c-1.774-2.437-2.145-5.945-3.6-9.36c-9.065-21.272-23.547-38.669-42.24-50.64C297.081,119.149,296.883,118.947,296.896,118.534z"/>
	<path fill-rule="evenodd" clip-rule="evenodd" d="M4.816,119.734c1.08,1.338-0.043,3.002,0,5.04   C3.715,123.75,4.762,121.156,4.816,119.734z"/>
	<path fill-rule="evenodd" clip-rule="evenodd" d="M252.976,119.974c0.915,0.169,0.347,2.649-0.72,2.4   C252.383,121.461,252.757,120.795,252.976,119.974z"/>
	<path fill-rule="evenodd" clip-rule="evenodd" d="M261.616,119.974c0.278-0.039,0.427,0.053,0.479,0.24   c-1.738,11.141-4.832,20.928-10.319,28.32C256.261,140.218,259.957,131.115,261.616,119.974z"/>
	<path fill-rule="evenodd" clip-rule="evenodd" d="M156.976,125.014c0.281,0.039,0.203,0.438,0.24,0.72   c-3.542,4.217-5.519,10.001-7.92,15.36C150.58,135.414,153.668,129.469,156.976,125.014z"/>
	<path fill-rule="evenodd" clip-rule="evenodd" d="M14.656,125.494c0.388-0.067,0.413,0.227,0.72,0.24   c-1.763,34.157-1.196,66.357,0.96,102.72c-2.26-13.949-1.694-31.931-2.4-48c-0.067-1.524,0.392-3.517,0-4.8   c-0.613-2.002-3.491-2.189-4.32-4.32c1.901,0.339,2.352,2.129,4.08,2.64c0.138-15.674,0.417-29.972,0.96-47.76   C14.656,125.974,14.656,125.734,14.656,125.494z"/>
	<path fill-rule="evenodd" clip-rule="evenodd" d="M263.776,126.934c1.083,0.833,0.152,3.622-0.721,4.08   C263.187,129.544,263.54,128.298,263.776,126.934z"/>
	<path fill-rule="evenodd" clip-rule="evenodd" d="M150.976,128.614c0.338-0.553,1.563,0.018,1.44,0.72   C151.487,129.542,151.562,128.748,150.976,128.614z"/>
	<path fill-rule="evenodd" clip-rule="evenodd" d="M122.896,130.294c2.945,0.416,5.784,3.015,8.64,4.32   c-0.529,0.529-1.796-0.154-2.4-0.48C127.132,133.052,124.837,131.192,122.896,130.294z"/>
	<path fill-rule="evenodd" clip-rule="evenodd" d="M249.136,130.294c0.768-0.214,0.212,1.815-0.479,1.68   C248.749,131.347,248.779,130.657,249.136,130.294z"/>
	<path fill-rule="evenodd" clip-rule="evenodd" d="M218.416,162.934c-19.883-8.437-37.979-18.662-56.64-28.32   c0.084-0.275,0.422-0.608,0.48-0.24c12.421,6.219,24.583,12.697,36.72,19.2C205.816,156.333,212.32,159.43,218.416,162.934z"/>
	<path fill-rule="evenodd" clip-rule="evenodd" d="M134.896,137.014c3.887,0.914,7.754,3.925,11.52,5.76   c1.266-1.214,1.165-3.796,1.92-5.52c0.969,1.95-1.393,3.582-0.96,5.52c0.319,1.425,3.924,2.877,5.28,3.6   c5.929,3.159,13.118,6.982,18,9.84c-0.927,0.103-2.241-0.634-3.36-1.2c-3.183-1.61-6.911-3.985-10.32-5.52   c-1.132,0.788,0.013,3.853-0.72,5.04c-0.714-1.599,0.128-3.708,0-5.52C149.091,145.059,142.032,140.998,134.896,137.014z"/>
	<path fill-rule="evenodd" clip-rule="evenodd" d="M200.656,137.254c0.16,0,0.32,0,0.48,0c6.767,3.026,13.333,6.722,20.16,9.84   c2.233,1.02,4.672,1.681,6.48,3.36C218.156,146.633,209.266,142.084,200.656,137.254z"/>
	<path fill-rule="evenodd" clip-rule="evenodd" d="M245.296,137.254c0.279-0.039,0.428,0.053,0.48,0.24   c-4.006,7.675-9.093,14.268-14.88,20.16c0.239-1.761,1.85-2.15,2.399-3.6c-0.75-0.93-2.062-1.297-2.88-2.16   c0.791-0.869,2.438,1.126,3.36,1.68C238.124,148.642,242.069,143.307,245.296,137.254z"/>
	<path fill-rule="evenodd" clip-rule="evenodd" d="M260.896,137.734c0.849,0.825-0.552,3.407-1.44,4.08   C259.705,140.223,260.532,139.21,260.896,137.734z"/>
	<path fill-rule="evenodd" clip-rule="evenodd" d="M16.816,139.414c0.925,0.587,0.452,3.334,0.24,4.32   C16.165,142.618,16.914,141.438,16.816,139.414z"/>
	<path fill-rule="evenodd" clip-rule="evenodd" d="M236.896,140.614c0.278-0.039,0.427,0.053,0.479,0.24   c-1.42,2.34-2.786,4.733-5.04,6.24C233.531,144.609,235.748,143.146,236.896,140.614z"/>
	<path fill-rule="evenodd" clip-rule="evenodd" d="M258.016,144.934c0.233,0.007,0.187,0.294,0.24,0.48   c-2.821,7.099-7.331,12.509-11.28,18.48c0.674,6.579,1.306,16.412,1.681,23.28c-1.409-7.088-1.233-14.555-2.16-22.32   c-9.838,7.548-5.902,26.159-8.16,41.041c-0.799-1.227-0.095-2.654,0-4.32c0.45-7.927,0.13-17.47,1.2-24.96   c0.938-6.564,5.312-10.652,8.88-15.84C252.14,155.358,255.731,150.183,258.016,144.934z"/>
	<path fill-rule="evenodd" clip-rule="evenodd" d="M229.456,150.934c-4.717,5.043-7.752,11.769-11.04,18.24   C220.935,161.932,224.107,155.345,229.456,150.934z"/>
	<path fill-rule="evenodd" clip-rule="evenodd" d="M157.936,151.414c0.649,2.149-0.143,5.773-0.48,8.16   C157.044,157.239,157.526,153.725,157.936,151.414z"/>
	<path fill-rule="evenodd" clip-rule="evenodd" d="M249.376,152.614c0.005,1.285-1.097,1.463-1.44,2.4   C247.026,154.503,248.531,152.9,249.376,152.614z"/>
	<path fill-rule="evenodd" clip-rule="evenodd" d="M16.576,154.294c0.474,18.629,0.183,38.489,1.2,56.879   c-1.35-8.315-1.212-17.837-1.44-27.359c-0.118-4.911,0-9.871,0-14.88C16.336,164.039,16.316,157.779,16.576,154.294z"/>
	<path fill-rule="evenodd" clip-rule="evenodd" d="M236.896,156.694c-0.768-0.513-1.431-1.13-2.16-1.68   C235.158,154.193,237.122,155.336,236.896,156.694z"/>
	<path fill-rule="evenodd" clip-rule="evenodd" d="M71.296,156.934c4.455,6.906,7.852,14.868,11.76,22.32   c-2.475-3.084-4.211-6.849-6-10.56c-1.78-3.693-3.76-7.361-5.52-11.04C71.409,157.46,71.286,157.264,71.296,156.934z"/>
	<path fill-rule="evenodd" clip-rule="evenodd" d="M245.296,157.654c0.279-0.039,0.428,0.053,0.48,0.24   c-2.237,4.644-6.382,7.378-7.92,12.72c0.325,0.634,1.407,0.512,1.92,0.96c-0.08,1.009-1.683-0.101-2.16-0.24   c-1.087,0.273-0.225,2.496-1.44,2.64C237.26,166.577,242.182,163.019,245.296,157.654z"/>
	<path fill-rule="evenodd" clip-rule="evenodd" d="M229.696,158.614c1.079,0.469-0.381,2.26-1.2,2.4   C228.733,160.051,229.493,159.611,229.696,158.614z"/>
	<path fill-rule="evenodd" clip-rule="evenodd" d="M227.296,162.934c0.979,0.641-0.694,2.188-0.96,3.12   c0.412,0.868,2.24,0.32,2.4,1.44c-0.857,0.622-1.547-0.582-2.641-0.48c-2.475,4.583-3.669,11.665-3.84,17.76   C221.081,176.83,224.346,168.916,227.296,162.934z"/>
	<path fill-rule="evenodd" clip-rule="evenodd" d="M222.256,164.374c0.812,0.068,1.472,0.289,1.44,1.2   C222.884,165.506,222.225,165.285,222.256,164.374z"/>
	<path fill-rule="evenodd" clip-rule="evenodd" d="M5.296,165.574c2.536,1.944,5.439,3.521,7.44,6   c-2.887-1.273-4.631-3.689-7.44-5.04C5.296,166.214,5.296,165.894,5.296,165.574z"/>
	<path fill-rule="evenodd" clip-rule="evenodd" d="M217.456,171.333c0.916-0.112,0.455,1.875,0.24,2.16   C216.725,173.235,217.77,172.351,217.456,171.333z"/>
	<path fill-rule="evenodd" clip-rule="evenodd" d="M248.896,171.333c2.422,20.929,3.271,42.786,4.079,64.08   C251.355,214.137,250.333,192.521,248.896,171.333z"/>
	<path fill-rule="evenodd" clip-rule="evenodd" d="M201.136,171.814c0.16,0,0.32,0,0.48,0c4.489,2.391,9.591,4.168,13.68,6.96   C210.152,176.878,205.26,174.729,201.136,171.814z"/>
	<path fill-rule="evenodd" clip-rule="evenodd" d="M85.696,172.054c1.334,1.146,2.203,2.757,2.64,4.8   C86.983,175.727,86.485,173.745,85.696,172.054z"/>
	<path fill-rule="evenodd" clip-rule="evenodd" d="M216.736,175.414c0.275,0.085,0.608,0.423,0.24,0.48   c-1.341,13.307-0.78,30.316-1.681,43.92c-0.463-6.826-0.153-14.091,0.24-21.601C215.924,190.82,215.224,182.331,216.736,175.414z"/>
	<path fill-rule="evenodd" clip-rule="evenodd" d="M235.216,177.094c0.279-0.039,0.428,0.053,0.48,0.24   c-3.127,34.872-3.095,70.386-2.88,105.36c-1.128-16.43-0.895-37.161-0.48-52.8c0.432-16.312,1.21-34.061,2.641-52.08   C234.908,177.426,235.203,177.4,235.216,177.094z"/>
	<path fill-rule="evenodd" clip-rule="evenodd" d="M238.336,178.774c0.16,0.96-0.635,0.965-1.439,0.96   C236.952,178.99,237.747,178.985,238.336,178.774z"/>
	<path fill-rule="evenodd" clip-rule="evenodd" d="M217.216,179.254c1.135,0.465,2.82,0.38,3.84,0.96   C220.481,181.039,217.462,180.339,217.216,179.254z"/>
	<path fill-rule="evenodd" clip-rule="evenodd" d="M226.336,180.934c-0.139,1.067-1.82,0.039-2.399,0   C224.485,180.151,225.686,180.548,226.336,180.934z"/>
	<path fill-rule="evenodd" clip-rule="evenodd" d="M221.776,187.894c0.946-0.146,0.282,1.318,0.479,1.92   C221.472,189.307,221.49,188.635,221.776,187.894z"/>
	<path fill-rule="evenodd" clip-rule="evenodd" d="M221.536,193.414c0.279-0.039,0.427,0.053,0.479,0.24   c-1.128,23.99-1.675,58.9-1.439,87.6c-1.228-29.94-0.165-59.688,0.96-87.12C221.536,193.894,221.536,193.654,221.536,193.414z"/>
	<path fill-rule="evenodd" clip-rule="evenodd" d="M252.256,195.333c0.214,0.106,0.43,0.211,0.48,0.48   c2.11,35.227,3.6,70.101,3.6,107.279c0,5.02,0.477,10.146-0.479,14.641c0.343-19.142-0.372-40.423-0.721-60.48   c-0.256-14.771-1.199-29.731-1.92-46.319C252.987,205.676,251.976,200.295,252.256,195.333z"/>
	<path fill-rule="evenodd" clip-rule="evenodd" d="M93.616,198.934c1.796,2.283,3.161,4.999,4.56,7.68   C96.053,204.657,94.718,201.912,93.616,198.934z"/>
	<path fill-rule="evenodd" clip-rule="evenodd" d="M43.696,204.934c1.519,2.411,3.761,5.345,4.32,7.92   C46.524,210.416,44.073,207.691,43.696,204.934z"/>
	<path fill-rule="evenodd" clip-rule="evenodd" d="M237.856,209.734c1.074,0.604,0.192,3.167,0.479,4.56   C236.912,213.986,238.34,211.382,237.856,209.734z"/>
	<path fill-rule="evenodd" clip-rule="evenodd" fill="#FFFFFF" d="M351.855,214.293c0.204-0.044,0.227,0.094,0.24,0.24   c-0.044,0.204,0.094,0.227,0.24,0.24c0.347,11.014-0.146,21.27-3.12,29.279c-1.867,5.031-5.191,9.879-7.68,14.641   c-7.731,14.794-14.45,29.571-23.521,43.439c0.315-5.894-3.225-10.371-4.56-15.12c-1.397-4.972,1.544-10.685,4.08-14.64   C329.092,254.353,342.305,232.653,351.855,214.293z"/>
	<path fill-rule="evenodd" clip-rule="evenodd" d="M17.776,220.053c0.279-0.039,0.427,0.054,0.48,0.24   c0.287,7.36,1.204,14.167,0.96,19.68C18.458,233.612,17.86,227.089,17.776,220.053z"/>
	<path fill-rule="evenodd" clip-rule="evenodd" d="M108.976,225.333c2.986,3.734,5.462,7.978,7.68,12.48   C113.774,233.975,111.218,229.812,108.976,225.333z"/>
	<path fill-rule="evenodd" clip-rule="evenodd" d="M120.496,227.014c2.519,2.681,4.414,5.985,6,9.6   C124.151,233.759,122.25,230.459,120.496,227.014z"/>
	<path fill-rule="evenodd" clip-rule="evenodd" d="M255.856,228.454c2.256,35.288,2.517,72.015,2.159,110.16   c-0.106-14.612-0.72-35.664-0.72-54.72C257.296,264.216,256.203,246.459,255.856,228.454z"/>
	<path fill-rule="evenodd" clip-rule="evenodd" d="M214.816,228.934c0.904,0.896,0.506,4.237,0.239,5.52   C214.499,233.091,214.974,230.696,214.816,228.934z"/>
	<path fill-rule="evenodd" clip-rule="evenodd" d="M16.336,235.414c0.792,0.788,0.747,3.216,0.72,4.08   C15.905,239.044,16.47,236.879,16.336,235.414z"/>
	<path fill-rule="evenodd" clip-rule="evenodd" d="M214.576,238.774c0.994-0.034,0.25,1.67,0.479,2.399   C214.062,241.208,214.806,239.503,214.576,238.774z"/>
	<path fill-rule="evenodd" clip-rule="evenodd" d="M17.296,240.934c1.146,1.173,1.667,2.973,2.64,4.319   C18.18,244.69,17.663,242.887,17.296,240.934z"/>
	<path fill-rule="evenodd" clip-rule="evenodd" d="M19.937,241.654c4.744,5.53,12.833,10.991,19.44,15.359   c17.464,11.55,35.569,23.461,53.76,33.841c15.681,8.947,31.307,17.359,47.28,25.92c6.393,3.426,12.804,6.757,19.2,10.08   c3.192,1.658,6.888,2.299,9.6,4.8c-26.005-11.043-50.648-26.46-75.84-40.08c-21.397-11.569-42.673-25.426-62.4-39.601   c-1.374-0.986-2.736-2.102-4.08-3.119c-2.679-2.03-5.106-3.39-6.96-6.24C19.937,242.293,19.937,241.973,19.937,241.654z"/>
	<path fill-rule="evenodd" clip-rule="evenodd" d="M20.417,246.454c5.847,3.833,11.533,7.827,16.8,12.24   C31.151,255.079,25.559,250.991,20.417,246.454z"/>
	<path fill-rule="evenodd" clip-rule="evenodd" d="M31.216,248.854c0.667-0.574,2.043,0.187,1.92,1.199   C32.239,249.912,31.896,249.214,31.216,248.854z"/>
	<path fill-rule="evenodd" clip-rule="evenodd" d="M214.336,249.814c0.279-0.039,0.428,0.053,0.48,0.239   c-0.091,9.772,0.128,20.51,0,29.521C213.723,271.501,214.637,259.466,214.336,249.814z"/>
	<path fill-rule="evenodd" clip-rule="evenodd" d="M38.416,253.654c0.16,0,0.32,0,0.48,0c44.446,30.355,92.545,57.051,143.28,81.12   c-1.77,0.615-3.191-1.017-4.56-1.681c-10.819-5.245-22.193-10.182-32.88-16.08c-12.102-6.679-24.43-13.001-36.48-19.68   c-17.907-9.925-35.505-20.526-52.56-31.68c-5.745-3.757-11.315-7.675-17.04-11.28C38.375,254.334,38.454,253.936,38.416,253.654z"/>
	<path fill-rule="evenodd" clip-rule="evenodd" fill="#FFFFFF" d="M6.736,254.374c2.821,1.259,1.611,6.549,2.88,9.36   c0.428-1.577-0.308-4.167-0.48-6.48c8.86,6.713,17.476,13.746,26.4,20.4c8.965,6.685,18.346,12.811,28.08,18.72   c0.95,5.593,0.163,11.756,3.84,14.88c2.715,2.306,6.307,3.853,9.6,6c8.825,5.755,20.248,12.194,29.04,17.04c0,0.8,0,1.6,0,2.4   c-31.178-16.903-59.998-36.16-87.36-56.88c1.491,2.109,3.666,3.533,6,4.8c9.629,8.051,20.056,15.304,30.96,22.08   c15.979,11.381,33.494,21.227,50.88,31.199c0.043,1.957,0.294,3.706,1.44,4.561c0.455-1.181-1.107-2.408-0.96-4.08   c2.189,1.091,1.296,5.264,3.12,6.72C85.377,331.247,59,315.264,36.256,297.814c-5.466-4.194-11.563-8.605-17.04-13.2   c-3.481-2.92-7.042-5.08-7.92-10.32c-0.722-0.242-0.425,0.535-0.48,0.96c-0.708-0.411-0.688-1.552-1.2-2.16   c0.35-0.865,1.285,0.911,1.44,0.24c-0.125-1.235-1.397-1.323-1.92-2.16C7.738,266.172,7.458,260.052,6.736,254.374z    M16.336,277.894c-0.703-1.218-1.646-2.194-3.12-2.641C13.953,276.437,14.735,277.575,16.336,277.894z"/>
	<path fill-rule="evenodd" clip-rule="evenodd" d="M138.736,255.574c0.388-0.067,0.413,0.227,0.72,0.24   c8.281,13.692,17.967,26.614,27.12,39.6c1.189,1.687,2.923,3.381,3.36,5.52C158.917,286.432,148.38,271.45,138.736,255.574z"/>
	<path fill-rule="evenodd" clip-rule="evenodd" d="M200.176,257.013c0.855,0.346,0.527,2.883,0.24,3.601   C199.614,259.913,199.964,258.291,200.176,257.013z"/>
	<path fill-rule="evenodd" clip-rule="evenodd" d="M40.096,260.614c2.543,1.297,4.79,2.891,6.96,4.56   c-0.971,0.504-2.444-0.901-3.6-1.68C42.193,262.643,40.676,261.726,40.096,260.614z"/>
	<path fill-rule="evenodd" clip-rule="evenodd" d="M59.296,265.414c1.281,0.079,1.748,0.972,2.64,1.44   C61.409,267.719,59.717,266.19,59.296,265.414z"/>
	<path fill-rule="evenodd" clip-rule="evenodd" d="M199.936,265.414c1.09,0.99,0.182,3.978,0.48,5.76c1.351,1.13,3.62,1.34,5.04,2.4   c-1.148,1.019-3.092-1.191-4.8-1.2c-0.479,16.234,0.429,33.932,0.96,51.12c-1.876-17.966-1.456-36.825-1.68-57.36   C199.936,265.894,199.936,265.654,199.936,265.414z"/>
	<path fill-rule="evenodd" clip-rule="evenodd" d="M50.176,267.333c6.975,4.146,13.657,8.583,20.4,12.96   c-1.865-0.185-3.705-1.416-5.28-2.399c-4.782-2.986-9.621-6.866-14.88-9.601C50.282,267.804,49.694,267.823,50.176,267.333z"/>
	<path fill-rule="evenodd" clip-rule="evenodd" d="M69.616,271.894c13.147,8.217,27.228,16.529,41.04,24.479   c4.399,2.532,9.299,4.341,13.2,7.68C105.262,293.848,86.255,284.054,69.616,271.894z"/>
	<path fill-rule="evenodd" clip-rule="evenodd" d="M202.096,274.293c3.458,0.941,6.608,2.192,9.12,4.08   C207.896,277.293,204.672,276.118,202.096,274.293z"/>
	<path fill-rule="evenodd" clip-rule="evenodd" d="M13.216,275.253c1.474,0.446,2.417,1.423,3.12,2.641   C14.735,277.575,13.953,276.437,13.216,275.253z"/>
	<path fill-rule="evenodd" clip-rule="evenodd" d="M148.096,280.293c1.767,1.673,2.958,3.922,4.32,6   C150.365,284.905,149.092,282.738,148.096,280.293z"/>
	<path fill-rule="evenodd" clip-rule="evenodd" d="M74.176,282.694c0.24,0,0.48,0,0.72,0c17.426,10.629,35.355,20.573,53.76,30.479   c2.54,1.367,5.183,2.742,7.44,4.561c-12.577-5.904-23.999-12.962-36-19.44c-0.684,2.989,0.597,5.505,0.24,9.36   c-0.875-3.025-0.752-5.615-0.96-9.36C91.688,292.382,81.602,288.869,74.176,282.694z"/>
	<path fill-rule="evenodd" clip-rule="evenodd" d="M220.096,285.574c1.389,1.568,0.206,3.331,0.721,6.479   C219.449,291.02,220.365,287.705,220.096,285.574z"/>
	<path fill-rule="evenodd" clip-rule="evenodd" fill="#FFFFFF" d="M65.056,297.814c12.752,7.247,24.72,15.279,37.68,22.319   c0.519,1.002-0.037,3.077,0.72,3.84c0.603-1.225-0.233-1.64,0-3.359c1.756,0.884,1.291,3.989,1.68,6.24   c-1.457-0.144-1.7-1.501-3.6-1.2c-2.559,3.447,2.883,4.675,4.08,6.72c-10.413-5.244-22.427-12.901-32.88-19.2   c-2.982-1.797-6.186-3.304-6.96-7.2C65.167,302.909,65.516,300.591,65.056,297.814z"/>
	<path fill-rule="evenodd" clip-rule="evenodd" d="M220.816,301.894c0.558,1.602,0.081,4.238,0.239,6.239   C220.142,307.015,220.554,303.401,220.816,301.894z"/>
	<path fill-rule="evenodd" clip-rule="evenodd" d="M237.856,302.374c0.277,1.168,1.045,3.927,0,5.28   C238.104,305.758,237.142,303.953,237.856,302.374z"/>
	<path fill-rule="evenodd" clip-rule="evenodd" fill="#FFFFFF" d="M105.136,321.574c14.745,8.295,29.967,16.113,45.12,24   c-0.081,3.605,1.356,7.692,0.48,10.56c-4.179-0.725-7.456-3.478-11.04-5.279c-10.683-5.371-21.353-10.876-31.68-17.04   c1.583-1.158,3.278,2.711,5.76,1.439c1.05-4.651-4.035-5.245-6.48-7.2c0.074-1.354-0.426-2.134-0.24-3.6   c-1.223,0.23,0.037,3.066-0.48,3.36C104.903,326.926,105.69,323.58,105.136,321.574z M123.376,341.253c0.4,0,0.8,0,1.2,0   c0-0.479,0-0.96,0-1.439c-0.578,0.098-0.521-0.438-1.2-0.24C122.9,340.028,123.26,340.708,123.376,341.253z"/>
	<path fill-rule="evenodd" clip-rule="evenodd" d="M148.816,324.213c1.348,0.172,2.363,0.677,2.88,1.68   C150.458,325.611,149.272,325.277,148.816,324.213z"/>
	<path fill-rule="evenodd" clip-rule="evenodd" fill="#0396B6" d="M102.256,327.333c3.925,1.835,8.479,3.041,10.56,6.72   c-3.674-1.606-6.839-3.721-10.32-5.52C102.694,327.855,102.158,327.912,102.256,327.333z"/>
	<path fill-rule="evenodd" clip-rule="evenodd" d="M156.016,327.814c14.65,6.39,28.23,13.85,43.44,19.68   c-2.878,0.412-5.514-1.494-8.16-2.64c-7.917-3.429-16.183-7.431-24-11.04c-0.076,4.539,0.618,10.073,0.96,15.119   c-1.333-0.574-0.64-2.513-0.72-3.6c-0.211-2.857-0.508-6.394-0.96-9.36c-0.136-0.892,0.628-2.804-0.96-2.88   c-0.521,1.846,0.209,3.423,0.24,5.761c-1.312-1.541-0.666-3.596-0.96-6C162.503,330.606,158.264,330.206,156.016,327.814z"/>
	<path fill-rule="evenodd" clip-rule="evenodd" d="M201.616,327.814c0.687,0.033,0.439,1.001,0.48,1.68   C201.356,329.484,201.238,328.22,201.616,327.814z"/>
	<path fill-rule="evenodd" clip-rule="evenodd" fill="#FFFFFF" d="M106.336,332.374c0.663,0.137,1.346,0.254,1.2,1.2   C106.873,333.437,106.19,333.32,106.336,332.374z"/>
	<path fill-rule="evenodd" clip-rule="evenodd" fill="#FFFFFF" d="M106.576,334.774c0.739-0.179,0.461,0.658,1.2,0.479   c-0.151,0.729,0.307,2.067-0.24,2.4C106.304,337.153,106.783,336.366,106.576,334.774z"/>
	<path fill-rule="evenodd" clip-rule="evenodd" d="M202.096,335.253c0.836,2.828,1.484,8.643,0.24,11.28   C202.642,342.692,201.896,339.433,202.096,335.253z"/>
	<path fill-rule="evenodd" clip-rule="evenodd" fill="#FFFFFF" d="M108.256,335.734c0.24,0,0.48,0,0.72,0   c10.294,6.528,24.076,13.07,36,19.68c1.458,0.809,4.506,2.479,5.76,2.16c1.508-0.385,1.165-2.2,2.16-3.12   c-1.589-1.861-1.095-5.646-1.44-8.16c6.226,2.814,12.289,5.791,18.48,8.64c0.629,4.891,0.523,10.518,1.68,14.881   c0.291-4.299-1.259-10.093-0.96-14.4c15.611,7.108,31.438,14.002,48,20.16c0.551,0.249-0.114,1.714,0.479,1.92   c1.261,0.13-0.252-1.393,0.48-1.44c1.629-0.028,2.784,0.416,4.56,0.24c0.572,3.552,0.346,8.483,1.2,11.04   c0.417-3.298-0.218-7.621-0.72-10.8c1.621-0.459,3.493-0.667,5.28-0.96c0.95,6.634,0.646,13.861,1.68,20.16   c0.368,2.241,1.956,4.369,0.96,6.479c-4.916-0.764-6.082-5.278-6.72-10.32c-0.743,4.265,0.995,8.124,3.6,9.841   c-9.726-0.364-9.032-11.693-9.84-20.881c-0.748,2.475,0.291,7.195,0.24,10.561c-3.929-0.952-6.931-2.83-10.801-3.84   c2.868,2.412,7.476,3.085,11.04,4.8c0.183,3.178,1.479,5.242,2.641,7.439c-15.929-5.831-30.982-12.537-45.84-19.439   c-4.13-4.43-3.461-13.658-4.56-21.12c-0.173,6.075,0.229,15.84,3.12,20.4c-18.045-8.321-36.899-19.106-54.96-28.8   c-5.197-2.79-10.988-4.491-11.76-11.521c8.095,3.745,14.991,8.688,23.28,12.24c-6.732-4.517-15.916-8.877-23.52-13.44   C108.576,337.174,108.068,336.801,108.256,335.734z M146.416,358.774c-3.829-1.798-7.353-4.335-11.28-6   c-0.346-0.269-0.585-0.259-0.72,0.239c4.983,2.777,9.982,5.538,15.36,7.92C149.357,359.405,147.606,359.333,146.416,358.774z    M160.096,365.973c-1.171-1.868-3.944-2.136-6-3.119C155.419,364.571,158.128,364.902,160.096,365.973z M185.536,378.213   c-1.052-1.588-3.101-2.179-5.04-2.88C181.596,376.874,183.576,377.534,185.536,378.213z M216.256,382.534   c-2.688-2.031-6.453-2.987-10.08-4.08C208.97,380.38,212.703,381.367,216.256,382.534z M198.016,383.734   c2.737,0.862,4.757,2.442,7.92,2.88C203.796,385.46,200.208,383.239,198.016,383.734z"/>
	<path fill-rule="evenodd" clip-rule="evenodd" d="M191.056,339.333c-0.937-0.022-1.747-0.173-1.92-0.96   C189.587,338.098,191.046,338.417,191.056,339.333z"/>
	<path fill-rule="evenodd" clip-rule="evenodd" d="M123.376,339.574c0.679-0.198,0.622,0.338,1.2,0.24c0,0.479,0,0.96,0,1.439   c-0.4,0-0.8,0-1.2,0C123.26,340.708,122.9,340.028,123.376,339.574z"/>
	<path fill-rule="evenodd" clip-rule="evenodd" d="M260.896,346.053c0.278-0.039,0.427,0.053,0.479,0.24   c-0.574,10.961,0.307,22.809-1.44,33.12C260.517,370.427,260.473,356.536,260.896,346.053z"/>
	<path fill-rule="evenodd" clip-rule="evenodd" d="M201.856,346.774c-0.185,0.694-0.593,1.166-1.68,0.96   C200.351,347.028,200.924,346.722,201.856,346.774z"/>
	<path fill-rule="evenodd" clip-rule="evenodd" d="M149.776,360.933c-5.378-2.382-10.377-5.143-15.36-7.92   c0.135-0.498,0.375-0.508,0.72-0.239c3.927,1.665,7.451,4.202,11.28,6C147.606,359.333,149.357,359.405,149.776,360.933z"/>
	<path fill-rule="evenodd" clip-rule="evenodd" d="M154.096,362.854c2.056,0.983,4.829,1.251,6,3.119   C158.128,364.902,155.419,364.571,154.096,362.854z"/>
	<path fill-rule="evenodd" clip-rule="evenodd" d="M262.096,364.053c0.279-0.039,0.428,0.053,0.48,0.24   c0.104,5.261-0.047,11.168-0.48,16.32C260.983,376.306,262.563,371.203,262.096,364.053z"/>
	<path fill-rule="evenodd" clip-rule="evenodd" d="M180.496,375.333c1.939,0.701,3.988,1.292,5.04,2.88   C183.576,377.534,181.596,376.874,180.496,375.333z"/>
	<path fill-rule="evenodd" clip-rule="evenodd" d="M206.176,378.454c3.627,1.093,7.392,2.049,10.08,4.08   C212.703,381.367,208.97,380.38,206.176,378.454z"/>
	<path fill-rule="evenodd" clip-rule="evenodd" d="M261.616,381.333c0.388-0.067,0.413,0.227,0.72,0.24   c-1.873,1.966-3.381,4.298-6,5.52C257.737,384.815,260.156,383.553,261.616,381.333z"/>
	<path fill-rule="evenodd" clip-rule="evenodd" d="M205.937,386.614c-3.164-0.438-5.184-2.018-7.92-2.88   C200.208,383.239,203.796,385.46,205.937,386.614z"/>
	<path fill-rule="evenodd" clip-rule="evenodd" fill="#FFFFFF" d="M234.977,401.253c1.104,0.016,1.432,0.808,2.399,0.96   c-0.472,0.568-1.592,0.488-2.64,0.48C235.013,402.41,235.008,401.845,234.977,401.253z"/>
	<path fill-rule="evenodd" clip-rule="evenodd" fill="#0396B6" d="M356.416,43.174c11.812,7.789,22.123,19.157,28.8,32.88   c-1.564,0.281-2.806-1.831-4.56-2.16c1.226,2.693,5.391,2.449,6,5.76c-5.538-3.504-11.488-7.87-18.48-9.12   c7.098,2.903,13.573,6.427,19.44,10.56c1.961,6.646,3.757,12.826,3.12,22.32c-1.285,19.163-8.498,36.582-15.841,52.56   c-3.699,8.051-7.019,16.044-10.8,23.52c-3.984,7.877-7.905,15.274-11.76,22.32c-1.865-11.015-3.674-22.086-7.68-30.96   c1.854,8.048,5.725,18.682,6.72,28.32c0.222,2.151,0.45,4.608-0.96,6c-2.892-30.228-13.792-52.448-29.76-69.6   c1.003,2.513,3.104,4.335,4.8,6.48c4.964,6.279,9.728,13.454,13.439,21.36c5.34,11.373,8.777,23.817,10.32,38.64   c0.143,1.365,0.722,2.869,0.48,4.32c-0.363,2.178-3.485,6.258-5.04,9.12c-11.363,20.925-25.31,40.866-37.681,60.24   c-15.052,23.571-31.297,44.402-46.8,65.279c-0.715-7.08,0.233-18.14-0.479-26.159c-0.861,9.433,0.227,18.247-0.24,25.199   c-0.216,3.222-2.646,5.216-4.56,7.681c-4.477,5.763-8.644,11.492-13.2,17.04c-2.077-16.678-1.678-33.472-3.36-50.16   c-0.105,13.217,1.452,31.12,2.16,44.88c0.102,1.983,0.718,4.331,0.479,5.76c-0.343,2.065-2.869,3.444-4.079,4.32   c-2.171-27.661-3.543-56.131-3.841-84c1.563-0.276,2.442-1.238,4.08-1.44c0.672,2.289-0.197,6.118,0.48,8.4   c0.084-24.688-0.4-40.271,0.24-69.84c-1.267,17.764-1.083,40.424-0.721,60.479c-2.097,1.463-4.575,1.25-6.479,2.641   c0.121,1.134,1.371-0.251,1.68,0.479c0.728,28.312,1.749,57.489,4.08,84c-1.531,0.736-3.267,2.456-4.8,2.4   c-2.169-26.659-3.582-60.714-4.08-87.601c2.853-0.587,5.969-0.911,7.92-2.399c-2.095-0.093-5.366,1.99-7.92,1.439   c-0.443-1.403,1.298-0.621,1.68-1.199c-0.104-0.537-1.183-0.098-1.68-0.24c-0.348-32.694-0.395-55.671,1.44-85.2   c0.635-10.223-0.112-20.383,3.6-27.84c1.437-0.237,1.372,1.028,2.88,0.72c-0.048-1.232-1.739-0.82-2.4-1.44   c3.66-8.135,10.092-14.636,14.88-22.56c5.172-8.557,10.483-17.966,11.521-30.24c1.135-13.431-3.608-22.934-8.88-31.2   c-6.949-10.033-16.34-17.219-25.92-24.48c-9.6-7.275-20.155-12.945-30.72-19.44c-15.015-9.229-32.742-17.951-52.08-23.52   c-9.416-2.711-18.371-4.988-29.76-5.52c20.773-0.151,37.944,7.219,54,13.92c11.882,4.958,22.533,11.448,33.36,17.52   c21.707,12.173,42.369,26.166,56.16,45.6c0.164-1.591-1.358-2.72-2.16-3.84c-2.566-3.587-5.87-7.013-8.64-10.56   c-11.696-10.347-24.369-19.946-38.4-28.08c-4.63-2.684-9.509-4.989-13.68-8.4c5.865-1.415,11.613-2.947,17.279-4.56   c-2.678-0.24-5.925,1.101-9.12,1.92c-3.135,0.805-6.468,1.55-9.36,2.4c-23.24-12.365-47.147-25.328-80.4-26.88   c27.799-5.328,58.769-7.146,88.56-9.36c6.607-0.491,13.332-0.19,19.92-0.48c6.868-0.302,13.788-0.676,21.359,0   c-2.488,0.872-5.842,0.878-6.96,3.12c-0.237,2.252,0.604,4.217,1.681,5.52c2.805,3.396,7.104,6.005,11.04,8.88   c4.028,2.943,8.496,5.495,12.479,7.44c-3.055,1.585-7.896,1.384-10.8,3.12c3.486,0.604,8.047-2.678,11.52-2.4   c1.88,0.15,6.512,3.568,8.4,4.56c8.633,4.532,17.096,8.114,26.64,11.76c16.349,6.245,31.983,10.08,53.28,10.08   c3.486,0,10.354-0.417,11.04-3.6C359.98,46.475,357.639,45.022,356.416,43.174z M235.456,29.974   c-1.763,0.418-3.748,0.981-5.28,1.92c6.857-1.306,15.382-3.017,21.84-5.52C246.432,27.525,240.811,28.703,235.456,29.974z    M202.096,37.174c9.674-2.151,21.086-4.922,30.72-7.44c1.311-0.343,3.129-0.271,4.08-1.44   C225.877,30.875,212.905,33.583,202.096,37.174z M328.096,68.134c10.986,0.528,22.089,0.692,31.44,2.4   c7.164,1.308,13.188,3.93,18.96,6.48c-11.923-8.75-31.608-8.481-50.88-9.6C327.544,67.886,327.94,67.89,328.096,68.134z    M291.616,68.854c17.198,0.429,33.654,1.014,50.16,1.68c5.439,0.22,10.632,1.195,15.359,0.96   C336.49,68.744,314.036,68.664,291.616,68.854z M305.296,70.534c-13.566,0-26.181,0.686-38.399,1.44   c-2.34,0.145-5.034-0.578-6.961,0.96c20.849-1.525,40.122-2.088,59.761-1.68C315.691,70.058,310.36,70.534,305.296,70.534z    M246.496,75.814c10.987-0.853,22.201-1.479,32.88-2.64C268.093,73.469,256.604,73.758,246.496,75.814z M259.456,94.774   c-0.384-1.216-0.859-2.341-1.92-2.88C257.882,93.148,258.126,94.504,259.456,94.774z M263.536,107.974   c0.906,4.903,1.194,10.232,0.72,16.08c1.903-4.118,0.306-11.068,0.24-15.12c10.806,2.955,20.091,7.429,29.04,12.24   c-8.101-6.06-18.699-9.621-29.28-13.2c-1.371-3.749-1.926-8.313-4.08-11.28C260.674,100.217,262.746,103.705,263.536,107.974z    M262.096,115.174c0.003-1.206,0.498-4.975-0.72-5.76C261.896,111.053,261.066,114.043,262.096,115.174z M282.976,113.494   c15.035,6.92,27.524,17.075,37.44,28.8c1.704,2.015,3.225,4.229,5.28,6c-12.323-17.198-28.553-30.488-50.16-38.4   C277.631,111.905,280.562,112.382,282.976,113.494z M297.376,119.254c18.693,11.971,33.175,29.367,42.24,50.64   c1.455,3.416,1.825,6.923,3.6,9.36c-8.185-27.256-24.418-46.462-45.6-60.72c-0.24,0-0.48,0-0.72,0   C296.883,118.947,297.081,119.149,297.376,119.254z M251.776,148.534c5.487-7.392,8.581-17.179,10.319-28.32   c-0.053-0.187-0.201-0.279-0.479-0.24C259.957,131.115,256.261,140.218,251.776,148.534z M263.056,131.014   c0.873-0.458,1.804-3.247,0.721-4.08C263.54,128.298,263.187,129.544,263.056,131.014z M259.456,141.814   c0.889-0.673,2.289-3.255,1.44-4.08C260.532,139.21,259.705,140.223,259.456,141.814z M248.416,160.774   c-3.567,5.188-7.942,9.275-8.88,15.84c-1.07,7.49-0.75,17.033-1.2,24.96c-0.095,1.666-0.799,3.094,0,4.32   c2.258-14.881-1.678-33.493,8.16-41.041c0.927,7.766,0.751,15.232,2.16,22.32c-0.375-6.869-1.007-16.701-1.681-23.28   c3.949-5.971,8.459-11.381,11.28-18.48c-0.054-0.186-0.007-0.473-0.24-0.48C255.731,150.183,252.14,155.358,248.416,160.774z    M247.936,155.014c0.344-0.937,1.445-1.115,1.44-2.4C248.531,152.9,247.026,154.503,247.936,155.014z M236.176,173.974   c1.216-0.144,0.354-2.367,1.44-2.64c0.478,0.14,2.08,1.249,2.16,0.24c-0.513-0.448-1.595-0.326-1.92-0.96   c1.538-5.342,5.683-8.077,7.92-12.72c-0.053-0.187-0.201-0.279-0.48-0.24C242.182,163.019,237.26,166.577,236.176,173.974z    M252.976,235.414c-0.808-21.294-1.657-43.151-4.079-64.08C250.333,192.521,251.355,214.137,252.976,235.414z M234.977,177.814   c-1.431,18.02-2.209,35.768-2.641,52.08c-0.414,15.639-0.647,36.37,0.48,52.8c-0.215-34.975-0.247-70.488,2.88-105.36   c-0.053-0.187-0.201-0.279-0.48-0.24C235.203,177.4,234.908,177.426,234.977,177.814z M236.896,179.734   c0.805,0.005,1.6,0,1.439-0.96C237.747,178.985,236.952,178.99,236.896,179.734z M253.216,210.934   c0.721,16.588,1.664,31.548,1.92,46.319c0.349,20.058,1.063,41.339,0.721,60.48c0.956-4.494,0.479-9.621,0.479-14.641   c0-37.179-1.489-72.053-3.6-107.279c-0.051-0.27-0.267-0.374-0.48-0.48C251.976,200.295,252.987,205.676,253.216,210.934z    M238.336,214.293c-0.287-1.393,0.595-3.955-0.479-4.56C238.34,211.382,236.912,213.986,238.336,214.293z M257.296,283.894   c0,19.056,0.613,40.107,0.72,54.72c0.357-38.146,0.097-74.872-2.159-110.16C256.203,246.459,257.296,264.216,257.296,283.894z    M237.856,307.654c1.045-1.354,0.277-4.112,0-5.28C237.142,303.953,238.104,305.758,237.856,307.654z"/>
	<path fill-rule="evenodd" clip-rule="evenodd" fill="#FFFFFF" d="M276.496,5.734c10.496,2.183,21.946,6.138,32.399,10.32   c4.045,1.619,8.145,3.356,12.001,5.28c3.917,1.955,7.941,3.718,11.52,5.76c3.348,1.91,6.332,4.48,9.6,6.48   c3.266,1.999,6.815,3.729,8.88,6.96c0.948,0.312,0.581-0.88,1.2-0.24c1.407,2.594,6.367,4.322,5.521,8.4   c-0.807,3.883-11.876,3.2-17.521,2.88c-20.803-1.181-39.926-6.807-57.12-14.88c-17.188-8.07-33.581-16.232-45.6-27.12   c-1.817-2.921-2.674-5.38,1.44-6.72c6.041-1.968,16.193-0.504,21.359,0c7.483,0.729,12.411,2.232,18,4.8   c8.651,3.975,19.006,7.929,25.92,12.96c-2.239,0-4.479,0-6.72,0c1.414,1.301,5.386-0.106,8.16,0.48   c1.524,0.322,3.622,2.167,5.76,3.36c5.774,3.225,11.265,6.786,16.56,10.56c3.201,2.281,6.149,5.557,9.841,8.4   c3.183,2.452,7.769,5.748,12.72,5.28c5.265-0.498,4.535-5.389,1.439-7.92c-0.067,1.431,1.809,2.989,2.16,4.8   c-0.993,1.406-2.074,2.726-4.8,2.4c1.578-0.65,3.46-1.772,2.88-3.84c-0.803,0.091-0.17,2.585-1.92,2.4   c0.142-1.021-0.173-1.587-0.24-2.4c-9.961-12.358-25.56-19.08-41.04-25.92c1.04,1.686,3.189,1.953,4.801,2.64   c11.603,4.952,22.8,11.803,32.399,19.2c0.991,2.159,5.166,4.788,2.641,7.44c-7.022-1.172-11.567-6.347-16.32-10.08   c-11.812-9.274-25.045-17.132-39.6-24.24c2.51-0.108,4.996,1.882,7.92,2.16c-3.548-2.334-7.834-2.889-12-4.32   C284.448,9.541,280.748,7.072,276.496,5.734z M252.976,2.854c-2.706-0.406-6.194-1.004-8.64,0.24   c4.06-0.396,10.15,0.677,14.88,1.68c1.25,0.622,3.807,2.39,4.8,1.68C261.232,4.931,257.146,3.479,252.976,2.854z M291.136,25.654   c-4.117-2.339-8.186-4.452-12.479-6.72c-7.409-3.913-14.25-6.693-21.601-9.84c-2.734-1.171-5.87-3.267-9.359-3.36   c-4.474-0.119-7.233,3.784-4.08,6.48c5.433,4.576,11.593,8.729,18.72,12.72c5.891,3.298,12.146,6.701,18.24,9.36   c9.682,4.225,19.008,8.67,30,11.28c4.861,1.154,10.987,2.795,15.6,1.68c1.047-1.813-0.47-4.826-2.64-5.52   c0.631,1.083,4.754,4.798,0.479,5.52c0-0.4,0-0.8,0-1.2c-1-0.12-1.059,0.702-2.16,0.48c-6.089-5.11-12.275-10.124-19.68-13.92   c1.057,1.549,2.971,2.302,4.561,3.36c4.847,3.228,10.018,6.78,13.68,10.32c-3.269-0.172-5.867-1.013-8.88-1.44   c-4.857-3.215-10.121-6.047-15.36-8.88c-5.217-2.821-10.042-6.16-15.12-9.12c-3.111-1.814-6.652-3.261-9.84-5.04   c-1.577-0.881-3.191-1.792-4.8-2.64c-1.438-0.758-3.268-2.221-5.04-1.68c1.767,1.674,4.651,2.229,6.48,3.84   c-1.116,1.284-2.503,2.298-4.08,3.12c-4.117-2.442-8.641-4.479-12-7.68c2.95-0.689,6.53,0.013,9.12,0.48   c-1.662-1.437-5.373-1.964-8.4-1.44c-0.411,0.071-1.277,0.782-1.68,0.72c-0.27-0.041-1.732-1.363-2.16-1.68   c-1.781-1.319-5.73-4.18-5.521-6c0.4-3.458,5.876-2.07,8.88-1.44c15.158,6.042,29.207,13.193,42.721,20.88   C294.252,26.828,292.427,26.387,291.136,25.654z M278.896,14.374c-0.697-1.882-4.458-2.729-6.721-3.84   C273.918,12.312,276.716,13.034,278.896,14.374z M282.496,16.534c10.737,5.137,20.779,11.736,30.24,17.76   c1.332,0.848,2.63,2.227,4.319,2.16c-9.216-6.783-19.735-12.264-29.52-18.479c1.814-0.266,4.725,0.564,5.76-0.48   c-2.469-0.845-5.112,0.479-7.439,0c-1.666-0.342-2.271-1.885-3.841-1.92C281.841,16.229,282.493,16.057,282.496,16.534z    M303.616,16.294c0.374,0.825,1.328,1.072,2.399,1.2C305.757,16.624,304.223,16.05,303.616,16.294z M291.376,19.414   c3.029,0.202,6.767,0.787,8.4-0.48C297.125,19.243,293.231,18.309,291.376,19.414z M299.296,31.174   c-0.004-1.276-1.085-1.475-2.16-1.68C297.554,30.356,298.373,30.816,299.296,31.174z M321.136,39.814   c-0.316-0.724-0.686-1.394-1.68-1.44C319.455,39.415,320.368,39.542,321.136,39.814z"/>
	<path fill-rule="evenodd" clip-rule="evenodd" fill="#FFFFFF" d="M108.736,11.494c0.88,0,1.76,0,2.64,0   C112.813,12.202,109.309,11.729,108.736,11.494z"/>
	<path fill-rule="evenodd" clip-rule="evenodd" fill="#FFFFFF" d="M264.736,24.934c1.377-1.103,2.549-2.411,4.08-3.36   c12.82,7.179,25.634,14.366,38.159,21.84C292.005,39.105,277.663,32.087,264.736,24.934z"/>
	<path fill-rule="evenodd" clip-rule="evenodd" d="M22.576,85.894c-3.823,0.491-2.632,5.603-2.88,8.4   c-1.107,12.512-1.824,24.744-2.16,37.2c-0.667-11.598,0.541-26.921,1.68-39.36c0.351-3.833-0.447-7.208,3.84-6.96   c-6.777-5.761-5.83,8.355-6.24,13.92c-0.082,1.104-0.418,2.254-0.48,3.12c-0.175,2.436,0.648,5.633-0.72,6.48   c0.412-4.62,0.326-10.271,0.72-15.12c0.204-2.507,0.185-5.059,0.48-6.72c0.278-1.57,1.57-3.703,3.36-3.84   c2.154-0.165,4.482,2.399,6.48,3.84c13.396,9.665,28.9,19.8,42.48,28.08c0.973-2.387,0.222-6.498,1.68-8.4   c0.502,2.183-1.608,6.414-0.96,8.4c0.721,2.209,8.438,5.433,10.56,6.72c24.441,14.833,51.902,30.403,78,42.72   c0.686-2.799,0.067-5.571,1.2-7.68c-0.044,2.836-0.641,5.119-0.48,8.16c9.383,4.926,20.127,10.395,30.72,14.88   c5.126,2.17,9.986,3.901,12.96,7.68c2,7.073-0.155,17.979-0.72,26.4c-0.856,12.77-0.99,25.548-1.44,38.399   c-0.792-14.301,0.495-31.178,1.68-47.279c0.383-5.202,1.517-10.577,0.24-15.36c-3.537,45.854-4.564,93.565-1.44,140.16   c0.332,4.955,0.93,10.047,0,14.88c-5.464,0.899-10.234-2.569-14.64-4.561c-4.696-2.121-9.479-3.901-13.68-6.479   c1.07-0.469,2.386,0.475,3.36,0.96c5.454,2.718,11.719,5.25,17.76,7.92c2.013,0.89,4.899,3.642,6.96,0.96   c-1.19-0.89-3.455-0.705-4.56-1.68c1.622-0.816,2.581,1.095,4.56,0.72c-2.66-2.165-6.061-3.144-9.12-4.561   c-21.457-9.936-43.396-20.244-63.6-31.68c12.183,5.618,23.812,12.047,35.76,18c12.003,5.98,24.35,11.376,36.96,16.8   c-1.223-1.879-3.695-2.268-5.52-3.12c-60.626-28.293-118.93-58.995-169.439-97.68c-0.252-1.027-0.669-1.891-1.2-2.64   c-2.779-40.266-4.152-86.176-1.68-126.96c0.472-7.783,1.735-15.709,0.96-23.28c-2.966,32.864-3.431,72.12-2.88,101.76   c0.212,11.417,0.918,24.119,1.92,36.24c0.373,4.511-0.346,11.8,1.44,14.88c1.156,1.995,4.684,4.065,6.96,5.76   c7.368,5.486,15.223,10.229,22.32,15.601c-7.034-3.329-14.081-9.31-20.64-13.92c-3.478-2.444-9.188-4.737-10.08-9.36   c-0.241-1.248,0.069-2.704,0-4.08c-0.297-5.965-1.13-12.785-1.44-18.239c-2.474-43.508-0.98-85.536,1.44-128.64   c-4.349,45.554-4.745,98.531-1.44,145.679c0.238,3.397,0.587,6.222,1.68,8.881c1.791,2.128,4.724,3.115,6.24,5.52   c-3.204-2.213-6.979-3.892-7.92-8.16c-0.928-4.211-0.663-9.895-0.96-15.12C18.208,181.08,18.208,127.771,22.576,85.894z    M70.096,147.814c-4.991-10.23-10.236-20.714-14.88-31.44c-1.524-3.521-2.932-8.664-4.8-10.8c-1.24-1.418-4.126-2.607-6.24-4.08   c-6.01-4.189-14.057-10.252-18.96-12.96c-1.074,24.809-2.392,44.361-2.64,69.6c9.905,19.819,20.526,39.144,31.44,58.08   c9.571,16.605,19.928,32.972,29.76,48.721c1.367,2.188,3.114,4.38,3.84,6.96c-22.198-33.008-42.207-68.6-60.96-104.64   c-1.248-2.398-2.021-5.125-4.08-6.96c0.2,19.557,0.646,39.176,1.68,57.36c0.403,7.088,0.085,19.29,3.6,22.8   c2.28,2.277,5.815,4.308,8.88,6.48c21.13,14.976,43.563,29.901,66.24,42.479c-11.343-16.504-22.329-33.765-32.88-50.88   c-3.557-5.77-7.395-11.362-10.08-17.52c14.428,23.651,28.958,47.202,44.64,69.6c27.932,15.586,56.357,30.684,86.64,43.92   c-34.009-43.273-65.82-90.817-94.08-140.64c-1.168-3.792-4.317-6.882-5.04-10.32c30.25,54.153,63.505,105.292,101.04,152.16   c2.686,0.834,4.645,2.395,7.44,3.12c-3.514-50.622-2.637-100.931,0.96-149.041c-1.027-3.638-6.112-5.126-10.32-6.96   c-3.668-1.598-6.928-3.205-9.84-4.56c-45.734-21.277-89.116-46.143-129.6-71.52c18.362,42.904,39.627,83.387,62.64,121.199   c6.773,11.13,14.105,22.271,20.88,32.881c0.923,1.444,2.304,2.967,2.4,4.8C113.471,229.421,90.403,189.442,70.096,147.814z    M65.296,113.494c3.665,3.136,8.221,5.379,12.48,7.92C73.998,118.393,69.337,116.252,65.296,113.494z M92.656,129.814   c-4.907-2.76-9.559-5.877-14.64-8.16c38.618,22.821,78.703,45.458,121.44,63.36C162.165,168.651,126.779,149.005,92.656,129.814z"/>
	<path fill-rule="evenodd" clip-rule="evenodd" fill="#FFFFFF" d="M77.776,121.414c-4.259-2.541-8.815-4.784-12.48-7.92   C69.337,116.252,73.998,118.393,77.776,121.414z"/>
	<path fill-rule="evenodd" clip-rule="evenodd" fill="#FFFFFF" d="M199.456,185.014c-42.737-17.902-82.822-40.539-121.44-63.36   c5.081,2.283,9.733,5.4,14.64,8.16C126.779,149.005,162.165,168.651,199.456,185.014z"/>
	<path fill-rule="evenodd" clip-rule="evenodd" fill="#FFFFFF" d="M354.736,223.173c-0.728,5.593-0.343,12.298-3.12,15.84   c0.802-5.087,1.177-10.669,1.2-17.76c0.009-2.732-0.495-5.773,0-8.16c0.739-3.566,5.089-7.864,6.239-11.279   c1.771,4.276,4.593,9.296,3.36,14.64c-1.151,4.991-6.223,11.068-7.68,16.08C354.115,230.663,355.329,226.198,354.736,223.173z"/>
	<path fill-rule="evenodd" clip-rule="evenodd" fill="#FFFFFF" d="M246.016,398.374c-2.026,3.351-9.53,4.337-11.76,0.479   c-1.224-2.116-1.418-6.444-1.68-9.84c-0.375-4.871-0.391-10.287-0.96-14.16c1.784-0.615,3.099-1.7,4.8-2.399   c0.49,6.63,0.704,13.535,1.68,19.68c0.541-3.382-0.378-8.048-0.72-12.479c-0.178-2.309-0.837-5.751-0.479-7.2   c0.477-1.935,3.334-2.723,4.079-3.84c0.504,4.776,0.876,9.854,1.2,14.16c0.703-2.87,0.263-5.68,0-9.601   c-0.124-1.852-0.896-3.878-0.72-5.04c0.254-1.667,3.111-4.463,4.32-6c1.718-2.185,3.341-3.923,4.56-5.52   c3.186-4.174,5.466-8.265,8.88-11.28c-0.535,4.665-0.099,10.302-0.24,15.36c0.929-4.831,0.545-11.08,0.721-16.561   c32.444-42.433,63.006-86.756,90-134.64c0.625,0.415-0.037,2.116,0.96,2.16c0.338-1.665-0.943-4.599,1.199-5.28   c1.174,6.001-2.27,9.854-4.56,13.92c-8.277,14.697-16.305,28.553-25.2,42.72c-4.218,6.72-12.465,16.101-9.6,25.2   c0.712,2.264,2.082,4.47,2.88,6.96c0.784,2.449,2.555,6.305,1.68,8.88c-1.477,4.35-5.162,9.573-7.68,13.681   c-2.716,4.43-5.808,8.613-7.92,13.199c-1.971,1.403-2.439,3.856-3.6,5.761c-9.753,16.002-21.561,30.742-34.801,43.68   c1.25,0.364,2.07-1.767,3.12-2.4c-4.266,5.654-10.897,12.303-16.319,16.801c0.561-3.199,3.874-3.646,5.04-6.24   c-3.166,0.994-4.485,5.914-9.12,6.24c-2.56-1.521-2.398-5.763-2.88-9.36c-1.209,4.403,0.92,12.863,6.479,9.12   c-0.472,1.367-1.274,2.405-2.16,3.359c-2.278-0.121-4.727,0.7-6.479-0.72c-1.179-0.954-0.704-2.192-1.92-3.12   C238.155,396.513,241.983,399.817,246.016,398.374z M259.936,379.414c1.747-10.312,0.866-22.159,1.44-33.12   c-0.053-0.188-0.201-0.279-0.479-0.24C260.473,356.536,260.517,370.427,259.936,379.414z M262.096,380.614   c0.434-5.152,0.585-11.06,0.48-16.32c-0.053-0.188-0.201-0.279-0.48-0.24C262.563,371.203,260.983,376.306,262.096,380.614z    M256.336,387.093c2.619-1.222,4.127-3.554,6-5.52c-0.307-0.014-0.332-0.308-0.72-0.24   C260.156,383.553,257.737,384.815,256.336,387.093z"/>
	<path fill-rule="evenodd" clip-rule="evenodd" d="M224.416,0.214c13.682-0.634,28.846,0.159,40.8,2.16   c6.563,1.099,12.93,2.113,18.96,3.84c16.998,4.867,33.513,12.096,48.24,19.68c4.857,2.501,9.193,6.11,13.92,8.64   c4.884,2.614,9.299,5.926,13.439,9.12c8.546,6.593,16.006,14.599,21.841,23.52c5.957,9.109,9.554,20.146,11.76,33.36   c3.75,22.462-2.188,49.184-8.64,67.2c-4.958,13.843-10.557,26.314-16.801,39.84c-4.661,10.098-9.482,20.494-14.64,30.479   c-10.354,20.05-20.354,40.273-31.2,59.28c-7.99,14.004-16.657,28.688-25.439,42.48c-2.958,4.645-5.661,9.344-8.88,13.68   c-6.236,8.397-12.536,16.759-20.16,25.2c-3.392,3.754-7.23,7.622-11.04,11.52c-3.82,3.908-7.929,8.501-11.76,10.8   c-3.957,2.374-9.387,3.261-14.641,2.4c-2.826-0.463-5.458-1.833-8.16-2.88c-5.654-2.193-11.322-4.021-16.079-6   c-20.702-8.612-40.305-17.839-59.521-28.32c-9.673-5.276-19.105-10.658-28.56-15.6c-9.681-5.06-19.359-10.43-28.32-16.08   c-9.091-5.732-18.48-11.108-27.12-17.04c-12.646-8.683-26.42-17.741-38.64-27.6c-4.149-3.348-9.044-6.954-11.76-10.32   c-6.244-7.739-5.917-24.617-7.2-35.521c-2.293-19.489-4.32-40.245-4.32-60.479c0-9.947-0.345-20.985-0.48-30.48   c-0.14-9.857,0.667-21.121,0.96-31.68c0.581-20.854,3.437-43.157,6.48-62.16c0.848-5.293,1.805-9.362,4.32-12.96   c2.356-3.371,4.88-6.687,8.16-8.88c2.955-1.976,6.774-3.421,10.32-5.04c10.146-4.634,21.267-9.192,32.4-13.2   c15.367-5.532,32.659-7.051,51.12-9.6c8.831-1.219,17.615-2.926,26.64-3.84c27.286-2.762,53.657-5.52,83.521-5.52   C224.096,0.214,224.257,0.221,224.416,0.214z M359.296,49.654c-0.686,3.184-7.554,3.6-11.04,3.6   c-21.297,0-36.932-3.835-53.28-10.08c-9.544-3.646-18.007-7.228-26.64-11.76c-1.889-0.992-6.521-4.41-8.4-4.56   c-3.473-0.278-8.033,3.003-11.52,2.4c2.903-1.736,7.745-1.535,10.8-3.12c-3.983-1.945-8.451-4.497-12.479-7.44   c-3.936-2.875-8.235-5.484-11.04-8.88c-1.076-1.303-1.918-3.268-1.681-5.52c1.118-2.242,4.472-2.249,6.96-3.12   c-7.571-0.676-14.491-0.302-21.359,0c-6.588,0.29-13.312-0.011-19.92,0.48c-29.791,2.214-60.761,4.032-88.56,9.36   c33.253,1.553,57.16,14.516,80.4,26.88c2.892-0.85,6.225-1.596,9.36-2.4c3.194-0.819,6.442-2.16,9.12-1.92   c-5.667,1.613-11.414,3.146-17.279,4.56c4.171,3.411,9.05,5.716,13.68,8.4c14.031,8.134,26.704,17.733,38.4,28.08   c2.77,3.547,6.073,6.973,8.64,10.56c0.802,1.12,2.324,2.249,2.16,3.84c-13.791-19.434-34.453-33.427-56.16-45.6   c-10.827-6.072-21.478-12.562-33.36-17.52c-16.056-6.701-33.227-14.071-54-13.92c11.389,0.532,20.344,2.808,29.76,5.52   c19.338,5.569,37.065,14.291,52.08,23.52c10.565,6.495,21.121,12.165,30.72,19.44c9.58,7.261,18.971,14.447,25.92,24.48   c5.271,8.267,10.015,17.769,8.88,31.2c-1.037,12.274-6.349,21.683-11.521,30.24c-4.788,7.924-11.22,14.425-14.88,22.56   c0.661,0.62,2.353,0.208,2.4,1.44c-1.508,0.308-1.443-0.957-2.88-0.72c-3.712,7.457-2.965,17.617-3.6,27.84   c-1.835,29.529-1.788,52.506-1.44,85.2c0.497,0.143,1.576-0.297,1.68,0.24c-0.382,0.578-2.123-0.204-1.68,1.199   c2.554,0.551,5.825-1.532,7.92-1.439c-1.951,1.488-5.067,1.812-7.92,2.399c0.498,26.887,1.911,60.941,4.08,87.601   c1.533,0.056,3.269-1.664,4.8-2.4c-2.331-26.511-3.353-55.688-4.08-84c-0.309-0.73-1.559,0.654-1.68-0.479   c1.904-1.391,4.383-1.178,6.479-2.641c-0.362-20.056-0.546-42.716,0.721-60.479c-0.641,29.569-0.156,45.151-0.24,69.84   c-0.678-2.282,0.191-6.111-0.48-8.4c-1.638,0.202-2.517,1.164-4.08,1.44c0.298,27.869,1.67,56.339,3.841,84   c1.21-0.876,3.736-2.255,4.079-4.32c0.238-1.429-0.378-3.776-0.479-5.76c-0.708-13.76-2.266-31.663-2.16-44.88   c1.683,16.688,1.283,33.482,3.36,50.16c4.557-5.548,8.724-11.277,13.2-17.04c1.914-2.465,4.344-4.459,4.56-7.681   c0.467-6.952-0.621-15.767,0.24-25.199c0.713,8.02-0.235,19.079,0.479,26.159c15.503-20.877,31.748-41.708,46.8-65.279   c12.371-19.374,26.317-39.315,37.681-60.24c1.555-2.862,4.677-6.942,5.04-9.12c0.241-1.451-0.338-2.955-0.48-4.32   c-1.543-14.823-4.98-27.267-10.32-38.64c-3.712-7.906-8.476-15.081-13.439-21.36c-1.696-2.145-3.797-3.967-4.8-6.48   c15.968,17.152,26.868,39.372,29.76,69.6c1.41-1.392,1.182-3.849,0.96-6c-0.995-9.638-4.866-20.271-6.72-28.32   c4.006,8.874,5.814,19.946,7.68,30.96c3.854-7.046,7.775-14.443,11.76-22.32c3.781-7.476,7.101-15.469,10.8-23.52   c7.343-15.978,14.556-33.397,15.841-52.56c0.637-9.494-1.159-15.673-3.12-22.32c-5.867-4.133-12.343-7.657-19.44-10.56   c6.992,1.25,12.942,5.616,18.48,9.12c-0.609-3.311-4.774-3.066-6-5.76c1.754,0.329,2.995,2.441,4.56,2.16   c-6.677-13.723-16.988-25.091-28.8-32.88C357.639,45.022,359.98,46.475,359.296,49.654z M288.736,11.014   c4.166,1.432,8.452,1.986,12,4.32c-2.924-0.278-5.41-2.269-7.92-2.16c14.555,7.108,27.788,14.966,39.6,24.24   c4.753,3.732,9.298,8.907,16.32,10.08c2.525-2.652-1.649-5.281-2.641-7.44c-9.6-7.397-20.797-14.248-32.399-19.2   c-1.611-0.688-3.761-0.955-4.801-2.64c15.48,6.84,31.079,13.562,41.04,25.92c0.067,0.812,0.382,1.378,0.24,2.4   c1.75,0.186,1.117-2.309,1.92-2.4c0.58,2.067-1.302,3.19-2.88,3.84c2.726,0.326,3.807-0.994,4.8-2.4   c-0.352-1.811-2.228-3.369-2.16-4.8c3.096,2.531,3.825,7.422-1.439,7.92c-4.951,0.468-9.537-2.828-12.72-5.28   c-3.691-2.844-6.64-6.119-9.841-8.4c-5.295-3.774-10.785-7.335-16.56-10.56c-2.138-1.193-4.235-3.038-5.76-3.36   c-2.774-0.586-6.746,0.821-8.16-0.48c2.24,0,4.48,0,6.72,0c-6.914-5.031-17.269-8.985-25.92-12.96c-5.589-2.568-10.517-4.07-18-4.8   c-5.166-0.504-15.318-1.968-21.359,0c-4.114,1.339-3.258,3.798-1.44,6.72c12.019,10.888,28.412,19.05,45.6,27.12   c17.194,8.073,36.317,13.699,57.12,14.88c5.645,0.32,16.714,1.003,17.521-2.88c0.847-4.078-4.113-5.806-5.521-8.4   c-0.619-0.641-0.252,0.552-1.2,0.24c-2.064-3.231-5.614-4.961-8.88-6.96c-3.268-2-6.252-4.57-9.6-6.48   c-3.578-2.042-7.603-3.805-11.52-5.76c-3.856-1.924-7.956-3.662-12.001-5.28c-10.453-4.182-21.903-8.137-32.399-10.32   C280.748,7.072,284.448,9.541,288.736,11.014z M111.376,11.494c-0.88,0-1.76,0-2.64,0   C109.309,11.729,112.813,12.202,111.376,11.494z M226.816,208.053c0.429-9.768,0.189-19.395,1.199-28.56   c1.499-13.598,10.227-21.476,16.08-30.72c6.109-9.473,12.628-20.163,13.681-33.36c0.169-2.128,0.201-4.624,0-6.96   c-1.351-15.647-12.07-27.875-22.08-37.2c-15.442-14.386-35.568-25.159-54.48-35.52c-6.497-3.56-13.098-7.019-20.16-9.84   c-18.38-7.342-40.146-14.712-66-12.72c-27.709,2.135-47.888,13.192-69.12,22.32c-0.7,0.045,1.072,0.783,0.24,0.96   c-0.8,0-1.6,0-2.4,0c-4.388,2.259-9.315,6.979-12.24,12.24c-1.367,2.458-3.376,6.287-3.12,9.6c0.095,1.227,1.044,1.506,0.72,2.64   c-0.563-0.077-0.537-0.743-0.96-0.96c-7.048,44.486-9.237,99.084-5.52,148.08c1.069,14.092,1.173,26.648,3.12,40.32   c0.224,1.574,1.117,4.333,2.4,4.561c-4.021-35.558-5.423-72.308-4.8-102.96c0.117-5.774-0.268-11.957,1.2-18.24   c-0.534,10.542-0.384,19.544-0.96,30c1.67,1.93,4.304,2.896,5.76,5.04c-2.374-0.667-3.277-2.803-5.52-3.6   c-0.369,26.981,1.971,64.097,5.04,91.44c28.261,23.98,59.91,44.568,93.6,63.12c0.08-5.386-1.624-11.448-0.96-16.08   c0.529,4.03,1.042,9.327,1.44,13.439c0.124,1.282-0.645,3.589,1.2,3.84c0.227-1.751-0.794-5.601-0.24-7.68   c0.74,2.301,0.652,5.429,0.96,8.16c21.084,11.636,42.062,23.378,64.8,33.36c-0.216-3.865-1.039-8.401-0.72-12   c0.723,2.612,0.887,8.072,1.2,12.479c15.61,7.189,31.168,14.433,48.24,20.16c-1.671-30.327-4.035-60.508-3.6-90   c0.782,31.109,2.345,63.918,4.319,90.479c1.247,0.619,3.636,1.019,5.04,0.721c-1.084-19.368-2.646-37.785-2.88-55.92   c1.753,17.877,1.776,37.008,3.601,55.92c2.21,0.13,3.647-0.512,5.04-1.2c-2.311-28.109-3.488-56.938-4.08-88.08   c-1.365-0.314-4.084,0.724-4.32-0.72c1.31-0.371,4.167,0.808,4.32-0.72c-4.83-0.212-9.368-1.374-12.96-2.881   c-1.874-0.785-4.333-0.861-5.04-2.64c5.268,2.172,10.051,4.829,17.76,4.561C225.803,258.85,225.697,233.51,226.816,208.053z    M386.896,129.094c-8.035,25.17-19.372,48.081-31.439,69.6c-1.992,3.552-4.321,7.242-2.4,11.52c1.414-4.038,4.591-7.068,6.24-11.04   c0.321-0.771,0.145-1.823,0.479-2.64c1.312-3.188,3.622-6.384,5.28-9.6c5.158-10.002,9.359-20.284,13.92-30.72   c7.255-16.599,14.599-36.012,12.721-58.56C391.606,109.243,389.928,119.597,386.896,129.094z M379.696,157.894   c-4.155,10.645-9.167,21.273-14.641,31.44c-0.918,1.706-5.053,8.815-5.04,10.561c0.008,0.965,1.113,3.176,1.681,4.8   c1.026,2.943,1.968,5.387,1.92,9.12c13.903-29.205,31.31-63.118,29.52-103.92C391.635,128.099,385.665,142.603,379.696,157.894z    M354.736,232.534c1.457-5.012,6.528-11.089,7.68-16.08c1.232-5.344-1.59-10.363-3.36-14.64c-1.15,3.415-5.5,7.713-6.239,11.279   c-0.495,2.387,0.009,5.428,0,8.16c-0.023,7.091-0.398,12.673-1.2,17.76c2.777-3.542,2.393-10.247,3.12-15.84   C355.329,226.198,354.115,230.663,354.736,232.534z M238.816,394.053c1.216,0.928,0.741,2.166,1.92,3.12   c1.753,1.42,4.201,0.599,6.479,0.72c0.886-0.954,1.688-1.992,2.16-3.359c-5.56,3.743-7.688-4.717-6.479-9.12   c0.481,3.598,0.32,7.84,2.88,9.36c4.635-0.326,5.954-5.246,9.12-6.24c-1.166,2.595-4.479,3.041-5.04,6.24   c5.422-4.498,12.054-11.146,16.319-16.801c-1.05,0.634-1.87,2.765-3.12,2.4c13.24-12.938,25.048-27.678,34.801-43.68   c1.16-1.904,1.629-4.357,3.6-5.761c2.112-4.586,5.204-8.77,7.92-13.199c2.518-4.107,6.203-9.331,7.68-13.681   c0.875-2.575-0.896-6.431-1.68-8.88c-0.798-2.49-2.168-4.696-2.88-6.96c-2.865-9.1,5.382-18.48,9.6-25.2   c8.896-14.167,16.923-28.022,25.2-42.72c2.29-4.066,5.733-7.919,4.56-13.92c-2.143,0.682-0.861,3.615-1.199,5.28   c-0.997-0.044-0.335-1.745-0.96-2.16c-26.994,47.884-57.556,92.207-90,134.64c-0.176,5.48,0.208,11.729-0.721,16.561   c0.142-5.059-0.295-10.695,0.24-15.36c-3.414,3.016-5.694,7.106-8.88,11.28c-1.219,1.597-2.842,3.335-4.56,5.52   c-1.209,1.537-4.066,4.333-4.32,6c-0.177,1.162,0.596,3.188,0.72,5.04c0.263,3.921,0.703,6.73,0,9.601   c-0.324-4.307-0.696-9.384-1.2-14.16c-0.745,1.117-3.603,1.905-4.079,3.84c-0.357,1.449,0.302,4.892,0.479,7.2   c0.342,4.432,1.261,9.098,0.72,12.479c-0.976-6.145-1.189-13.05-1.68-19.68c-1.701,0.699-3.016,1.784-4.8,2.399   c0.569,3.873,0.585,9.289,0.96,14.16c0.262,3.396,0.456,7.724,1.68,9.84c2.229,3.857,9.733,2.871,11.76-0.479   C241.983,399.817,238.155,396.513,238.816,394.053z M317.536,272.374c-2.536,3.955-5.478,9.668-4.08,14.64   c1.335,4.749,4.875,9.227,4.56,15.12c9.07-13.868,15.789-28.646,23.521-43.439c2.488-4.762,5.812-9.609,7.68-14.641   c2.974-8.01,3.467-18.266,3.12-29.279c-0.146-0.014-0.284-0.036-0.24-0.24c-0.014-0.146-0.036-0.284-0.24-0.24   C342.305,232.653,329.092,254.353,317.536,272.374z M9.136,271.173c0.523,0.837,1.795,0.925,1.92,2.16   c-0.155,0.671-1.09-1.105-1.44-0.24c0.512,0.608,0.492,1.749,1.2,2.16c0.055-0.425-0.242-1.202,0.48-0.96   c0.878,5.24,4.439,7.4,7.92,10.32c5.477,4.595,11.574,9.006,17.04,13.2c22.743,17.45,49.121,33.433,73.92,47.279   c-1.824-1.456-0.931-5.629-3.12-6.72c-0.147,1.672,1.415,2.899,0.96,4.08c-1.146-0.854-1.397-2.604-1.44-4.561   c-17.386-9.973-34.901-19.818-50.88-31.199c-10.904-6.776-21.331-14.029-30.96-22.08c-2.334-1.267-4.509-2.69-6-4.8   c27.362,20.72,56.182,39.977,87.36,56.88c0-0.801,0-1.601,0-2.4c-8.792-4.846-20.215-11.285-29.04-17.04   c-3.293-2.147-6.885-3.694-9.6-6c-3.677-3.124-2.89-9.287-3.84-14.88c-9.734-5.909-19.115-12.035-28.08-18.72   c-8.924-6.654-17.54-13.688-26.4-20.4c0.172,2.313,0.908,4.903,0.48,6.48c-1.269-2.812-0.059-8.102-2.88-9.36   C7.458,260.052,7.738,266.172,9.136,271.173z M65.776,305.973c0.774,3.896,3.978,5.403,6.96,7.2   c10.453,6.299,22.467,13.956,32.88,19.2c-1.197-2.045-6.639-3.272-4.08-6.72c1.9-0.301,2.143,1.057,3.6,1.2   c-0.389-2.251,0.076-5.356-1.68-6.24c-0.233,1.72,0.603,2.135,0,3.359c-0.756-0.763-0.201-2.838-0.72-3.84   c-12.96-7.04-24.928-15.072-37.68-22.319C65.516,300.591,65.167,302.909,65.776,305.973z M106.576,327.814   c0.517-0.294-0.743-3.13,0.48-3.36c-0.186,1.466,0.314,2.245,0.24,3.6c2.445,1.955,7.53,2.549,6.48,7.2   c-2.482,1.271-4.178-2.598-5.76-1.439c10.327,6.164,20.997,11.669,31.68,17.04c3.584,1.802,6.861,4.555,11.04,5.279   c0.876-2.867-0.561-6.954-0.48-10.56c-15.153-7.887-30.375-15.705-45.12-24C105.69,323.58,104.903,326.926,106.576,327.814z    M102.496,328.534c3.481,1.799,6.646,3.913,10.32,5.52c-2.081-3.679-6.635-4.885-10.56-6.72   C102.158,327.912,102.694,327.855,102.496,328.534z M107.536,333.574c0.146-0.946-0.537-1.063-1.2-1.2   C106.19,333.32,106.873,333.437,107.536,333.574z M107.536,337.654c0.547-0.333,0.089-1.671,0.24-2.4   c-0.739,0.179-0.461-0.658-1.2-0.479C106.783,336.366,106.304,337.153,107.536,337.654z M108.496,338.133   c7.604,4.563,16.788,8.924,23.52,13.44c-8.289-3.552-15.185-8.495-23.28-12.24c0.772,7.029,6.563,8.73,11.76,11.521   c18.061,9.693,36.915,20.479,54.96,28.8c-2.891-4.561-3.293-14.325-3.12-20.4c1.099,7.462,0.43,16.69,4.56,21.12   c14.858,6.902,29.912,13.608,45.84,19.439c-1.162-2.197-2.458-4.262-2.641-7.439c-3.564-1.715-8.172-2.388-11.04-4.8   c3.87,1.01,6.872,2.888,10.801,3.84c0.051-3.365-0.988-8.086-0.24-10.561c0.808,9.188,0.114,20.517,9.84,20.881   c-2.604-1.717-4.343-5.576-3.6-9.841c0.638,5.042,1.804,9.557,6.72,10.32c0.996-2.11-0.592-4.238-0.96-6.479   c-1.034-6.299-0.729-13.526-1.68-20.16c-1.787,0.293-3.659,0.501-5.28,0.96c0.502,3.179,1.137,7.502,0.72,10.8   c-0.854-2.557-0.628-7.488-1.2-11.04c-1.775,0.176-2.931-0.269-4.56-0.24c-0.732,0.048,0.78,1.57-0.48,1.44   c-0.594-0.206,0.071-1.671-0.479-1.92c-16.562-6.158-32.389-13.052-48-20.16c-0.299,4.308,1.251,10.102,0.96,14.4   c-1.157-4.363-1.051-9.99-1.68-14.881c-6.191-2.849-12.254-5.825-18.48-8.64c0.345,2.514-0.149,6.299,1.44,8.16   c-0.995,0.92-0.651,2.735-2.16,3.12c-1.254,0.319-4.302-1.352-5.76-2.16c-11.924-6.609-25.706-13.151-36-19.68   c-0.24,0-0.48,0-0.72,0C108.068,336.801,108.576,337.174,108.496,338.133z M234.736,402.694c1.048,0.008,2.168,0.088,2.64-0.48   c-0.968-0.152-1.296-0.944-2.399-0.96C235.008,401.845,235.013,402.41,234.736,402.694z"/>
</g>
<metadata><rdf:RDF><cc:Work><dc:format>image/svg+xml</dc:format><dc:type rdf:resource="http://purl.org/dc/dcmitype/StillImage"/><cc:license rdf:resource="http://creativecommons.org/licenses/publicdomain/"/><dc:publisher><cc:Agent rdf:about="http://openclipart.org/"><dc:title>Open Clip Art Library</dc:title></cc:Agent></dc:publisher><dc:title>original iMac</dc:title><dc:date>2006-11-23T11:53:06</dc:date><dc:description>the original iMac computer in its signature Bondi Blue from a U.S. Patent drawing.  Drawing did not have Apple logo and I didn't add it for copyright reasons.</dc:description><dc:source>http://openclipart.org/detail/1591/original-imac-by-johnny_automatic</dc:source><dc:creator><cc:Agent><dc:title>johnny_automatic</dc:title></cc:Agent></dc:creator><dc:subject><rdf:Bag><rdf:li>apple</rdf:li><rdf:li>apple</rdf:li><rdf:li>clip art</rdf:li><rdf:li>clipart</rdf:li><rdf:li>computer</rdf:li><rdf:li>computer</rdf:li><rdf:li>computing</rdf:li><rdf:li>computing</rdf:li><rdf:li>electronics</rdf:li><rdf:li>electronics</rdf:li><rdf:li>externalsource</rdf:li><rdf:li>imac</rdf:li><rdf:li>imac</rdf:li><rdf:li>image</rdf:li><rdf:li>media</rdf:li><rdf:li>png</rdf:li><rdf:li>public domain</rdf:li><rdf:li>svg</rdf:li><rdf:li>uspto</rdf:li><rdf:li>uspto</rdf:li></rdf:Bag></dc:subject></cc:Work><cc:License rdf:about="http://creativecommons.org/licenses/publicdomain/"><cc:permits rdf:resource="http://creativecommons.org/ns#Reproduction"/><cc:permits rdf:resource="http://creativecommons.org/ns#Distribution"/><cc:permits rdf:resource="http://creativecommons.org/ns#DerivativeWorks"/></cc:License></rdf:RDF></metadata></svg>