<?xml version="1.0" encoding="UTF-8" standalone="no"?>
<!-- Created with Inkscape (http://www.inkscape.org/) -->
<svg xmlns:dc="http://purl.org/dc/elements/1.1/" xmlns:cc="http://creativecommons.org/ns#" xmlns:rdf="http://www.w3.org/1999/02/22-rdf-syntax-ns#" xmlns:svg="http://www.w3.org/2000/svg" xmlns="http://www.w3.org/2000/svg" xmlns:sodipodi="http://sodipodi.sourceforge.net/DTD/sodipodi-0.dtd" xmlns:inkscape="http://www.inkscape.org/namespaces/inkscape" width="339.504" height="255.99992" id="svg3051" version="1.1" inkscape:version="0.47 r22583" sodipodi:docname="Documento nuevo 3">
  <defs id="defs3053">
    <inkscape:perspective sodipodi:type="inkscape:persp3d" inkscape:vp_x="0 : 526.18109 : 1" inkscape:vp_y="0 : 1000 : 0" inkscape:vp_z="744.09448 : 526.18109 : 1" inkscape:persp3d-origin="372.04724 : 350.78739 : 1" id="perspective3059"/>
    <inkscape:perspective id="perspective2907" inkscape:persp3d-origin="0.5 : 0.33333333 : 1" inkscape:vp_z="1 : 0.5 : 1" inkscape:vp_y="0 : 1000 : 0" inkscape:vp_x="0 : 0.5 : 1" sodipodi:type="inkscape:persp3d"/>
  </defs>
  <sodipodi:namedview id="base" pagecolor="#ffffff" bordercolor="#666666" borderopacity="1.0" inkscape:pageopacity="0.0" inkscape:pageshadow="2" inkscape:zoom="1.3906254" inkscape:cx="169.752" inkscape:cy="127.99996" inkscape:document-units="px" inkscape:current-layer="layer1" showgrid="false" inkscape:window-width="1036" inkscape:window-height="595" inkscape:window-x="1534" inkscape:window-y="21" inkscape:window-maximized="0"/>
  <g inkscape:label="Capa 1" inkscape:groupmode="layer" id="layer1" transform="translate(-180.248,-404.36223)">
    <g style="fill-rule:evenodd;visibility:visible" id="g10" class="Drawing" transform="matrix(0.05657457,0,0,0.05657457,64.27013,246.74548)">
      <g id="g12">
        <g id="g14" style="fill:#cccccc;stroke:none">
          <path id="path16" d="m 2627,4302 c -110,-547 401,-1063 912,-1063 161,-4 328,49 465,129 131,-248 374,-399 647,-399 182,8 374,82 511,215 98,-219 306,-348 530,-348 189,0 361,94 470,237 126,-147 314,-237 511,-237 319,0 590,231 647,555 309,90 533,383 533,719 0,102 -16,201 -63,295 131,164 211,366 211,573 0,469 -353,865 -806,932 0,449 -350,801 -787,801 -150,0 -293,-43 -418,-124 -115,395 -478,674 -885,674 -304,0 -590,-166 -763,-429 -161,101 -76,160 -538,160 -380,0 -729,-207 -912,-543 -437,-8 -661,-274 -661,-610 0,-156 57,-297 161,-414 -189,-98 -292,-293 -292,-516 0,-314 229,-572 527,-607 l 0,0 z m -527,-1466 0,0 z m 5901,4425 0,0 z"/>
        </g>
        <g id="g18" style="fill:none;stroke:#e6e6e6;stroke-width:100;stroke-linejoin:round">
          <path id="path20" d="m 2627,4302 c -110,-547 401,-1063 912,-1063 161,-4 328,49 465,129 131,-248 374,-399 647,-399 182,8 374,82 511,215 98,-219 306,-348 530,-348 189,0 361,94 470,237 126,-147 314,-237 511,-237 319,0 590,231 647,555 309,90 533,383 533,719 0,102 -16,201 -63,295 131,164 211,366 211,573 0,469 -353,865 -806,932 0,449 -350,801 -787,801 -150,0 -293,-43 -418,-124 -115,395 -478,674 -885,674 -304,0 -590,-166 -763,-429 -161,101 -76,160 -538,160 -380,0 -729,-207 -912,-543 -437,-8 -661,-274 -661,-610 0,-156 57,-297 161,-414 -189,-98 -292,-293 -292,-516 0,-314 229,-572 527,-607 l 0,0" style="fill:none"/>
          <path id="path22" d="m 2627,4302 c 5,52 30,109 43,156" style="fill:none"/>
          <path id="path24" d="m 2100,2836 0,0" style="fill:none"/>
          <path id="path26" d="m 8001,7261 0,0" style="fill:none"/>
          <path id="path28" d="m 4004,3368 c 63,39 139,92 191,146" style="fill:none"/>
          <path id="path30" d="m 2100,2836 0,0" style="fill:none"/>
          <path id="path32" d="m 8001,7261 0,0" style="fill:none"/>
          <path id="path34" d="m 5162,3184 c -22,43 -36,94 -49,143" style="fill:none"/>
          <path id="path36" d="m 2100,2836 0,0" style="fill:none"/>
          <path id="path38" d="m 8001,7261 0,0" style="fill:none"/>
          <path id="path40" d="m 6162,3073 c -41,49 -63,115 -90,174" style="fill:none"/>
          <path id="path42" d="m 2100,2836 0,0" style="fill:none"/>
          <path id="path44" d="m 8001,7261 0,0" style="fill:none"/>
          <path id="path46" d="m 7320,3391 c 6,37 33,118 22,137" style="fill:none"/>
          <path id="path48" d="m 2100,2836 0,0" style="fill:none"/>
          <path id="path50" d="m 8001,7261 0,0" style="fill:none"/>
          <path id="path52" d="m 7790,4405 c -46,104 -109,196 -197,272" style="fill:none"/>
          <path id="path54" d="m 2100,2836 0,0" style="fill:none"/>
          <path id="path56" d="m 8001,7261 0,0" style="fill:none"/>
          <path id="path58" d="m 7197,5910 c 22,-165 -104,-575 -453,-729" style="fill:none"/>
          <path id="path60" d="m 2100,2836 0,0" style="fill:none"/>
          <path id="path62" d="m 8001,7261 0,0" style="fill:none"/>
          <path id="path64" d="m 5990,6587 c 22,-68 30,-130 35,-195" style="fill:none"/>
          <path id="path66" d="m 2100,2836 0,0" style="fill:none"/>
          <path id="path68" d="m 8001,7261 0,0" style="fill:none"/>
          <path id="path70" d="m 4345,6832 c -44,-53 -71,-114 -98,-178" style="fill:none"/>
          <path id="path72" d="m 2100,2836 0,0" style="fill:none"/>
          <path id="path74" d="m 8001,7261 0,0" style="fill:none"/>
          <path id="path76" d="m 2892,6449 c 52,-8 104,-20 153,-39" style="fill:none"/>
          <path id="path78" d="m 2100,2836 0,0" style="fill:none"/>
          <path id="path80" d="m 8001,7261 0,0" style="fill:none"/>
          <path id="path82" d="m 2392,5425 c 90,53 194,100 344,82" style="fill:none"/>
          <path id="path84" d="m 2100,2836 0,0" style="fill:none"/>
          <path id="path86" d="m 8001,7261 0,0" style="fill:none"/>
        </g>
        <g id="g88" style="fill:none;stroke:none">
          <rect id="rect90" height="4425" width="5901" y="2836" x="2100"/>
        </g>
      </g>
    </g>
  </g>
  <metadata>
    <rdf:RDF>
      <cc:Work>
        <dc:format>image/svg+xml</dc:format>
        <dc:type rdf:resource="http://purl.org/dc/dcmitype/StillImage"/>
        <cc:license rdf:resource="http://creativecommons.org/licenses/publicdomain/"/>
        <dc:publisher>
          <cc:Agent rdf:about="http://openclipart.org/">
            <dc:title>Open Clip Art Library</dc:title>
          </cc:Agent>
        </dc:publisher>
        <dc:title>Cloud Gray</dc:title>
        <dc:date>2011-08-12T20:59:32</dc:date>
        <dc:description>Clipart for computer and network diagrams</dc:description>
        <dc:source>http://openclipart.org/detail/155137/cloud-gray-by-saisyukusanagi</dc:source>
        <dc:creator>
          <cc:Agent>
            <dc:title>saisyukusanagi</dc:title>
          </cc:Agent>
        </dc:creator>
        <dc:subject>
          <rdf:Bag>
            <rdf:li>Cloud</rdf:li>
            <rdf:li>Internet</rdf:li>
            <rdf:li>Network</rdf:li>
            <rdf:li>clip art</rdf:li>
            <rdf:li>clipart</rdf:li>
          </rdf:Bag>
        </dc:subject>
      </cc:Work>
      <cc:License rdf:about="http://creativecommons.org/licenses/publicdomain/">
        <cc:permits rdf:resource="http://creativecommons.org/ns#Reproduction"/>
        <cc:permits rdf:resource="http://creativecommons.org/ns#Distribution"/>
        <cc:permits rdf:resource="http://creativecommons.org/ns#DerivativeWorks"/>
      </cc:License>
    </rdf:RDF>
  </metadata>
</svg>