<?xml version="1.0" encoding="UTF-8"?>
<!-- Generator: Adobe Illustrator 12.0.1, SVG Export Plug-In . SVG Version: 6.00 Build 51448)  -->
<!DOCTYPE svg PUBLIC "-//W3C//DTD SVG 1.1//EN" "http://www.w3.org/Graphics/SVG/1.1/DTD/svg11.dtd" [
<!ENTITY ns_svg "http://www.w3.org/2000/svg">
<!ENTITY ns_xlink "http://www.w3.org/1999/xlink">
]>
<svg xmlns="http://www.w3.org/2000/svg" xmlns:xlink="http://www.w3.org/1999/xlink" xmlns:svg="http://www.w3.org/2000/svg" xmlns:dc="http://purl.org/dc/elements/1.1/" xmlns:cc="http://web.resource.org/cc/" xmlns:rdf="http://www.w3.org/1999/02/22-rdf-syntax-ns#" version="1.1" id="Layer_1" width="359.541" height="469.783" viewBox="0 0 359.541 469.783" overflow="visible" enable-background="new 0 0 359.541 469.783" xml:space="preserve">
<g>
	<path fill-rule="evenodd" clip-rule="evenodd" fill="#EFF0F0" d="M2.692,8.166c0.32,0.399,1.36,0.08,1.68,0.48   C4.175,9.057,2.636,8.8,2.692,8.166z"/>
	<path fill-rule="evenodd" clip-rule="evenodd" fill="#EFF0F0" d="M10.852,10.325c0.278,0.625-4.067-0.593-4.08-0.72   c-0.069-0.681,5.059,0.246,1.2-0.24C8.573,9.441,10.182,10.32,10.852,10.325z"/>
	<path fill-rule="evenodd" clip-rule="evenodd" fill="#EFF0F0" d="M1.492,9.605c1.141-0.101,1.731,0.349,2.64,0.48   c0.873,23.246-0.067,45.933,0.72,70.08c0.708,21.718,0.264,49.815,0,68.4c-0.314,22.144,0.48,47.432,0.48,71.76   c0,24.691,0.167,49.338,0.24,73.44c1.16-1.33,0.756-4.497,0.72-7.92c-0.432-41.286-0.993-86.452-0.96-128.88   c0.027-34.991,0.371-77.845-0.24-109.92c-0.208-10.94-0.047-24.764,0.24-36.48c4.35-0.589,3.101,4.076,3.12,6.24   c0.28,32.252,0.48,60.959,0.48,94.56c0,22.614,0.24,39.17,0.24,63.84c0,30.552,0.11,68.25,0.72,98.16   c0.329-32.282-0.24-62.838-0.24-97.2c0-11.064-0.145-20-0.24-30.96c-0.27-30.956,0.985-70.776,0-101.28   c-0.341-10.572-0.401-21.177,0-32.4c3.29,0.613,3.03,0.494,3.12,3.12c0.47,13.786-0.256,31.036,0.24,43.92   c0.686,17.824,0.48,34.848,0.48,52.8c0,36.548,0.188,71.403,0.48,110.16c0.702-37.604,0-69.026,0-104.16   c0-18.497-0.24-31.811-0.24-51.6c0-17.714-0.119-36.929,0-53.04c1.202-0.081,1.678,0.562,2.88,0.48   c1.304,1.279,0.72,3.896,0.72,6.24c0,2.318,0,4.911,0,6.96c0.037,1.397-2.455,0.265-2.4,1.68   c-0.047,65.444,0.72,128.96,0.72,194.64c0,11.284,0.24,18.287,0.24,29.76c0,10.34-0.292,22.08,0.48,30.721   c5.5,2.675,11.697,3.461,17.52,5.04c17.799,4.823,35.504,9.123,53.04,14.399c23.358,7.027,47.43,11.928,71.28,18.48   c1.043,0.076,0.922,1.317,0.96,2.399c0.277-1.748,1.682-2.475,3.12-1.2c0.757,0.672,0.578,0.247,0.72,2.16   c0.053,0.714-0.21,1.556,0.24,2.4c1.362-0.318-0.402-3.762,0.96-4.08c4.925-0.66,2.149,6.332,2.88,10.08   c-38.394-11.688-79.338-20.821-118.32-31.92c-1.716,1.084-1.804,3.796-2.4,6c-14.5-3.804-29.204-7.686-43.44-12.24   c-0.507-28.262-1.021-69.962-0.96-103.2c0.023-12.6,0.008-24.396-0.24-34.32c-0.633-25.31,0-51.621,0-76.8   c0-24.051-0.499-50.049-0.24-70.08C1.231,9.985,1.212,9.646,1.492,9.605z M14.212,227.525c-0.215-0.665,0.493-2.253-0.48-2.16   C13.56,225.939,13.034,227.655,14.212,227.525z M10.132,279.125c0.143-0.172,0.286-1.696-0.48-1.681   C9.76,278.377,9.051,278.951,10.132,279.125z M162.772,329.045c0.24,0,0.48,0,0.72,0c-0.055-0.426,0.242-1.202-0.48-0.96   C162.937,328.41,162.67,328.543,162.772,329.045z"/>
	<path fill-rule="evenodd" clip-rule="evenodd" fill="#EFF0F0" d="M16.612,11.765c-1.274,0.474-4.409-0.921-4.56-0.96   C10.538,10.415,14.652,11.103,16.612,11.765z"/>
	<path fill-rule="evenodd" clip-rule="evenodd" fill="#EFF0F0" d="M21.172,14.646c0,4.48,0,8.96,0,13.44   c-1.39-0.21-2.965-0.234-3.84-0.96c0.461-4.597-0.087-8.563,0.24-13.44C18.903,13.874,19.933,14.364,21.172,14.646z"/>
	<path fill-rule="evenodd" clip-rule="evenodd" fill="#EFF0F0" d="M25.492,15.845c0,4.48,0,8.96,0,13.44   c-1.696,0.096-2.612-0.587-3.84-0.96c0.156-4.484-0.314-9.594,0.24-13.68C23.097,15.04,24.493,15.244,25.492,15.845z"/>
	<path fill-rule="evenodd" clip-rule="evenodd" fill="#EFF0F0" d="M29.332,16.565c0,4.64,0,9.28,0,13.92   c-1.509,0.149-2.03-0.689-3.36-0.72c0.093-5.36-0.225-9.704,0-13.92C27.223,15.954,28.341,16.197,29.332,16.565z"/>
	<path fill-rule="evenodd" clip-rule="evenodd" fill="#EFF0F0" d="M32.212,16.085c1.644-0.6,3.24,0.917,5.04,0.96   C35.564,17.688,34.079,16.062,32.212,16.085z"/>
	<path fill-rule="evenodd" clip-rule="evenodd" fill="#EFF0F0" d="M30.052,17.045c1.301,0.139,2.737,0.143,3.6,0.72   c0,4.64,0,9.28,0,13.92c-1.502-0.018-2.293-0.746-3.6-0.96C30.052,26.166,30.052,21.605,30.052,17.045z"/>
	<path fill-rule="evenodd" clip-rule="evenodd" fill="#EFF0F0" d="M37.732,17.525c1.478-0.672,2.849,0.827,4.56,0.72   C40.724,19.008,39.398,17.463,37.732,17.525z"/>
	<path fill-rule="evenodd" clip-rule="evenodd" fill="#EFF0F0" d="M34.372,18.005c1.119,0.241,2.312,0.409,3.36,0.72   c0.06,3.487,0.048,9.662,0,14.16c-1.216-0.224-2.208-0.672-3.36-0.96C34.354,26.788,34.35,23.123,34.372,18.005z"/>
	<path fill-rule="evenodd" clip-rule="evenodd" fill="#EFF0F0" d="M42.292,20.166c-0.354,4.465,0.054,7.154,0,13.2   c1.113-3.447,0.165-8.955,0.48-13.2c1.511,0.009,2.413,0.627,3.6,0.96c0.076,4.469-0.175,9.315,0.24,12.24   c0.559-3.521,0.08-8.08,0.24-12c1.553,0.047,2.81,0.391,3.84,0.96c-0.348,2.56,0.132,5.243,0,9.6c0.93-2.439-0.069-4.993,0.24-9.36   c1.72-0.201,2.689,0.351,3.84,0.72c0.159,2.481-0.318,5.599,0.24,7.68c0.652-2.332-0.095-5.227,0.24-7.44   c1.133,0.227,2.198,0.522,3.36,0.72c0.261,1.739-0.559,4.559,0.48,5.52c0.557-1.203,0.082-3.438,0.24-5.04   c1.322-0.042,1.83,0.73,3.36,0.48c0.58,0.94-0.076,3.116,0.48,4.08c1.209-0.151-0.106-2.826,0.72-3.36   c1.736,0.264,3.441,0.559,3.36,2.64c0.687-0.034,0.439-1.001,0.48-1.68c22.347,6.496,44.991,12.762,67.92,18.24   c22.698,5.423,44.701,13.012,67.44,18.48c23.081,5.55,45.864,11.455,68.16,18c19.071,5.599,39.406,10.258,60,15.36   c2.404,0.596,7.453,1.347,8.4,2.16c1.954,1.678,0.96,12.923,0.96,18c0,18.547-0.05,39.883,0.239,52.8   c0.476,21.174-0.413,52.942,0,70.32c1.16,48.724-0.169,97.478,0,145.439c-15.339-4.021-30.748-7.972-45.84-12.24   c-0.003-1.552-0.363-3.484,0-5.76c-4.626-2.449-9.907-2.895-14.88-4.08c-14.689-3.502-29.658-7.97-44.399-12.24   c-19.611-5.68-39.431-11.036-59.76-15.84c0-0.8,0-1.6,0-2.399c-1.367,0.119,0,1.479-0.72,2.16c-1.185-0.256-2.066-0.814-3.36-0.961   c-0.364-1.537,0.306-3.461-0.24-5.52c-1.345,0.577-0.062,2.982-0.48,5.28c-1.376-0.224-2.669-0.531-3.6-1.2c0-2.96,0-5.92,0-8.88   c29.01,8.471,60.867,16.113,90.72,24.479c20.82,5.836,40.752,11.233,61.2,16.32c3.324,0.827,6.031,2.174,8.16,0   c0.305-10.944,0.416-23.16,0.239-32.4c-0.468-24.584-0.239-57.805-0.239-92.399c0-32.794-0.48-66.999-0.48-96.48   c0-5.109,0-10.614,0-16.8c0-4.908,0.861-13.936-0.72-16.08c-0.799-1.082-5.254-2.097-8.4-2.88   c-8.833-2.197-18.352-4.824-26.399-7.2c-23.651-6.983-46.967-11.873-70.561-18.72c-34.541-10.024-71.29-18.408-105.84-28.32   c-17.413-4.996-34.874-9.569-52.8-14.16c-7.956-2.037-15.795-4.098-24-6.24c0.108-4.246-0.046-8.308,0-13.44   C38.813,18.26,41.355,19.876,42.292,20.166z M171.172,327.605c1,0.265,1-1.704,0-1.439   C171.172,326.645,171.172,327.125,171.172,327.605z"/>
	<path fill-rule="evenodd" clip-rule="evenodd" fill="#EFF0F0" d="M53.332,21.605c1.361-0.715,2.591,0.764,4.08,0.72   C56.095,22.996,54.831,21.551,53.332,21.605z"/>
	<path fill-rule="evenodd" clip-rule="evenodd" fill="#EFF0F0" d="M62.692,23.765c-1.305,0.53-4.165-0.916-4.32-0.96   C56.763,22.352,60.806,23.154,62.692,23.765z"/>
	<path fill-rule="evenodd" clip-rule="evenodd" fill="#EFF0F0" d="M16.372,28.565c0.24,0,0.48,0,0.72,0   c0.081,19.377,0.823,46.906-0.24,69.84c-0.602-12.319-0.769-25.353-0.72-34.56c0.052-9.867-0.016-21.353,0-34.56   C16.259,29.092,16.382,28.896,16.372,28.565z"/>
	<path fill-rule="evenodd" clip-rule="evenodd" fill="#EFF0F0" d="M98.932,30.245c-1.365,0.315-2.336,1.024-3.36,1.68   c-1.841-0.319-3.112-1.208-5.04-1.44C92.244,28.178,96.794,28.281,98.932,30.245z"/>
	<path fill-rule="evenodd" clip-rule="evenodd" fill="#6A737B" d="M154.612,65.525c-8.529,4.991-17.553,9.486-25.68,14.88   c1.181,0.496,2.216-0.693,3.12-1.2c5.511-3.095,10.723-6.414,16.8-9.6c2.146-1.125,5.082-3.418,6.96-3.6   c2.556-0.248,7.519,1.701,11.04,2.64c10.533,2.809,21.666,5.866,31.68,8.64c42.076,11.655,86.982,22.241,127.2,34.32   c0.414,1.185,0.578,2.621,0.479,4.32c-31.259,18.021-63.66,34.899-94.08,53.76c2.106-0.208,4.053-1.762,6-2.88   c1.966-1.128,3.937-2.268,5.76-3.36c19.953-12.2,41.042-23.349,61.681-35.04c5.132-2.907,10.078-5.776,15.6-8.64   c1.689-0.876,3.112-2.202,5.04-2.4c-0.105,13.6-0.406,34.5,0,49.92c1.044,39.602-0.354,89.41,0.479,131.52   c-10.586,6.693-22.161,12.398-33.359,18.48c3.075-0.506,5.787-2.4,8.64-3.841c5.547-2.801,11.265-5.887,16.8-8.88   c2.713-1.467,4.941-3.769,7.92-4.319c-0.085,20.159,0.103,45.417,0,63.119c-28.394-6.806-55.303-15.097-83.279-22.319   c11.415-6.905,22.963-13.677,34.32-20.641c-1.619-0.608-2.989,1.14-4.32,1.92c-4.268,2.503-9.146,5.304-13.44,7.921   c-5.699,3.739-11.957,6.922-17.76,10.56c-37.211-9.874-74.039-20.377-111.6-29.76c-36.056-9.007-72.491-20.632-109.2-29.28   c21.001-13.399,44.367-24.432,65.28-37.92c16.924-8.916,33.159-18.521,49.68-27.84c3.388-0.933,5.262-3.378,8.64-4.32   c2.182-2.058,5.819-2.66,7.68-5.04c-2.305,0.509-4.18,1.979-6.24,3.12c-14.65,8.121-29.336,16.203-44.16,24.48   c-16.64,9.291-32.685,19.961-49.92,28.32c-5.291,3.446-11.059,6.305-16.56,9.601c-5.398,3.234-10.548,7.056-16.32,9.12   c-0.756-45.605-0.752-94.303-0.72-145.92c10.519-6,20.9-12.334,31.68-18.24c3.538-1.938,7.326-3.533,10.56-6   c-3.859,0.984-7.06,3.688-10.56,5.52c-10.627,5.562-21.297,11.757-31.68,17.76c-0.286-30.443-0.363-70.833-0.48-104.64   c-0.175-0.392,0.477-1.044,0.48-0.48C64.624,40.792,109.024,53.755,154.612,65.525z M145.252,67.925   c-19.136,10.544-37.491,21.868-57.12,31.92c-1.652,2.108-5.047,2.473-6.48,4.8c1.657-0.103,2.549-1.373,3.84-2.16   c12.925-7.877,27.54-14.521,40.8-22.8c4.987-3.114,10.043-5.858,15.12-8.64c1.464-0.802,3.288-1.703,4.32-3.12   C145.572,67.925,145.412,67.925,145.252,67.925z M115.492,82.565c0.4,0,0.8,0,1.2,0c-0.054-0.454,0.271-0.53,0.24-0.96   C116.127,81.601,115.332,81.605,115.492,82.565z M125.092,83.045c0.754,0.114,0.981-0.299,1.2-0.72   C125.798,81.828,125.075,82.326,125.092,83.045z M111.892,84.245c-10.976,5.76-21.444,11.643-31.92,18   c-10.056,6.103-20.247,11.881-30.48,17.52c-2.337,1.288-5.213,2.307-6.96,4.56c11.615-5.923,22.725-12.391,33.6-19.2   c11.046-6.916,22.628-12.631,34.08-18.96c0.836-0.462,1.601-0.971,2.16-1.92C112.212,84.245,112.052,84.245,111.892,84.245z    M62.692,110.405c0.855,0.055,1.255-0.345,1.2-1.2C63.061,109.174,62.499,109.412,62.692,110.405z M282.052,138.005   c-32.366,17.795-63.824,36.495-95.76,54.72c-11.126,5.578-21.658,12.428-32.16,18.24c-1.448,0.802-3.358,1.644-4.32,3.12   c10.353-4.926,19.801-11.568,29.76-17.04c10.078-5.538,20.13-10.898,29.76-17.04c24.987-13.334,48.439-28.2,73.2-41.76   C282.479,138.058,282.331,137.966,282.052,138.005z M251.332,152.645c0.611,0.314,1.744-0.556,1.92-1.44   C252.535,151.608,251.412,151.605,251.332,152.645z M248.212,154.085c-1.873,1.663-4.353,2.721-6.72,4.08   c-2.03,1.165-3.986,2.665-6,3.84c-12.631,7.375-26.079,13.946-38.4,21.36c-8.321,5.007-16.707,9.868-25.2,14.4   c-8.652,4.617-16.812,10.018-25.2,14.64c-25.781,14.207-51.334,28.29-76.08,43.2c-6.319,3.808-13.08,6.977-19.2,10.561   c-2.001,1.171-4.692,1.93-6,4.08c59.943-33.413,119.302-67.421,178.8-101.28c4.223-2.417,8.595-4.685,12.72-7.2   c2.104-1.257,4.086-2.634,6.48-3.6c1.378-1.678,5.023-2.314,5.52-4.08c-0.16,0-0.319,0-0.479,0   C248.372,154.085,248.292,154.085,248.212,154.085z M227.332,172.565c0.964-0.076,1.646-0.434,1.92-1.2   C228.279,171.432,227.3,171.493,227.332,172.565z M156.052,204.725c1.368,0.248,1.244-0.996,2.4-0.96   C158.409,202.475,155.96,203.636,156.052,204.725z M307.972,306.725c-4.934,2.506-9.348,5.532-14.88,7.44   c-0.964,1.436-3.158,1.642-4.32,2.88c-0.319,0-0.64,0-0.96,0c-10.809,5.991-20.944,12.655-31.68,18.72   c-1.021,1.169-4.224,1.336-4.08,2.88c1.989-0.731,3.728-1.712,5.28-2.88c10.025-5.145,18.968-11.705,28.56-16.8   c6.097-3.238,13.087-6.743,18.96-9.84c1.268-0.669,2.863-0.794,3.601-2.4C308.292,306.725,308.132,306.725,307.972,306.725z    M279.652,318.965c0.548,0.52,1.497,0.087,1.439-0.72C280.243,318.117,279.855,318.449,279.652,318.965z M288.052,320.405   c0.871,0.44,1.899-0.74,2.641-1.199C289.953,318.898,288.346,319.499,288.052,320.405z"/>
	<path fill-rule="evenodd" clip-rule="evenodd" fill="#EFF0F0" d="M222.771,62.885c-2.929,3.103-7.792,1.03-13.199-0.24   c-9.245-2.171-18.688-5.513-28.32-8.16c-4.786-1.315-9.636-2.557-14.4-3.84c-22.755-6.13-47.902-12.459-70.32-18.48   c3.464-3.647,9-0.253,13.44,0.96c15.444,4.219,31.644,8.016,47.76,12C179.733,50.563,200.26,57.758,222.771,62.885z"/>
	<path fill-rule="evenodd" clip-rule="evenodd" fill="#EFF0F0" d="M90.772,32.166c0.751-0.813,1.509,0.397,2.4,0.24   C92.425,33.214,91.83,31.841,90.772,32.166z"/>
	<path fill-rule="evenodd" clip-rule="evenodd" fill="#EFF0F0" d="M116.212,38.885c0.57-0.708,1.454,0.29,2.16,0.24   C117.813,39.822,117.079,38.674,116.212,38.885z"/>
	<path fill-rule="evenodd" clip-rule="evenodd" fill="#EFF0F0" d="M126.532,41.525c1.265-0.618,2.659,0.696,4.08,0.72   C129.295,42.916,128.031,41.471,126.532,41.525z"/>
	<path fill-rule="evenodd" clip-rule="evenodd" fill="#EFF0F0" d="M142.372,45.365c1.307-0.422,2.812,1.024,4.56,0.96   C145.503,46.87,143.728,45.693,142.372,45.365z"/>
	<path fill-rule="evenodd" clip-rule="evenodd" fill="#EFF0F0" d="M152.692,48.245c1.109-0.621,2.378,0.657,3.6,0.72   C155.305,49.465,153.952,48.271,152.692,48.245z"/>
	<path fill-rule="evenodd" clip-rule="evenodd" fill="#EFF0F0" d="M167.812,52.565c0.808-0.714,1.775,0.454,2.64,0.48   C169.769,53.635,168.78,52.488,167.812,52.565z"/>
	<path fill-rule="evenodd" clip-rule="evenodd" fill="#EFF0F0" d="M173.332,53.765C171.36,54.269,170.624,52.529,173.332,53.765   L173.332,53.765z"/>
	<path fill-rule="evenodd" clip-rule="evenodd" fill="#EFF0F0" d="M189.892,58.805c1.123-0.555,2.584,0.611,3.841,0.72   C192.481,60.208,191.298,58.765,189.892,58.805z"/>
	<path fill-rule="evenodd" clip-rule="evenodd" fill="#EFF0F0" d="M229.252,64.565c-2.197,2.627-5.133,1.352-8.64,0.72   C222.374,62.796,226.439,63.436,229.252,64.565z"/>
	<path fill-rule="evenodd" clip-rule="evenodd" fill="#EFF0F0" d="M210.532,64.085c1.693-0.57,3.47,0.847,5.279,0.96   C214.09,65.644,212.381,64.16,210.532,64.085z"/>
	<path fill-rule="evenodd" clip-rule="evenodd" fill="#EFF0F0" d="M226.372,67.685c-1.312,0.437-5.774-1.284-4.561-1.2   C222.575,66.538,224.847,67.271,226.372,67.685z"/>
	<path fill-rule="evenodd" clip-rule="evenodd" d="M145.732,67.925c-1.032,1.417-2.855,2.318-4.32,3.12   c-5.077,2.781-10.133,5.526-15.12,8.64c-13.26,8.279-27.875,14.923-40.8,22.8c-1.291,0.787-2.184,2.057-3.84,2.16   c1.433-2.327,4.828-2.691,6.48-4.8c19.629-10.052,37.984-21.376,57.12-31.92C145.412,67.925,145.572,67.925,145.732,67.925z"/>
	<path fill-rule="evenodd" clip-rule="evenodd" fill="#EFF0F0" d="M242.212,72.005c1.464-0.579,3.028,0.808,4.56,0.96   C245.287,73.565,243.704,72.197,242.212,72.005z"/>
	<path fill-rule="evenodd" clip-rule="evenodd" fill="#EFF0F0" d="M247.252,73.445c1.566-0.682,2.805,1.032,4.56,0.96   C250.253,75.08,248.872,73.509,247.252,73.445z"/>
	<path fill-rule="evenodd" clip-rule="evenodd" fill="#EFF0F0" d="M274.852,81.365c1.666-0.701,3.15,0.846,4.801,0.96   C278.11,82.903,276.336,81.645,274.852,81.365z"/>
	<path fill-rule="evenodd" clip-rule="evenodd" d="M116.932,81.605c0.03,0.43-0.294,0.506-0.24,0.96c-0.4,0-0.8,0-1.2,0   C115.332,81.605,116.127,81.601,116.932,81.605z"/>
	<path fill-rule="evenodd" clip-rule="evenodd" d="M126.292,82.325c-0.219,0.421-0.446,0.834-1.2,0.72   C125.075,82.326,125.798,81.828,126.292,82.325z"/>
	<path fill-rule="evenodd" clip-rule="evenodd" d="M112.372,84.245c-0.56,0.95-1.324,1.458-2.16,1.92   c-11.452,6.329-23.034,12.044-34.08,18.96c-10.875,6.809-21.985,13.276-33.6,19.2c1.747-2.253,4.623-3.272,6.96-4.56   c10.233-5.639,20.424-11.417,30.48-17.52c10.476-6.357,20.944-12.24,31.92-18C112.052,84.245,112.212,84.245,112.372,84.245z"/>
	<path fill-rule="evenodd" clip-rule="evenodd" fill="#EFF0F0" d="M295.492,86.885c1.645-0.759,3.065,0.771,4.8,0.72   C298.69,88.322,297.177,86.884,295.492,86.885z"/>
	<path fill-rule="evenodd" clip-rule="evenodd" fill="#EFF0F0" d="M300.532,88.085c1.964-0.761,3.504,0.973,5.52,0.96   C304.257,89.637,302.367,88.253,300.532,88.085z"/>
	<path fill-rule="evenodd" clip-rule="evenodd" fill="#EFF0F0" d="M306.292,89.525c1.471-0.666,3.041,0.635,4.56,0.72   C309.449,90.843,307.872,89.55,306.292,89.525z"/>
	<path fill-rule="evenodd" clip-rule="evenodd" fill="#EFF0F0" d="M321.892,93.365c1.253-0.606,2.871,0.484,4.08,0.72   C324.774,94.636,323.339,93.363,321.892,93.365z"/>
	<path fill-rule="evenodd" clip-rule="evenodd" d="M344.932,97.445c0,0.24,0,0.48,0,0.72c-0.502,0.102-0.635-0.165-0.96-0.24   C344.029,97.503,344.385,97.378,344.932,97.445z"/>
	<path fill-rule="evenodd" clip-rule="evenodd" fill="#EFF0F0" d="M16.852,98.645c0.921,0.524,0.507,3.646,0.24,4.56   C15.738,102.916,16.343,99.362,16.852,98.645z"/>
	<path fill-rule="evenodd" clip-rule="evenodd" fill="#EFF0F0" d="M17.092,103.685c0.204-0.044,0.226,0.094,0.24,0.24   c-0.182,18.362,0.171,34.4,0.24,50.4c0.044,10.316,0.046,27.903,0,42c-0.006,1.668,0.6,3.987-0.72,5.28   c-0.342-25.147-0.183-68.71-0.48-97.439C16.566,103.959,17.029,104.022,17.092,103.685z"/>
	<path fill-rule="evenodd" clip-rule="evenodd" d="M63.892,109.205c0.055,0.855-0.345,1.255-1.2,1.2   C62.499,109.412,63.061,109.174,63.892,109.205z"/>
	<path fill-rule="evenodd" clip-rule="evenodd" d="M282.532,138.245c-24.761,13.56-48.213,28.426-73.2,41.76   c-9.63,6.142-19.682,11.502-29.76,17.04c-9.959,5.472-19.408,12.114-29.76,17.04c0.961-1.477,2.872-2.318,4.32-3.12   c10.502-5.812,21.034-12.662,32.16-18.24c31.936-18.225,63.394-36.925,95.76-54.72   C282.331,137.966,282.479,138.058,282.532,138.245z"/>
	<path fill-rule="evenodd" clip-rule="evenodd" d="M253.252,151.205c-0.176,0.884-1.309,1.754-1.92,1.44   C251.412,151.605,252.535,151.608,253.252,151.205z"/>
	<path fill-rule="evenodd" clip-rule="evenodd" d="M248.452,154.085c0.16,0,0.319,0,0.479,0c-0.496,1.766-4.142,2.401-5.52,4.08   c-2.395,0.966-4.377,2.343-6.48,3.6c-4.125,2.515-8.497,4.783-12.72,7.2c-59.498,33.859-118.857,67.867-178.8,101.28   c1.308-2.15,3.999-2.909,6-4.08c6.12-3.584,12.881-6.753,19.2-10.561c24.745-14.91,50.299-28.993,76.08-43.2   c8.388-4.622,16.548-10.023,25.2-14.64c8.493-4.532,16.878-9.393,25.2-14.4c12.321-7.414,25.77-13.985,38.4-21.36   c2.014-1.176,3.97-2.675,6-3.84c2.367-1.359,4.847-2.417,6.72-4.08C248.292,154.085,248.372,154.085,248.452,154.085z"/>
	<path fill-rule="evenodd" clip-rule="evenodd" d="M229.252,171.365c-0.273,0.767-0.956,1.124-1.92,1.2   C227.3,171.493,228.279,171.432,229.252,171.365z"/>
	<path fill-rule="evenodd" clip-rule="evenodd" fill="#EFF0F0" d="M16.852,202.325c0.24,0,0.48,0,0.72,0   c-0.076,1.811,0.338,2.918,0,4.08C16.059,206.319,17.213,203.564,16.852,202.325z"/>
	<path fill-rule="evenodd" clip-rule="evenodd" d="M158.452,203.765c-1.156-0.036-1.032,1.208-2.4,0.96   C155.96,203.636,158.409,202.475,158.452,203.765z"/>
	<path fill-rule="evenodd" clip-rule="evenodd" fill="#EFF0F0" d="M17.332,206.885c0.204-0.044,0.227,0.094,0.24,0.24   c0.376,25.638,0.37,44.951,0.48,70.08c0.005,1.136,0.619,2.868-0.72,3.6c-0.096-23.914-0.417-48.938-0.48-73.2   C17.076,207.429,17.216,207.169,17.332,206.885z"/>
	<path fill-rule="evenodd" clip-rule="evenodd" d="M13.732,225.365c0.973-0.093,0.265,1.496,0.48,2.16   C13.034,227.655,13.56,225.939,13.732,225.365z"/>
	<path fill-rule="evenodd" clip-rule="evenodd" fill="#EFF0F0" d="M357.412,257.045c-2.634,1.206-4.95,2.729-7.92,3.6   c0-1.28,0-2.56,0-3.84c2.294-0.438,5.289-2.003,7.439-3.36C358.014,254.249,357.239,255.582,357.412,257.045z"/>
	<path fill-rule="evenodd" clip-rule="evenodd" fill="#EFF0F0" d="M357.412,261.365c-2.527,1.232-5.055,2.466-7.68,3.601   c-0.252-1.547-0.075-2.033-0.24-3.601c2.661-0.938,4.951-2.249,7.439-3.359C357.977,258.24,357.146,260.351,357.412,261.365z"/>
	<path fill-rule="evenodd" clip-rule="evenodd" fill="#EFF0F0" d="M348.532,262.085c0,1.12,0,2.239,0,3.359   c-0.941,0.739-2.214,1.147-3.601,1.44c-0.048-1.214-0.188-2.332,0-3.6C346.193,262.946,347.046,262.199,348.532,262.085z"/>
	<path fill-rule="evenodd" clip-rule="evenodd" fill="#EFF0F0" d="M357.412,262.325c1.752,4.516-4.555,5.37-7.68,7.2   c-0.406-0.954-0.188-2.531-0.24-3.84C352.274,264.708,354.473,263.146,357.412,262.325z"/>
	<path fill-rule="evenodd" clip-rule="evenodd" fill="#EFF0F0" d="M348.532,266.405c0,1.28,0,2.561,0,3.841   c-1.438,0.241-1.926,1.434-3.601,1.439c0-1.36,0-2.72,0-4.08C346.676,267.749,346.758,266.232,348.532,266.405z"/>
	<path fill-rule="evenodd" clip-rule="evenodd" fill="#EFF0F0" d="M357.652,270.246c-2.426,1.574-5.017,2.983-7.92,4.079   c0.009-2.27-0.365-2.254,0-4.079c2.552-1.048,4.895-2.306,7.199-3.601C358.409,267.125,356.877,269.124,357.652,270.246z"/>
	<path fill-rule="evenodd" clip-rule="evenodd" fill="#EFF0F0" d="M348.052,271.206c1.065,0.454,0.2,2.84,0.48,4.08   c-1.249,0.431-2.3,1.061-3.601,1.439c-0.119-1.777,0.003-2.366,0-4.32C346.155,272.189,346.991,271.584,348.052,271.206z"/>
	<path fill-rule="evenodd" clip-rule="evenodd" fill="#EFF0F0" d="M348.532,276.005c0,1.28,0,2.56,0,3.84   c-1.279,0.321-2.064,1.136-3.36,1.44c-0.555-0.806-0.084-2.637-0.24-3.841C346.172,277.005,347.312,276.465,348.532,276.005z"/>
	<path fill-rule="evenodd" clip-rule="evenodd" d="M9.652,277.445c0.766-0.016,0.623,1.509,0.48,1.681   C9.051,278.951,9.76,278.377,9.652,277.445z"/>
	<path fill-rule="evenodd" clip-rule="evenodd" fill="#EFF0F0" d="M348.052,280.565c0.975,0.466,0.263,2.618,0.48,3.84   c-1.32,0.28-2.288,0.912-3.601,1.2c0-1.2,0-2.399,0-3.6C345.965,281.518,347.122,281.156,348.052,280.565z"/>
	<path fill-rule="evenodd" clip-rule="evenodd" fill="#EFF0F0" d="M18.772,282.246c0.168,0.83-0.841,0.86-1.2,0.479   C17.607,282.201,18.177,282.209,18.772,282.246z"/>
	<path fill-rule="evenodd" clip-rule="evenodd" fill="#EFF0F0" d="M74.932,297.365c-4.828-0.518-9.57-2.087-14.4-3.359   c-4.838-1.275-9.723-2.436-14.64-3.601c-8.314-1.969-17.683-4.937-26.16-6.96c-0.408,0.089-0.453-0.187-0.48-0.479   c0.194-0.046,0.239-0.241,0.48-0.24C38.164,287.574,57.52,291.498,74.932,297.365z"/>
	<path fill-rule="evenodd" clip-rule="evenodd" fill="#EFF0F0" d="M75.652,297.125c1.871,0.369,3.238,1.241,5.28,1.439   c-1.252,1.785-3.624-0.611-5.52-0.479C75.382,297.655,75.706,297.579,75.652,297.125z"/>
	<path fill-rule="evenodd" clip-rule="evenodd" fill="#EFF0F0" d="M216.052,335.286c-1.275,0.767-4.569-0.097-5.52-1.2   c-5.532-0.585-10.904-2.313-16.32-3.84c-15.396-4.341-31.76-9.255-48.24-13.2c-1.249-0.299-2.361-1.136-3.6-1.44   c-20.372-5.004-40.969-9.402-60.48-15.84c-0.408,0.089-0.453-0.188-0.48-0.479c1.676-0.199,4.625,0.307,5.52,1.68   c5.865,0.634,12.117,2.937,18.24,4.56c15.491,4.107,32.028,8.031,48,12.24C174.458,323.375,195.521,329.557,216.052,335.286z"/>
	<path fill-rule="evenodd" clip-rule="evenodd" fill="#EFF0F0" d="M261.652,359.765c-1.295,2.498-1.532,6.396-0.48,9.36   c-37.398-8.735-73.304-19.937-110.4-29.28c-15.431-3.887-31.258-8.08-46.8-12.72c4.069-1.515,3.06-8.18-0.96-8.16   c-3.724,0.018-3.701,4.709-1.68,7.2c-14.283-4.016-31.387-8.501-47.52-12.48c-1.652-0.407-5.378-1.319-6-2.399   c-1.397-2.428-0.174-6.811,1.2-8.881c27.542,8.059,56.932,14.268,84.24,22.561c10.754,2.337,21.286,5.864,31.92,8.88   c10.714,3.038,21.573,5.802,32.4,8.4C219.27,347.452,240.458,354.078,261.652,359.765z M52.612,309.845   c0.12-0.933-1.587-1.277-2.16-0.72C50.865,309.671,51.571,309.926,52.612,309.845z M75.172,315.605   c5.343,1.365,10.449,3.572,15.84,3.84c-11.781-3.179-24.29-6.91-36.24-9.12C61.215,312.669,68.194,313.822,75.172,315.605z    M95.332,320.885c0.073-0.633-0.501-0.619-0.96-0.72C94.131,320.966,94.705,320.952,95.332,320.885z M110.692,325.206   c0.232-0.953-0.695-0.745-1.2-0.96C109.339,325.119,109.989,325.188,110.692,325.206z M113.332,325.206   c-0.187,0.053-0.279,0.2-0.24,0.479c0,0.241,0.195,0.286,0.24,0.48c23.384,7.309,47.893,12.353,71.76,19.199   c20.835,5.978,41.585,11.566,62.4,17.04c2.903,0.764,5.601,2.278,8.64,1.92C209.23,350.583,160.273,338.906,113.332,325.206z    M259.732,365.525c0.311-0.89-1.422-0.953-1.681-0.479C258.454,365.364,258.856,365.681,259.732,365.525z"/>
	<path fill-rule="evenodd" clip-rule="evenodd" d="M308.452,306.725c-0.737,1.606-2.333,1.731-3.601,2.4   c-5.873,3.097-12.863,6.602-18.96,9.84c-9.592,5.095-18.534,11.655-28.56,16.8c-1.553,1.168-3.291,2.148-5.28,2.88   c-0.144-1.544,3.06-1.711,4.08-2.88c10.735-6.064,20.871-12.729,31.68-18.72c0.32,0,0.641,0,0.96,0   c1.162-1.238,3.356-1.444,4.32-2.88c5.532-1.908,9.946-4.935,14.88-7.44C308.132,306.725,308.292,306.725,308.452,306.725z"/>
	<path fill-rule="evenodd" clip-rule="evenodd" d="M50.452,309.125c0.573-0.558,2.28-0.213,2.16,0.72   C51.571,309.926,50.865,309.671,50.452,309.125z"/>
	<path fill-rule="evenodd" clip-rule="evenodd" d="M54.772,310.325c11.951,2.21,24.459,5.941,36.24,9.12   c-5.391-0.268-10.498-2.475-15.84-3.84C68.194,313.822,61.215,312.669,54.772,310.325z"/>
	<path fill-rule="evenodd" clip-rule="evenodd" d="M281.092,318.246c0.058,0.807-0.892,1.239-1.439,0.72   C279.855,318.449,280.243,318.117,281.092,318.246z"/>
	<path fill-rule="evenodd" clip-rule="evenodd" d="M290.692,319.206c-0.741,0.459-1.77,1.64-2.641,1.199   C288.346,319.499,289.953,318.898,290.692,319.206z"/>
	<path fill-rule="evenodd" clip-rule="evenodd" d="M94.372,320.166c0.459,0.101,1.033,0.087,0.96,0.72   C94.705,320.952,94.131,320.966,94.372,320.166z"/>
	<path fill-rule="evenodd" clip-rule="evenodd" fill="#6DB33F" d="M102.292,320.885c0.608,1.071-0.207,3.567,0.96,4.08   C101.421,325.957,101.014,321.682,102.292,320.885z"/>
	<path fill-rule="evenodd" clip-rule="evenodd" fill="#6DB33F" d="M104.932,320.885c0.56,1.033,0.7,3.093,0,4.08   C103.588,324.694,102.56,320.736,104.932,320.885z"/>
	<path fill-rule="evenodd" clip-rule="evenodd" d="M109.492,324.246c0.505,0.215,1.432,0.007,1.2,0.96   C109.989,325.188,109.339,325.119,109.492,324.246z"/>
	<path fill-rule="evenodd" clip-rule="evenodd" d="M256.132,364.325c-3.039,0.358-5.736-1.156-8.64-1.92   c-20.815-5.474-41.565-11.062-62.4-17.04c-23.867-6.847-48.376-11.891-71.76-19.199c-0.045-0.194-0.241-0.239-0.24-0.48   c-0.039-0.279,0.053-0.427,0.24-0.479C160.273,338.906,209.23,350.583,256.132,364.325z"/>
	<path fill-rule="evenodd" clip-rule="evenodd" d="M171.172,326.166c1-0.265,1,1.704,0,1.439   C171.172,327.125,171.172,326.645,171.172,326.166z"/>
	<path fill-rule="evenodd" clip-rule="evenodd" d="M163.012,328.085c0.722-0.242,0.425,0.534,0.48,0.96c-0.24,0-0.48,0-0.72,0   C162.67,328.543,162.937,328.41,163.012,328.085z"/>
	<path fill-rule="evenodd" clip-rule="evenodd" fill="#EFF0F0" d="M199.012,354.485c0.889,4.133-0.604,8.145,0.48,10.32   c0.559-2.801,0.08-6.64,0.24-9.84c2.4,0.398,4.418,1.182,6.72,1.68c0.159,3.681-0.319,7.999,0.24,11.28   c1.112-3.192,0.058-7.537,0.479-11.04c26.65,7.307,60.128,15.519,86.16,22.56c1.194,0.323,2.173,1.165,3.36,1.2   c2.623,0.079,4.565-2.003,6.96-2.399c0.093,4.197-0.098,5.908,0.479,9.359c-21.558,3.352-51.482,3.062-73.92-1.439   c-9.999-2.007-22.044-6.093-29.04-11.761c-1.93-1.563-4.763-4.792-5.28-6.72c-0.589-2.196,0.397-4.071,0.721-6.479   c0.302-2.254-0.232-4.891,0-6.96C197.033,353.944,198.285,354.349,199.012,354.485z M206.932,372.246   c0.417-0.446,0.31-1.721-0.239-1.921C206.369,370.676,206.201,372.226,206.932,372.246z"/>
	<path fill-rule="evenodd" clip-rule="evenodd" fill="#EFF0F0" d="M293.092,367.685c-1.786,2.019-2.35,7.153-0.72,9.84   c-9.313-2.206-18.284-4.756-27.36-7.2c-1.469-2.213-2.183-7.339,0-9.359C274.741,362.835,283.436,365.742,293.092,367.685z    M267.412,367.445c0.156-0.812-1.562-0.976-1.92-0.479C265.88,367.377,266.496,367.561,267.412,367.445z M270.532,368.405   c5.408,1.553,10.935,2.985,16.56,4.32c-1.672-1.182-4.098-1.854-6.24-2.4c-3.682-0.938-7.544-1.525-11.04-2.64   C269.769,368.208,270.009,368.449,270.532,368.405z M290.212,372.965C288.584,371.989,288.756,373.885,290.212,372.965   L290.212,372.965z"/>
	<path fill-rule="evenodd" clip-rule="evenodd" fill="#EFF0F0" d="M194.212,362.405c0.59,1.468,0.167,3.72,0.72,5.521   c2.588,8.426,13.42,12.744,22.561,15.84c23.352,7.909,60.104,8.817,85.92,5.04c-7.301,18.935-14.493,35.803-21.84,54.72   c-1.076,2.77-1.94,5.863-3.36,9.36c-1.034,2.549-2.791,7.464-4.32,8.399c-2.161,1.323-8.812,0.48-13.439,0.48   c-30.932,0.001-63.6-4.226-90.96-8.88c-11.027-1.876-23.003-4.919-34.08-7.68c-11.066-2.759-22.305-5.301-32.16-9.36   c-16.61-6.843-32.545-15.469-45.6-27.12c-1.705-1.521-5.258-4.177-5.04-5.28c0.269-1.362,5.678-2.353,8.4-3.12   c8.801-2.48,17.665-5.418,26.16-7.68c33.101-8.811,64.499-18.432,96.96-27.6c3.295-0.931,7.088-1.327,9.84-2.641   C194.052,362.405,194.132,362.405,194.212,362.405z M196.372,385.206c-0.946-0.414-2.022-0.697-3.12-0.961   C193.203,385.566,196.047,386.478,196.372,385.206z M200.452,387.125c12.788,2.989,25.897,5.943,38.88,8.399   c1.766,0.334,4.053,1.905,6,0.72c-15.228-3.252-30.091-6.869-45.36-10.079C199.797,386.82,200.449,386.648,200.452,387.125z    M134.932,395.045c0.852,0.988,2.437,1.243,3.84,1.68C138.708,395.065,135.764,395.153,134.932,395.045z M249.172,396.965   c0,0.24,0,0.479,0,0.72c0.925,0.273,2.084,0.773,3.12,0.24C252.236,396.708,250.068,396.569,249.172,396.965z M211.012,415.445   c-5.992-1.03-12.084-2.561-18-3.84c-17.919-3.875-35.769-9.417-51.6-14.64c-0.187,0.053-0.279,0.201-0.24,0.479   c30.916,11.146,65.453,19.189,102.72,23.28C233.025,418.282,221.717,417.286,211.012,415.445z M82.372,403.206   c-1.045-0.636-1.964-1.396-3.12-1.921C79.523,402.491,81.755,403.9,82.372,403.206z M88.372,408.005   c11.114,6.345,23.514,11.88,36.96,15.12c13.398,3.229,27.27,7.019,42,9.84c29.034,5.562,60.713,9.408,93.84,9.84   c-1.32-1.334-3.523-0.72-5.04-0.72c-13.488,0-25.819-1.697-38.64-2.641c-14.35-1.056-28.294-3.291-41.76-5.279   c-3.836-0.567-7.664-1.928-11.52-2.641c-3.973-0.734-7.911-1.498-11.76-2.399c-23.192-5.436-45.879-10.738-63.84-21.601   c-0.053-0.187-0.201-0.278-0.48-0.24C87.863,407.63,87.873,407.871,88.372,408.005z M251.572,421.685   c0.375,0.831,3.102,0.569,3.84,0.24C254.53,421.701,252.206,420.582,251.572,421.685z M269.812,442.565   c0.398,0.402,1.409,0.191,2.16,0.24C272.245,441.746,269.855,441.844,269.812,442.565z"/>
	<path fill-rule="evenodd" clip-rule="evenodd" d="M258.052,365.045c0.259-0.474,1.991-0.41,1.681,0.479   C258.856,365.681,258.454,365.364,258.052,365.045z"/>
	<path fill-rule="evenodd" clip-rule="evenodd" d="M265.492,366.965c0.357-0.496,2.076-0.332,1.92,0.479   C266.496,367.561,265.88,367.377,265.492,366.965z"/>
	<path fill-rule="evenodd" clip-rule="evenodd" d="M269.812,367.685c3.496,1.114,7.358,1.701,11.04,2.64   c2.143,0.547,4.568,1.219,6.24,2.4c-5.625-1.335-11.151-2.768-16.56-4.32C270.009,368.449,269.769,368.208,269.812,367.685z"/>
	<path fill-rule="evenodd" clip-rule="evenodd" d="M206.692,370.325c0.549,0.2,0.656,1.475,0.239,1.921   C206.201,372.226,206.369,370.676,206.692,370.325z"/>
	<path fill-rule="evenodd" clip-rule="evenodd" fill="#EFF0F0" d="M293.572,372.005c0.544,0.255,0.091,1.509,0.239,2.16   C292.896,374.277,293.357,372.291,293.572,372.005z"/>
	<path fill-rule="evenodd" clip-rule="evenodd" d="M290.212,372.965C288.756,373.885,288.584,371.989,290.212,372.965   L290.212,372.965z"/>
	<path fill-rule="evenodd" clip-rule="evenodd" fill="#EFF0F0" d="M293.572,374.405c0.932,1.229,3.136,1.185,4.8,1.681   c0,0.72,0,1.439,0,2.16C295.336,379.148,293.67,377.179,293.572,374.405z"/>
	<path fill-rule="evenodd" clip-rule="evenodd" fill="#EFF0F0" d="M311.812,379.925c0.16,0,0.32,0,0.48,0   c0.892,3.412,1.191,7.267,1.2,10.56c0.009,3.49-0.636,6.91-1.92,9.84c-5.748,13.108-14.749,26.515-20.88,39.601   c1.294-4.866,4.662-9.737,6.72-14.641c3.466-6.895,7.505-14.41,11.04-22.079c2.847-6.177,5.186-13.259,3.359-22.561   C311.812,380.405,311.812,380.166,311.812,379.925z"/>
	<path fill-rule="evenodd" clip-rule="evenodd" d="M307.972,380.885c2.558,11.76-3.919,20.454-7.68,29.28   c-2.41,5.655-5.062,11.119-7.68,15.84c3.648-8.524,7.355-16.86,11.279-25.44c1.25-2.732,3.151-5.529,3.841-8.399   C308.577,388.644,307.27,384.836,307.972,380.885z"/>
	<path fill-rule="evenodd" clip-rule="evenodd" d="M193.252,384.245c1.098,0.264,2.174,0.547,3.12,0.961   C196.047,386.478,193.203,385.566,193.252,384.245z"/>
	<path fill-rule="evenodd" clip-rule="evenodd" d="M199.972,386.166c15.27,3.21,30.133,6.827,45.36,10.079   c-1.947,1.186-4.234-0.386-6-0.72c-12.982-2.456-26.092-5.41-38.88-8.399C200.449,386.648,199.797,386.82,199.972,386.166z"/>
	<path fill-rule="evenodd" clip-rule="evenodd" d="M138.772,396.725c-1.403-0.437-2.988-0.691-3.84-1.68   C135.764,395.153,138.708,395.065,138.772,396.725z"/>
	<path fill-rule="evenodd" clip-rule="evenodd" d="M252.292,397.925c-1.036,0.533-2.195,0.033-3.12-0.24c0-0.24,0-0.479,0-0.72   C250.068,396.569,252.236,396.708,252.292,397.925z"/>
	<path fill-rule="evenodd" clip-rule="evenodd" d="M243.892,420.725c-37.267-4.091-71.804-12.134-102.72-23.28   c-0.039-0.278,0.053-0.427,0.24-0.479c15.831,5.223,33.681,10.765,51.6,14.64c5.916,1.279,12.008,2.81,18,3.84   C221.717,417.286,233.025,418.282,243.892,420.725z"/>
	<path fill-rule="evenodd" clip-rule="evenodd" d="M79.252,401.285c1.156,0.524,2.075,1.285,3.12,1.921   C81.755,403.9,79.523,402.491,79.252,401.285z"/>
	<path fill-rule="evenodd" clip-rule="evenodd" d="M88.132,407.285c0.279-0.038,0.427,0.054,0.48,0.24   c17.96,10.862,40.648,16.165,63.84,21.601c3.849,0.901,7.787,1.665,11.76,2.399c3.856,0.713,7.684,2.073,11.52,2.641   c13.466,1.988,27.411,4.224,41.76,5.279c12.82,0.943,25.151,2.641,38.64,2.641c1.517,0,3.72-0.614,5.04,0.72   c-33.127-0.432-64.806-4.278-93.84-9.84c-14.73-2.821-28.602-6.611-42-9.84c-13.446-3.24-25.846-8.775-36.96-15.12   C87.873,407.871,87.863,407.63,88.132,407.285z"/>
	<path fill-rule="evenodd" clip-rule="evenodd" d="M187.492,459.125c-4.031,0.165-8.103-0.554-12-1.2   c-13.436-2.231-26.456-5.776-38.88-8.88c-13.984-3.494-27.801-7.407-40.56-12.24c-16.917-6.408-30.905-16.458-43.44-26.88   c0-0.24,0-0.48,0-0.72c0.213-0.148,0.429-0.29,0.48,0C84.37,439.366,135.522,449.657,187.492,459.125z"/>
	<path fill-rule="evenodd" clip-rule="evenodd" d="M255.412,421.925c-0.738,0.329-3.465,0.591-3.84-0.24   C252.206,420.582,254.53,421.701,255.412,421.925z"/>
	<path fill-rule="evenodd" clip-rule="evenodd" d="M291.172,428.885c1.189,0.318-0.301,1.657-0.479,2.16   C289.972,430.386,291.036,429.483,291.172,428.885z"/>
	<path fill-rule="evenodd" clip-rule="evenodd" d="M289.252,432.965c0.279-0.039,0.427,0.053,0.48,0.24   c-3.164,7.016-6.498,15.24-10.08,22.8c-2.003,4.227-2.723,8.355-7.2,9.6c-25.984-0.591-53.995-1.981-78.72-5.28   c3.129-0.358,5.87,0.169,10.08,0.48c8.167,0.604,17.805,2.056,28.079,2.64c10.118,0.575,19.805,0.743,30.24,1.2   c5.278,0.231,10.481,1.082,13.2-1.2C280.423,453.736,284.588,443.101,289.252,432.965z"/>
	<path fill-rule="evenodd" clip-rule="evenodd" d="M271.972,442.805c-0.751-0.049-1.762,0.162-2.16-0.24   C269.855,441.844,272.245,441.746,271.972,442.805z"/>
	<path fill-rule="evenodd" clip-rule="evenodd" d="M188.932,459.605c0.004-0.366,1.779-0.526,1.44,0.24   C189.78,459.876,189.216,459.881,188.932,459.605z"/>
	<path fill-rule="evenodd" clip-rule="evenodd" fill="#EFF0F0" d="M108.052,25.206c-3.098,2.255-7.055,4.999-11.52,2.64   c-0.838,0.215-0.41-0.783-0.24-0.96c-0.878-0.158-0.92,0.52-1.68,0.48c-26.907-8.054-55.233-14.687-82.8-22.08   c0.703-0.977,2.253-1.106,3.12-1.92C14,2.637,11.8,4.463,10.612,5.045c-0.09-1.062,1.394-1.236,2.4-1.68   c1.506-0.665,3.493-2.028,4.56-2.16c2.785-0.343,6.839,1.947,9.36,2.64C52.536,10.882,82.878,17.778,108.052,25.206z"/>
	<path fill-rule="evenodd" clip-rule="evenodd" fill="#EFF0F0" d="M17.092,12.245c0.785-0.376,2.77,0.104,3.12,0.96   C19.294,12.763,18.242,12.455,17.092,12.245z"/>
	<path fill-rule="evenodd" clip-rule="evenodd" fill="#EFF0F0" d="M21.892,13.445c0.553-0.501,3.437,0.685,4.8,0.96   C25.17,14.963,23.65,13.451,21.892,13.445z"/>
	<path fill-rule="evenodd" clip-rule="evenodd" fill="#EFF0F0" d="M27.652,14.885c0.131-0.528,2.637,0.502,3.6,0.72   c1.17,0.387-2.054,0.127-2.16-0.48C28.359,15.299,28.217,14.88,27.652,14.885z"/>
	<path fill-rule="evenodd" clip-rule="evenodd" fill="#EFF0F0" d="M42.772,18.725c0.598-0.66,1.82,0.087,2.16,0.48   c0.99-0.1,2.508,0.518,2.4,0.72C45.565,19.772,44.469,18.948,42.772,18.725z"/>
	<path fill-rule="evenodd" clip-rule="evenodd" fill="#EFF0F0" d="M48.292,20.166c0.42-0.595,2.976,0.656,4.08,0.96   c0.594-0.031,0.408,0.293,0,0.24C51.042,20.935,49.718,20.499,48.292,20.166z"/>
	<path fill-rule="evenodd" clip-rule="evenodd" fill="#EFF0F0" d="M67.012,24.965c-1.109,0.621-2.378-0.656-3.6-0.72   c-0.594,0.031-0.408-0.293,0-0.24C64.651,24.287,65.681,24.777,67.012,24.965z"/>
	<path fill-rule="evenodd" clip-rule="evenodd" fill="#EFF0F0" d="M67.732,25.445c-0.007-0.672,1.857,0.615,2.88,0.48   C69.667,26.699,68.728,25.418,67.732,25.445z"/>
	<path fill-rule="evenodd" clip-rule="evenodd" fill="#EFF0F0" d="M72.292,26.885c1.139-0.651,2.408,0.626,3.6,0.72   C74.944,28.065,73.546,26.917,72.292,26.885z"/>
	<path fill-rule="evenodd" clip-rule="evenodd" fill="#EFF0F0" d="M77.812,28.325c0.703-0.373,1.993,0.72,3.12,0.72   C80.06,29.588,78.718,28.546,77.812,28.325z"/>
	<path fill-rule="evenodd" clip-rule="evenodd" fill="#EFF0F0" d="M81.412,29.525c0.844-0.672,1.841,0.549,2.88,0.48   C83.417,30.708,82.648,29.259,81.412,29.525z"/>
	<path fill-rule="evenodd" clip-rule="evenodd" fill="#EFF0F0" d="M86.212,30.725c0.149-0.472,2.586,0.718,3.6,0.96   c0.594-0.03,0.408,0.294,0,0.24C88.605,31.532,87.389,31.149,86.212,30.725z"/>
	<path fill-rule="evenodd" clip-rule="evenodd" fill="#EFF0F0" d="M100.852,34.805c0.526-0.549,3.097,0.862,4.56,0.96   C103.989,36.303,102.416,34.925,100.852,34.805z"/>
	<path fill-rule="evenodd" clip-rule="evenodd" fill="#EFF0F0" d="M105.892,36.245c0.947-0.696,2.023,0.529,3.12,0.48   C108.128,37.359,107.136,36.049,105.892,36.245z"/>
	<path fill-rule="evenodd" clip-rule="evenodd" fill="#EFF0F0" d="M112.372,37.925c0.087-0.628,2.311,0.498,3.36,0.48   C114.647,39.161,113.598,37.827,112.372,37.925z"/>
	<path fill-rule="evenodd" clip-rule="evenodd" fill="#EFF0F0" d="M123.172,40.325C121.152,40.808,120.571,39.304,123.172,40.325   L123.172,40.325z"/>
	<path fill-rule="evenodd" clip-rule="evenodd" fill="#EFF0F0" d="M123.412,40.805C125.51,40.487,126.094,41.806,123.412,40.805   L123.412,40.805z"/>
	<path fill-rule="evenodd" clip-rule="evenodd" fill="#EFF0F0" d="M131.332,42.725c1.114-0.547,2.696,0.499,3.84,0.72   C134.188,43.862,132.771,42.652,131.332,42.725z"/>
	<path fill-rule="evenodd" clip-rule="evenodd" fill="#EFF0F0" d="M137.332,44.166c0.882-0.632,2.06,0.492,3.12,0.48   C139.704,45.142,138.387,44.159,137.332,44.166z"/>
	<path fill-rule="evenodd" clip-rule="evenodd" fill="#EFF0F0" d="M147.412,46.805c1.432-0.546,2.863,0.973,4.56,0.96   C150.534,48.318,148.906,46.995,147.412,46.805z"/>
	<path fill-rule="evenodd" clip-rule="evenodd" fill="#EFF0F0" d="M157.732,49.205c0.469,0.412,1.343,0.417,1.92,0.72   C160.23,50.219,157.624,49.996,157.732,49.205z"/>
	<path fill-rule="evenodd" clip-rule="evenodd" fill="#EFF0F0" d="M162.052,50.885c0.456-0.67,1.537,0.044,1.92,0.24   C163.746,51.566,162.761,50.755,162.052,50.885z"/>
	<path fill-rule="evenodd" clip-rule="evenodd" fill="#EFF0F0" d="M175.732,54.725c1.248-0.442,2.89,0.786,4.32,0.96   C178.571,56.36,177.277,54.784,175.732,54.725z"/>
	<path fill-rule="evenodd" clip-rule="evenodd" fill="#EFF0F0" d="M184.612,56.885c-1.078,0.748-2.076-0.637-3.36-0.48   C180.275,55.367,183.588,56.882,184.612,56.885z"/>
	<path fill-rule="evenodd" clip-rule="evenodd" fill="#EFF0F0" d="M189.172,58.325C187.4,58.674,186.248,57.206,189.172,58.325   L189.172,58.325z"/>
	<path fill-rule="evenodd" clip-rule="evenodd" fill="#EFF0F0" d="M200.452,61.445c1.307-0.422,2.812,1.024,4.56,0.96   C204.462,62.979,201.705,61.753,200.452,61.445z"/>
	<path fill-rule="evenodd" clip-rule="evenodd" fill="#EFF0F0" d="M205.732,62.885c0.483-0.659,2.896,0.735,4.319,0.72   C208.612,64.319,207.312,62.83,205.732,62.885z"/>
	<path fill-rule="evenodd" clip-rule="evenodd" fill="#EFF0F0" d="M216.532,65.525c0.453-0.628,2.88,0.752,4.319,0.72   C219.439,66.932,218.038,65.544,216.532,65.525z"/>
	<path fill-rule="evenodd" clip-rule="evenodd" fill="#EFF0F0" d="M227.092,68.166c1.199-0.678,2.456,0.732,4.32,0.72   C229.973,69.599,228.672,68.11,227.092,68.166z"/>
	<path fill-rule="evenodd" clip-rule="evenodd" fill="#EFF0F0" d="M231.892,69.365c2.2-0.185,6.588,1.562,9.601,2.16   C238.416,71.64,235.102,69.917,231.892,69.365z"/>
	<path fill-rule="evenodd" clip-rule="evenodd" fill="#EFF0F0" d="M252.052,74.885c4.306,0.255,8.798,2.401,13.2,3.36   C261.001,77.936,256.393,75.905,252.052,74.885z"/>
	<path fill-rule="evenodd" clip-rule="evenodd" fill="#EFF0F0" d="M265.492,78.725c2.94-0.14,5.996,1.683,9.12,2.16   C271.597,81.099,268.589,79.229,265.492,78.725z"/>
	<path fill-rule="evenodd" clip-rule="evenodd" fill="#EFF0F0" d="M279.892,82.805c3.283-0.242,6.404,1.755,9.841,2.16   C286.456,85.2,283.3,83.239,279.892,82.805z"/>
	<path fill-rule="evenodd" clip-rule="evenodd" fill="#EFF0F0" d="M289.972,85.445c1.788-0.663,3.355,0.962,5.28,0.96   C293.637,86.896,291.707,85.633,289.972,85.445z"/>
	<path fill-rule="evenodd" clip-rule="evenodd" fill="#EFF0F0" d="M311.332,90.725c3.24-0.04,6.861,1.618,10.32,2.16   C318.435,92.902,314.621,91.437,311.332,90.725z"/>
	<path fill-rule="evenodd" clip-rule="evenodd" fill="#EFF0F0" d="M326.212,94.085c1.881,0.519,3.857,0.942,5.76,1.44   C330.169,95.885,327.707,94.832,326.212,94.085z"/>
	<path fill-rule="evenodd" clip-rule="evenodd" fill="#EFF0F0" d="M332.212,96.005c3.286-0.005,7.214,1.425,10.08,2.64   c0.304,50.346,0.72,97.303,0.72,147.601c0,21.711,0.435,47.721,0.24,68.88c-0.174,18.908,0.5,47.075-0.48,70.319   c-1.405-24.578,0.161-51.174-0.479-70.08c-0.675-19.915-0.24-47.259-0.24-68.64c0-45.74-0.479-90.513-0.479-138.72   c0-2.943,0.346-7.527-0.48-8.88C339.547,96.593,335.173,97.517,332.212,96.005z"/>
	<path fill-rule="evenodd" clip-rule="evenodd" fill="#EFF0F0" d="M216.532,336.005c1.549-0.977,4.831,0.221,5.76,1.439   c3.215-0.43,7.897,1.367,12,2.4c14.044,3.537,27.718,7.197,41.76,11.28c15.759,4.581,34,9.021,49.681,13.439   c-9.67-0.811-18.338-4.702-28.08-6.24C271.219,350.279,243.728,343.29,216.532,336.005z"/>
	<path fill-rule="evenodd" clip-rule="evenodd" fill="#EFF0F0" d="M263.332,360.246c-0.954,2.452-1.444,5.448-0.72,8.399   C261.266,367.179,261.026,361.771,263.332,360.246z"/>
	<path fill-rule="evenodd" clip-rule="evenodd" fill="#EFF0F0" d="M290.212,440.166c0.64,0.89-0.847,1.704-0.96,2.64   C288.823,442.125,290.072,441.074,290.212,440.166z"/>
	<path fill-rule="evenodd" clip-rule="evenodd" fill="#EFF0F0" d="M92.932,28.085c-3.397,3.61-9.639,0.351-15.12-1.2   c-9.721-2.751-18.485-5.271-28.56-7.92c-15.019-3.95-31.205-7.806-44.88-11.52c3.712-2.841,7.065-0.895,12.24,0.48   C41.512,14.54,68.599,20.741,92.932,28.085z"/>
	<path fill-rule="evenodd" clip-rule="evenodd" d="M358.372,91.925c0.589,25.146,0.076,48.875,0.479,67.92   c0.558,26.302,0.241,47.261,0.24,72.96c-0.001,23.305,0.24,48.086,0.24,73.44c0,26.26,0.471,47.847,0,72.96   c-3.305,2.853-7.929,4.519-12.48,6.479c-1.691,0.729-2.973,1.98-4.8,1.92c-1.989-0.065-4.504-1.052-6.96-1.68   c-6.296-1.609-13.984-3.915-20.4-5.28c-0.431,2.921,0.643,6.066,0.721,9.36c0.204,8.659-3.973,15.294-7.2,21.6   c-6.719,13.126-13.006,24.192-19.92,37.68c-1.405,2.742-3.406,5.944-5.04,9.36c-2.741,5.73-4.235,10.607-11.28,11.04   c-5.151,0.316-10.952-0.215-16.56-0.479c-16.243-0.769-33.195-0.825-48.96-2.641c-41.787-4.812-80.4-13.686-113.52-26.399   c-16.968-6.514-31.032-16.866-42.48-27.36c-1.795-1.165-3.68-2.24-3.84-5.04c-0.412-1.905,1.607-2.771,2.64-3.6   c1.312-1.055,2.378-2.23,3.84-2.881c2.617-1.164,5.836-1.728,8.88-2.64c26.218-7.859,53.609-14.901,80.16-22.8   c17.431-5.186,35.792-10.076,53.521-14.88c0.082-3.082-0.359-4.154-0.24-7.2c-17.764-5.548-36.931-10.213-55.44-15.12   c-6.158-1.633-12.551-2.763-18.72-4.56c-20.832-6.069-42.039-12.724-64.08-18.24c-5.684-1.423-10.653-0.808-11.04-6.96   c-7.402-1.992-15.035-4.061-22.56-6.24c-7.5-2.172-15.341-3.497-21.84-6.96c-0.907-6-0.48-12.055-0.48-18   c0-40.889-0.72-80.059-0.72-123.6c0-43.926-0.729-96.565-0.48-145.68c5.113-2.896,11.554-5.905,16.8-8.16   c0.275-0.118,0.634-0.276,0.96-0.24c3.365,0.372,7.218,1.631,11.04,2.64c3.433,0.906,7.059,1.942,10.56,2.88   c21.094,5.649,42.94,11.39,64.08,17.04c14.057,3.757,28.037,8.182,42.24,11.76c14.348,3.614,28.726,7.289,42.96,11.04   c28.611,7.54,56.911,15.959,85.199,23.04c7.247,1.814,14.497,3.462,21.601,5.52c17.165,4.972,35.255,9.827,53.04,14.4   C351.88,89.186,355.647,89.527,358.372,91.925z M26.932,3.845c-2.521-0.692-6.575-2.983-9.36-2.64   c-1.067,0.131-3.054,1.495-4.56,2.16c-1.006,0.444-2.49,0.619-2.4,1.68C11.8,4.463,14,2.637,14.932,3.365   c-0.867,0.813-2.417,0.943-3.12,1.92c27.567,7.394,55.894,14.026,82.8,22.08c0.759,0.04,0.802-0.638,1.68-0.48   c-0.17,0.177-0.598,1.175,0.24,0.96c4.465,2.359,8.422-0.385,11.52-2.64C82.878,17.778,52.536,10.882,26.932,3.845z M16.612,7.925   c-5.175-1.375-8.528-3.321-12.24-0.48c13.675,3.714,29.861,7.57,44.88,11.52c10.075,2.649,18.839,5.168,28.56,7.92   c5.481,1.551,11.723,4.81,15.12,1.2C68.599,20.741,41.512,14.54,16.612,7.925z M4.372,8.646c-0.32-0.4-1.36-0.081-1.68-0.48   C2.636,8.8,4.175,9.057,4.372,8.646z M7.972,9.365c3.859,0.486-1.269-0.441-1.2,0.24c0.013,0.127,4.358,1.345,4.08,0.72   C10.182,10.32,8.573,9.441,7.972,9.365z M1.252,10.325c-0.258,20.031,0.24,46.029,0.24,70.08c0,25.179-0.633,51.49,0,76.8   c0.248,9.925,0.263,21.721,0.24,34.32c-0.061,33.237,0.453,74.938,0.96,103.2c14.236,4.555,28.939,8.437,43.44,12.24   c0.597-2.204,0.685-4.916,2.4-6c38.982,11.099,79.926,20.232,118.32,31.92c-0.731-3.748,2.045-10.74-2.88-10.08   c-1.362,0.318,0.402,3.762-0.96,4.08c-0.45-0.845-0.187-1.687-0.24-2.4c-0.143-1.913,0.037-1.488-0.72-2.16   c-1.438-1.274-2.843-0.548-3.12,1.2c-0.038-1.082,0.083-2.323-0.96-2.399c-23.85-6.553-47.922-11.453-71.28-18.48   c-17.536-5.276-35.241-9.576-53.04-14.399c-5.823-1.579-12.02-2.365-17.52-5.04c-0.772-8.641-0.479-20.381-0.48-30.721   c0-11.473-0.24-18.476-0.24-29.76c0-65.679-0.767-129.195-0.72-194.64c-0.055-1.415,2.438-0.283,2.4-1.68c0-2.049,0-4.642,0-6.96   c0-2.344,0.583-4.96-0.72-6.24c-1.202,0.081-1.678-0.562-2.88-0.48c-0.119,16.111,0,35.326,0,53.04c0,19.79,0.24,33.104,0.24,51.6   c0,35.134,0.702,66.557,0,104.16c-0.292-38.757-0.48-73.612-0.48-110.16c0-17.952,0.206-34.976-0.48-52.8   c-0.496-12.884,0.23-30.134-0.24-43.92c-0.09-2.626,0.17-2.507-3.12-3.12c-0.401,11.223-0.341,21.828,0,32.4   c0.985,30.504-0.27,70.324,0,101.28c0.095,10.96,0.24,19.896,0.24,30.96c0,34.362,0.569,64.917,0.24,97.2   c-0.61-29.91-0.72-67.608-0.72-98.16c0-24.669-0.24-41.226-0.24-63.84c0-33.601-0.2-62.308-0.48-94.56   c-0.019-2.164,1.23-6.829-3.12-6.24c-0.287,11.716-0.448,25.54-0.24,36.48c0.611,32.075,0.267,74.929,0.24,109.92   c-0.033,42.428,0.528,87.594,0.96,128.88c0.036,3.423,0.44,6.59-0.72,7.92c-0.073-24.102-0.24-48.749-0.24-73.44   c0-24.328-0.794-49.616-0.48-71.76c0.264-18.584,0.708-46.682,0-68.4c-0.787-24.147,0.153-46.834-0.72-70.08   c-0.909-0.131-1.5-0.581-2.64-0.48C1.212,9.646,1.231,9.985,1.252,10.325z M12.052,10.805c0.151,0.039,3.286,1.434,4.56,0.96   C14.652,11.103,10.538,10.415,12.052,10.805z M20.212,13.206c-0.35-0.857-2.335-1.336-3.12-0.96   C18.242,12.455,19.294,12.763,20.212,13.206z M26.692,14.405c-1.363-0.275-4.247-1.461-4.8-0.96   C23.65,13.451,25.17,14.963,26.692,14.405z M17.572,13.685c-0.328,4.877,0.221,8.843-0.24,13.44c0.875,0.726,2.45,0.75,3.84,0.96   c0-4.48,0-8.96,0-13.44C19.933,14.364,18.903,13.874,17.572,13.685z M21.892,14.646c-0.554,4.085-0.084,9.195-0.24,13.68   c1.228,0.373,2.145,1.056,3.84,0.96c0-4.48,0-8.96,0-13.44C24.493,15.244,23.097,15.04,21.892,14.646z M29.092,15.125   c0.106,0.607,3.33,0.867,2.16,0.48c-0.963-0.218-3.469-1.248-3.6-0.72C28.217,14.88,28.359,15.299,29.092,15.125z M25.972,15.845   c-0.225,4.216,0.093,8.56,0,13.92c1.33,0.031,1.851,0.87,3.36,0.72c0-4.64,0-9.28,0-13.92   C28.341,16.197,27.223,15.954,25.972,15.845z M37.252,17.045c-1.8-0.043-3.396-1.56-5.04-0.96   C34.079,16.062,35.564,17.688,37.252,17.045z M30.052,30.725c1.306,0.214,2.098,0.942,3.6,0.96c0-4.64,0-9.28,0-13.92   c-0.863-0.577-2.298-0.581-3.6-0.72C30.052,21.605,30.052,26.166,30.052,30.725z M42.292,18.245   c-1.711,0.107-3.082-1.392-4.56-0.72C39.398,17.463,40.724,19.008,42.292,18.245z M34.372,31.925   c1.152,0.288,2.144,0.736,3.36,0.96c0.048-4.499,0.06-10.673,0-14.16c-1.048-0.311-2.241-0.479-3.36-0.72   C34.35,23.123,34.354,26.788,34.372,31.925z M47.332,19.925c0.108-0.202-1.41-0.819-2.4-0.72c-0.34-0.394-1.562-1.14-2.16-0.48   C44.469,18.948,45.565,19.772,47.332,19.925z M38.452,19.685c-0.046,5.133,0.108,9.194,0,13.44c8.205,2.142,16.044,4.203,24,6.24   c17.926,4.591,35.387,9.165,52.8,14.16c34.55,9.912,71.299,18.296,105.84,28.32c23.594,6.847,46.909,11.737,70.561,18.72   c8.048,2.376,17.566,5.002,26.399,7.2c3.146,0.783,7.602,1.798,8.4,2.88c1.581,2.145,0.72,11.172,0.72,16.08   c0,6.186,0,11.691,0,16.8c0,29.481,0.48,63.686,0.48,96.48c0,34.595-0.229,67.815,0.239,92.399c0.177,9.24,0.065,21.456-0.239,32.4   c-2.129,2.174-4.836,0.827-8.16,0c-20.448-5.087-40.38-10.484-61.2-16.32c-29.853-8.366-61.71-16.009-90.72-24.479   c0,2.96,0,5.92,0,8.88c0.931,0.669,2.224,0.977,3.6,1.2c0.418-2.298-0.865-4.703,0.48-5.28c0.546,2.059-0.124,3.982,0.24,5.52   c1.294,0.146,2.175,0.705,3.36,0.961c0.72-0.681-0.646-2.041,0.72-2.16c0,0.8,0,1.6,0,2.399c20.33,4.804,40.149,10.16,59.76,15.84   c14.741,4.271,29.71,8.738,44.399,12.24c4.973,1.186,10.254,1.631,14.88,4.08c-0.363,2.275-0.003,4.208,0,5.76   c15.092,4.269,30.501,8.22,45.84,12.24c-0.169-47.962,1.16-96.716,0-145.439c-0.413-17.378,0.476-49.146,0-70.32   c-0.289-12.917-0.239-34.253-0.239-52.8c0-5.077,0.994-16.322-0.96-18c-0.947-0.813-5.996-1.564-8.4-2.16   c-20.594-5.102-40.929-9.761-60-15.36c-22.296-6.545-45.079-12.45-68.16-18c-22.739-5.468-44.742-13.057-67.44-18.48   c-22.929-5.479-45.573-11.745-67.92-18.24c-0.041,0.679,0.207,1.646-0.48,1.68c0.081-2.081-1.624-2.376-3.36-2.64   c-0.826,0.534,0.489,3.209-0.72,3.36c-0.556-0.964,0.1-3.139-0.48-4.08c-1.53,0.25-2.038-0.522-3.36-0.48   c-0.158,1.603,0.317,3.837-0.24,5.04c-1.039-0.961-0.219-3.781-0.48-5.52c-1.163-0.197-2.227-0.493-3.36-0.72   c-0.334,2.213,0.412,5.108-0.24,7.44c-0.559-2.082-0.081-5.199-0.24-7.68c-1.15-0.369-2.12-0.92-3.84-0.72   c-0.31,4.367,0.69,6.92-0.24,9.36c0.132-4.357-0.348-7.04,0-9.6c-1.03-0.569-2.287-0.913-3.84-0.96c-0.16,3.92,0.319,8.479-0.24,12   c-0.416-2.924-0.164-7.771-0.24-12.24c-1.188-0.333-2.089-0.951-3.6-0.96c-0.315,4.245,0.633,9.753-0.48,13.2   c0.054-6.045-0.354-8.734,0-13.2C41.355,19.876,38.813,18.26,38.452,19.685z M52.372,21.365c0.408,0.054,0.594-0.271,0-0.24   c-1.104-0.304-3.66-1.555-4.08-0.96C49.718,20.499,51.042,20.935,52.372,21.365z M57.412,22.325   c-1.489,0.044-2.719-1.435-4.08-0.72C54.831,21.551,56.095,22.996,57.412,22.325z M58.372,22.805c0.155,0.044,3.015,1.49,4.32,0.96   C60.806,23.154,56.763,22.352,58.372,22.805z M63.412,24.005c-0.408-0.054-0.594,0.271,0,0.24c1.222,0.064,2.491,1.341,3.6,0.72   C65.681,24.777,64.651,24.287,63.412,24.005z M70.612,25.925c-1.023,0.135-2.887-1.152-2.88-0.48   C68.728,25.418,69.667,26.699,70.612,25.925z M102.532,29.525c13.204,3.596,26.002,7.597,40.08,10.32   c15.229,4.245,32.021,8.67,48.24,13.44c0.506,0.149,1.192-0.107,1.681,0c5.924,1.301,11.664,3.877,17.279,5.28   c1.981,0.495,4.589,0.771,7.2,1.44c2.726,0.698,5.798,2.366,8.16,2.16c1.285-0.113,1.886-1.329,3.12-0.96   c-0.05,1.071-1.75,0.49-1.92,1.44c4.483,2.326,8.827,0.047,12-2.16c-2.486-1.042-5.274-1.197-7.92-1.92   c-5.464-1.493-10.94-4.035-16.8-5.28c-13.786-2.93-27.174-7.47-40.561-10.8c-2.523-0.628-5.179-1.007-7.68-1.68   c-4.141-1.113-8.838-2.728-12.48-3.6c-4.341-1.04-7.629-1.611-11.76-2.64c-6.193-1.544-13.506-3.478-19.68-5.28   c-1.222-0.356-2.372-1.169-3.6-1.44c-3.433-0.755-4.232,1.389-6.72,1.44c0.607-1.313,2.919-0.921,3.36-2.4   C109.714,24.877,105.654,26.821,102.532,29.525z M75.892,27.605c-1.192-0.094-2.461-1.371-3.6-0.72   C73.546,26.917,74.944,28.065,75.892,27.605z M80.932,29.045c-1.127,0-2.417-1.093-3.12-0.72   C78.718,28.546,80.06,29.588,80.932,29.045z M16.132,29.285c-0.016,13.207,0.052,24.693,0,34.56   c-0.048,9.208,0.118,22.241,0.72,34.56c1.063-22.934,0.321-50.463,0.24-69.84c-0.24,0-0.48,0-0.72,0   C16.382,28.896,16.259,29.092,16.132,29.285z M90.532,30.485c1.928,0.232,3.199,1.121,5.04,1.44c1.024-0.656,1.995-1.365,3.36-1.68   C96.794,28.281,92.244,28.178,90.532,30.485z M18.772,29.285c-0.003-0.564-0.655,0.088-0.48,0.48   c0.117,33.807,0.194,74.197,0.48,104.64c10.383-6.003,21.053-12.198,31.68-17.76c3.5-1.832,6.701-4.535,10.56-5.52   c-3.234,2.467-7.022,4.062-10.56,6c-10.78,5.906-21.162,12.24-31.68,18.24c-0.032,51.618-0.036,100.315,0.72,145.92   c5.771-2.064,10.922-5.886,16.32-9.12c5.501-3.296,11.27-6.154,16.56-9.601c17.235-8.358,33.28-19.029,49.92-28.32   c14.824-8.277,29.51-16.359,44.16-24.48c2.06-1.142,3.935-2.611,6.24-3.12c-1.86,2.38-5.498,2.982-7.68,5.04   c-3.378,0.942-5.252,3.388-8.64,4.32c-16.521,9.319-32.756,18.924-49.68,27.84c-20.913,13.488-44.279,24.521-65.28,37.92   c36.709,8.648,73.144,20.273,109.2,29.28c37.562,9.383,74.389,19.886,111.6,29.76c5.803-3.638,12.061-6.82,17.76-10.56   c4.295-2.617,9.173-5.418,13.44-7.921c1.331-0.78,2.701-2.528,4.32-1.92c-11.357,6.964-22.905,13.735-34.32,20.641   c27.977,7.223,54.886,15.514,83.279,22.319c0.103-17.702-0.085-42.96,0-63.119c-2.979,0.551-5.207,2.853-7.92,4.319   c-5.535,2.993-11.253,6.079-16.8,8.88c-2.853,1.44-5.564,3.335-8.64,3.841c11.198-6.082,22.773-11.787,33.359-18.48   c-0.834-42.11,0.564-91.918-0.479-131.52c-0.406-15.42-0.105-36.32,0-49.92c-1.928,0.198-3.351,1.524-5.04,2.4   c-5.521,2.864-10.468,5.733-15.6,8.64c-20.639,11.691-41.728,22.84-61.681,35.04c-1.823,1.092-3.794,2.232-5.76,3.36   c-1.947,1.118-3.894,2.672-6,2.88c30.42-18.86,62.821-35.738,94.08-53.76c0.099-1.699-0.065-3.135-0.479-4.32   c-40.218-12.08-85.124-22.665-127.2-34.32c-10.015-2.774-21.147-5.831-31.68-8.64c-3.521-0.939-8.484-2.888-11.04-2.64   c-1.878,0.182-4.814,2.475-6.96,3.6c-6.077,3.186-11.289,6.505-16.8,9.6c-0.904,0.507-1.939,1.696-3.12,1.2   c8.126-5.394,17.151-9.889,25.68-14.88C109.024,53.755,64.624,40.792,18.772,29.285z M84.292,30.005   c-1.039,0.069-2.036-1.152-2.88-0.48C82.648,29.259,83.417,30.708,84.292,30.005z M157.732,45.125   c-16.116-3.984-32.315-7.781-47.76-12c-4.439-1.213-9.976-4.607-13.44-0.96c22.418,6.021,47.565,12.35,70.32,18.48   c4.764,1.283,9.614,2.524,14.4,3.84c9.632,2.647,19.075,5.989,28.32,8.16c5.407,1.27,10.271,3.342,13.199,0.24   C200.26,57.758,179.733,50.563,157.732,45.125z M89.812,31.925c0.408,0.054,0.594-0.271,0-0.24c-1.014-0.242-3.451-1.432-3.6-0.96   C87.389,31.149,88.605,31.532,89.812,31.925z M93.172,32.405c-0.891,0.157-1.648-1.053-2.4-0.24   C91.83,31.841,92.425,33.214,93.172,32.405z M105.412,35.765c-1.463-0.098-4.034-1.509-4.56-0.96   C102.416,34.925,103.989,36.303,105.412,35.765z M109.012,36.725c-1.097,0.049-2.173-1.176-3.12-0.48   C107.136,36.049,108.128,37.359,109.012,36.725z M115.732,38.405c-1.049,0.018-3.272-1.108-3.36-0.48   C113.598,37.827,114.647,39.161,115.732,38.405z M118.372,39.125c-0.706,0.05-1.59-0.949-2.16-0.24   C117.079,38.674,117.813,39.822,118.372,39.125z M123.172,40.325C120.571,39.304,121.152,40.808,123.172,40.325L123.172,40.325z    M123.412,40.805C126.094,41.806,125.51,40.487,123.412,40.805L123.412,40.805z M130.612,42.245c-1.42-0.024-2.815-1.338-4.08-0.72   C128.031,41.471,129.295,42.916,130.612,42.245z M135.172,43.445c-1.144-0.221-2.726-1.267-3.84-0.72   C132.771,42.652,134.188,43.862,135.172,43.445z M140.452,44.646c-1.06,0.012-2.238-1.112-3.12-0.48   C138.387,44.159,139.704,45.142,140.452,44.646z M146.932,46.325c-1.749,0.064-3.253-1.382-4.56-0.96   C143.728,45.693,145.503,46.87,146.932,46.325z M151.972,47.765c-1.697,0.013-3.128-1.506-4.56-0.96   C148.906,46.995,150.534,48.318,151.972,47.765z M156.292,48.965c-1.222-0.063-2.491-1.341-3.6-0.72   C153.952,48.271,155.305,49.465,156.292,48.965z M159.652,49.925c-0.577-0.303-1.451-0.309-1.92-0.72   C157.624,49.996,160.23,50.219,159.652,49.925z M163.972,51.125c-0.383-0.196-1.465-0.91-1.92-0.24   C162.761,50.755,163.746,51.566,163.972,51.125z M170.452,53.045c-0.865-0.026-1.833-1.194-2.64-0.48   C168.78,52.488,169.769,53.635,170.452,53.045z M173.332,53.765C170.624,52.529,171.36,54.269,173.332,53.765L173.332,53.765z    M180.052,55.685c-1.43-0.174-3.072-1.402-4.32-0.96C177.277,54.784,178.571,56.36,180.052,55.685z M181.252,56.405   c1.284-0.157,2.282,1.228,3.36,0.48C183.588,56.882,180.275,55.367,181.252,56.405z M189.172,58.325   C186.248,57.206,187.4,58.674,189.172,58.325L189.172,58.325z M193.732,59.525c-1.257-0.109-2.718-1.275-3.841-0.72   C191.298,58.765,192.481,60.208,193.732,59.525z M232.612,64.085c18.556,4.592,37.716,10.022,57.12,15.6   c15.954,4.586,33.135,8.156,49.68,12.48c2.482,0.648,5.189,2.003,6.96,1.92c1.435-0.068,2.385-1.568,3.84-1.2   c-0.53,1.07-2.72,0.48-2.64,2.16c2.098,1.401,4.912-2.363,6.479-1.44c-1.101,1.918-5.889,0.956-5.04,4.08   c1.209,0.406,3.727-2.242,4.561-1.44c-1.119,1.282-3.434,1.367-4.561,2.64c0,13.714,0,28.073,0,41.76c0,13.672-0.492,27.531,0,38.4   c1.3,28.68-0.299,49.015,0.48,77.04c2.662-0.154,5.265-2.403,7.92-3.36c0-1.28,0-2.56,0-3.84c-1.303-0.171-2.326,1.912-3.12,0.72   c0.94-0.739,2.351-1.009,3.12-1.92c0.004-13.711-0.179-25.891-0.24-37.44c-0.076-14.312,0-26.778,0-42   c0-12.812-0.176-22.131-0.24-34.08c-0.075-13.995,0.057-27.484,0-42c-2.927-2.03-6.61-2.042-10.08-2.88   c-4.582-1.106-9.102-2.946-13.68-4.08c-14.217-3.521-29.378-8.13-42.96-11.76c-12.779-3.416-26.845-6.189-39.84-9.6   c-1.742-0.457-3.197-1.385-4.8-1.2c-1.466,0.169-2.673,1.572-4.32,1.44c0.688-1.071,2.495-1.024,3.36-1.92   C240.345,59.482,236.03,62.523,232.612,64.085z M205.012,62.405c-1.748,0.064-3.253-1.382-4.56-0.96   C201.705,61.753,204.462,62.979,205.012,62.405z M210.052,63.605c-1.423,0.015-3.836-1.379-4.319-0.72   C207.312,62.83,208.612,64.319,210.052,63.605z M220.612,65.285c3.507,0.632,6.442,1.907,8.64-0.72   C226.439,63.436,222.374,62.796,220.612,65.285z M215.812,65.045c-1.81-0.113-3.586-1.53-5.279-0.96   C212.381,64.16,214.09,65.644,215.812,65.045z M344.212,95.765c0.075-0.854,0.465-1.255-0.72-1.2   c-13.024-3.913-26.819-6.362-40.32-10.08c-18.376-5.06-36.37-10.359-54.96-15.12c-5.188-1.329-10.383-3.137-15.6-4.08   c-2.394-0.432-4.122,0.075-5.521,1.44c19.91,4.819,38.235,10.473,58.32,15.84c14.274,3.815,29.626,7.308,44.399,11.28   c4.089,1.099,12.491,2.222,13.921,4.8c0.945,1.706,0.479,6.555,0.479,10.32c-0.001,51.454,0.348,105.076,0.72,153.6   c1.462-0.219,2.465-0.896,3.601-1.439c-1.099-35.206,0.597-69.467-0.721-105.12c-0.604-16.366,0.001-35.659,0-52.56   c0-2.216-0.57-4.359,0-6.24c-0.831-0.755-1.919,0.884-2.64,0.24c0.155-0.974,2.48-0.757,1.68-1.92   C346.062,94.755,345.039,95.319,344.212,95.765z M220.852,66.245c-1.439,0.033-3.866-1.348-4.319-0.72   C218.038,65.544,219.439,66.932,220.852,66.245z M221.812,66.485c-1.214-0.084,3.249,1.636,4.561,1.2   C224.847,67.271,222.575,66.538,221.812,66.485z M231.412,68.885c-1.864,0.012-3.121-1.397-4.32-0.72   C228.672,68.11,229.973,69.599,231.412,68.885z M241.492,71.525c-3.013-0.599-7.4-2.345-9.601-2.16   C235.102,69.917,238.416,71.64,241.492,71.525z M246.771,72.965c-1.531-0.152-3.096-1.539-4.56-0.96   C243.704,72.197,245.287,73.565,246.771,72.965z M251.812,74.405c-1.755,0.072-2.993-1.642-4.56-0.96   C248.872,73.509,250.253,75.08,251.812,74.405z M265.252,78.245c-4.402-0.958-8.895-3.104-13.2-3.36   C256.393,75.905,261.001,77.936,265.252,78.245z M274.612,80.885c-3.124-0.478-6.18-2.3-9.12-2.16   C268.589,79.229,271.597,81.099,274.612,80.885z M279.652,82.325c-1.65-0.114-3.135-1.661-4.801-0.96   C276.336,81.645,278.11,82.903,279.652,82.325z M289.732,84.965c-3.437-0.405-6.558-2.402-9.841-2.16   C283.3,83.239,286.456,85.2,289.732,84.965z M295.252,86.405c-1.925,0.002-3.492-1.623-5.28-0.96   C291.707,85.633,293.637,86.896,295.252,86.405z M300.292,87.605c-1.734,0.05-3.155-1.479-4.8-0.72   C297.177,86.884,298.69,88.322,300.292,87.605z M306.052,89.045c-2.016,0.013-3.556-1.721-5.52-0.96   C302.367,88.253,304.257,89.637,306.052,89.045z M310.852,90.245c-1.519-0.085-3.089-1.385-4.56-0.72   C307.872,89.55,309.449,90.843,310.852,90.245z M321.652,92.885c-3.459-0.542-7.08-2.2-10.32-2.16   C314.621,91.437,318.435,92.902,321.652,92.885z M325.972,94.085c-1.209-0.236-2.827-1.326-4.08-0.72   C323.339,93.363,324.774,94.636,325.972,94.085z M331.972,95.525c-1.902-0.498-3.879-0.921-5.76-1.44   C327.707,94.832,330.169,95.885,331.972,95.525z M341.092,99.125c0.826,1.353,0.48,5.937,0.48,8.88   c0,48.207,0.479,92.979,0.479,138.72c0,21.381-0.435,48.725,0.24,68.64c0.641,18.906-0.926,45.502,0.479,70.08   c0.98-23.244,0.307-51.411,0.48-70.319c0.194-21.159-0.24-47.169-0.24-68.88c0-50.298-0.416-97.254-0.72-147.601   c-2.866-1.214-6.794-2.645-10.08-2.64C335.173,97.517,339.547,96.593,341.092,99.125z M17.092,103.205   c0.267-0.914,0.681-4.036-0.24-4.56C16.343,99.362,15.738,102.916,17.092,103.205z M16.372,104.166   c0.297,28.729,0.138,72.292,0.48,97.439c1.32-1.293,0.714-3.612,0.72-5.28c0.046-14.097,0.044-31.684,0-42   c-0.069-16-0.422-32.038-0.24-50.4c-0.014-0.146-0.036-0.284-0.24-0.24C17.029,104.022,16.566,103.959,16.372,104.166z    M17.572,206.405c0.338-1.162-0.076-2.27,0-4.08c-0.24,0-0.48,0-0.72,0C17.213,203.564,16.059,206.319,17.572,206.405z    M16.852,207.605c0.062,24.262,0.384,49.286,0.48,73.2c1.339-0.731,0.725-2.464,0.72-3.6c-0.11-25.129-0.104-44.442-0.48-70.08   c-0.014-0.146-0.036-0.284-0.24-0.24C17.216,207.169,17.076,207.429,16.852,207.605z M356.932,253.445   c-2.15,1.357-5.146,2.923-7.439,3.36c0,1.28,0,2.56,0,3.84c2.97-0.87,5.286-2.394,7.92-3.6   C357.239,255.582,358.014,254.249,356.932,253.445z M356.932,258.005c-2.488,1.11-4.778,2.422-7.439,3.359   c0.165,1.567-0.012,2.054,0.24,3.601c2.625-1.135,5.152-2.368,7.68-3.601C357.146,260.351,357.977,258.24,356.932,258.005z    M344.932,263.286c-0.188,1.268-0.048,2.386,0,3.6c1.387-0.293,2.659-0.701,3.601-1.44c0-1.12,0-2.239,0-3.359   C347.046,262.199,346.193,262.946,344.932,263.286z M349.492,265.685c0.052,1.309-0.166,2.886,0.24,3.84   c3.125-1.83,9.432-2.685,7.68-7.2C354.473,263.146,352.274,264.708,349.492,265.685z M344.932,267.605c0,1.36,0,2.72,0,4.08   c1.675-0.006,2.162-1.198,3.601-1.439c0-1.28,0-2.561,0-3.841C346.758,266.232,346.676,267.749,344.932,267.605z M356.932,266.645   c-2.305,1.295-4.647,2.553-7.199,3.601c-0.365,1.825,0.009,1.81,0,4.079c2.903-1.096,5.494-2.505,7.92-4.079   C356.877,269.124,358.409,267.125,356.932,266.645z M344.932,272.405c0.003,1.954-0.119,2.543,0,4.32   c1.301-0.379,2.352-1.009,3.601-1.439c-0.28-1.24,0.585-3.626-0.48-4.08C346.991,271.584,346.155,272.189,344.932,272.405z    M357.412,329.525c-0.196-18.535,0.377-37.275,0.24-57.84c-2.698,0.198-5.206,2.623-7.92,3.601c-0.195,1.005-0.512,2.897,0,3.84   c2.319-0.401,4.062-2.655,6.239-2.4c-1.832,1.288-4.033,2.207-6.239,3.12c-0.14,1.593,0.01,2.051,0,3.84   c0.648,0.07,1.371-1.003,1.92-0.24c-0.63,0.491-1.857,0.383-1.92,1.44c-0.282,12.217,0.119,22.016,0,33.36   c-0.202,19.126-0.249,42.63,0.479,62.64c1.344-0.979,3.539-2.379,5.04-2.4c-1.329,1.552-4.08,1.681-5.28,3.36   c2.414-0.388,5.233-2.446,7.681-3.6C357.801,360.769,357.567,344.191,357.412,329.525z M344.932,277.445   c0.156,1.204-0.314,3.035,0.24,3.841c1.296-0.305,2.081-1.119,3.36-1.44c0-1.28,0-2.56,0-3.84   C347.312,276.465,346.172,277.005,344.932,277.445z M344.932,282.005c0,1.2,0,2.399,0,3.6c1.312-0.288,2.28-0.92,3.601-1.2   c-0.218-1.222,0.494-3.374-0.48-3.84C347.122,281.156,345.965,281.518,344.932,282.005z M17.572,282.725   c0.358,0.381,1.368,0.351,1.2-0.479C18.177,282.209,17.607,282.201,17.572,282.725z M19.732,282.725   c-0.241-0.001-0.286,0.194-0.48,0.24c0.027,0.293,0.072,0.568,0.48,0.479c8.478,2.023,17.846,4.991,26.16,6.96   c4.917,1.165,9.802,2.325,14.64,3.601c4.83,1.272,9.572,2.842,14.4,3.359C57.52,291.498,38.164,287.574,19.732,282.725z    M348.771,380.885c0.057-13.019,0.011-27.301-0.239-37.68c-0.413-17.099,0.308-38.042,0-58.08c-0.014-0.146-0.036-0.284-0.24-0.24   c-0.976,0.785-2.706,0.813-3.36,1.92c-0.073,31.608,0.03,62.069,0,97.439c1.509-0.49,3.378-0.622,3.84-2.159   c-0.935-0.186-1.244,0.887-1.92,0.239C347.363,381.716,348.749,381.982,348.771,380.885z M75.412,298.085   c1.896-0.132,4.268,2.265,5.52,0.479c-2.042-0.198-3.41-1.07-5.28-1.439C75.706,297.579,75.382,297.655,75.412,298.085z    M153.172,317.765c-15.972-4.209-32.509-8.133-48-12.24c-6.123-1.623-12.375-3.926-18.24-4.56c-0.895-1.373-3.844-1.879-5.52-1.68   c0.027,0.292,0.072,0.568,0.48,0.479c19.511,6.438,40.108,10.836,60.48,15.84c1.239,0.305,2.352,1.142,3.6,1.44   c16.48,3.945,32.844,8.859,48.24,13.2c5.416,1.526,10.788,3.255,16.32,3.84c0.95,1.104,4.244,1.967,5.52,1.2   C195.521,329.557,174.458,323.375,153.172,317.765z M197.572,342.246c-10.827-2.599-21.687-5.362-32.4-8.4   c-10.634-3.016-21.166-6.543-31.92-8.88c-27.308-8.293-56.698-14.502-84.24-22.561c-1.374,2.07-2.597,6.453-1.2,8.881   c0.622,1.08,4.348,1.992,6,2.399c16.133,3.979,33.237,8.465,47.52,12.48c-2.021-2.491-2.043-7.183,1.68-7.2   c4.02-0.02,5.029,6.646,0.96,8.16c15.542,4.64,31.369,8.833,46.8,12.72c37.096,9.344,73.001,20.545,110.4,29.28   c-1.052-2.964-0.814-6.862,0.48-9.36C240.458,354.078,219.27,347.452,197.572,342.246z M103.252,324.965   c-1.167-0.513-0.352-3.009-0.96-4.08C101.014,321.682,101.421,325.957,103.252,324.965z M104.932,324.965   c0.7-0.987,0.56-3.047,0-4.08C102.56,320.736,103.588,324.694,104.932,324.965z M297.652,358.325   c9.742,1.538,18.41,5.43,28.08,6.24c-15.681-4.419-33.922-8.858-49.681-13.439c-14.042-4.083-27.716-7.743-41.76-11.28   c-4.103-1.033-8.785-2.83-12-2.4c-0.929-1.219-4.211-2.416-5.76-1.439C243.728,343.29,271.219,350.279,297.652,358.325z    M196.612,354.246c-0.232,2.069,0.302,4.706,0,6.96c-0.323,2.408-1.31,4.283-0.721,6.479c0.518,1.928,3.351,5.156,5.28,6.72   c6.996,5.668,19.041,9.754,29.04,11.761c22.438,4.502,52.362,4.791,73.92,1.439c-0.577-3.451-0.387-5.162-0.479-9.359   c-2.395,0.396-4.337,2.479-6.96,2.399c-1.188-0.035-2.166-0.877-3.36-1.2c-26.032-7.041-59.51-15.253-86.16-22.56   c-0.422,3.503,0.633,7.848-0.479,11.04c-0.56-3.281-0.081-7.6-0.24-11.28c-2.302-0.498-4.319-1.281-6.72-1.68   c-0.16,3.2,0.318,7.039-0.24,9.84c-1.084-2.176,0.408-6.188-0.48-10.32C198.285,354.349,197.033,353.944,196.612,354.246z    M262.612,368.645c-0.725-2.951-0.234-5.947,0.72-8.399C261.026,361.771,261.266,367.179,262.612,368.645z M265.012,360.965   c-2.183,2.021-1.469,7.146,0,9.359c9.076,2.444,18.047,4.994,27.36,7.2c-1.63-2.687-1.066-7.821,0.72-9.84   C283.436,365.742,274.741,362.835,265.012,360.965z M193.972,362.405c-2.752,1.313-6.544,1.71-9.84,2.641   c-32.461,9.168-63.859,18.789-96.96,27.6c-8.495,2.262-17.359,5.199-26.16,7.68c-2.722,0.768-8.131,1.758-8.4,3.12   c-0.218,1.104,3.335,3.759,5.04,5.28c13.055,11.651,28.99,20.277,45.6,27.12c9.855,4.06,21.094,6.602,32.16,9.36   c11.077,2.761,23.053,5.804,34.08,7.68c27.36,4.654,60.028,8.881,90.96,8.88c4.628,0,11.278,0.843,13.439-0.48   c1.529-0.936,3.286-5.851,4.32-8.399c1.42-3.497,2.284-6.591,3.36-9.36c7.347-18.917,14.539-35.785,21.84-54.72   c-25.816,3.777-62.568,2.869-85.92-5.04c-9.141-3.096-19.973-7.414-22.561-15.84c-0.553-1.801-0.13-4.053-0.72-5.521   C194.132,362.405,194.052,362.405,193.972,362.405z M293.812,374.166c-0.148-0.651,0.305-1.905-0.239-2.16   C293.357,372.291,292.896,374.277,293.812,374.166z M298.372,378.246c0-0.721,0-1.44,0-2.16c-1.664-0.496-3.868-0.452-4.8-1.681   C293.67,377.179,295.336,379.148,298.372,378.246z M304.852,378.725c-0.221,1.992,0.912,6.104,0.24,9.6   c-0.238,1.243-1.294,2.962-1.92,4.561c-8.044,20.539-16.373,40.09-24.24,60.72c-1.259,3.302-2.552,7.532-4.56,8.64   c-1.705,0.941-4.995,0.842-8.88,0.721c-5.524-0.173-13.938-0.281-22.32-0.721c-17.074-0.894-32.236-2.188-48.479-4.319   c-15.901-2.087-31.203-5.063-45.601-8.4c-9.874-2.288-19.609-4.464-28.8-6.96c-28.052-7.618-51.453-21.171-69.36-38.399   c-0.92,1.319-2.626,1.854-3.36,3.359c1.8,3.929,5.6,6.503,8.88,9.12c10.221,8.157,20.945,15.152,33.6,20.64   c16.777,7.275,35.82,12.139,55.2,17.04c38.787,9.81,84.069,13.604,127.92,13.2c4.106-1.87,4.797-5.385,7.2-10.08   c1.567-3.062,3.102-6.142,4.32-8.64c7.454-15.283,14.511-29.149,21.6-43.68c1.475-3.023,3.228-6.272,4.08-9.12   c1.62-5.415,0.424-11.597,0.24-16.561c-1.927-0.233-3.024-1.295-5.28-1.199C305.329,377.681,304.677,378.333,304.852,378.725z    M311.812,380.645c1.826,9.302-0.513,16.384-3.359,22.561c-3.535,7.669-7.574,15.185-11.04,22.079   c-2.058,4.903-5.426,9.774-6.72,14.641c6.131-13.086,15.132-26.492,20.88-39.601c1.284-2.93,1.929-6.35,1.92-9.84   c-0.009-3.293-0.309-7.147-1.2-10.56c-0.16,0-0.32,0-0.48,0C311.812,380.166,311.812,380.405,311.812,380.645z M289.252,442.805   c0.113-0.936,1.6-1.75,0.96-2.64C290.072,441.074,288.823,442.125,289.252,442.805z"/>
	<path fill-rule="evenodd" clip-rule="evenodd" fill="#EFF0F0" d="M114.532,26.885c-0.441,1.479-2.753,1.087-3.36,2.4   c2.488-0.051,3.287-2.195,6.72-1.44c1.229,0.271,2.378,1.083,3.6,1.44c6.174,1.802,13.487,3.736,19.68,5.28   c4.131,1.029,7.419,1.601,11.76,2.64c3.642,0.872,8.339,2.486,12.48,3.6c2.501,0.673,5.156,1.052,7.68,1.68   c13.387,3.33,26.774,7.87,40.561,10.8c5.859,1.246,11.336,3.788,16.8,5.28c2.646,0.723,5.434,0.878,7.92,1.92   c-3.173,2.207-7.517,4.486-12,2.16c0.17-0.95,1.87-0.37,1.92-1.44c-1.234-0.369-1.835,0.848-3.12,0.96   c-2.362,0.206-5.435-1.462-8.16-2.16c-2.611-0.669-5.219-0.945-7.2-1.44c-5.615-1.403-11.355-3.979-17.279-5.28   c-0.488-0.107-1.175,0.149-1.681,0c-16.218-4.77-33.01-9.195-48.24-13.44c-14.077-2.723-26.875-6.724-40.08-10.32   C105.654,26.821,109.714,24.877,114.532,26.885z"/>
	<path fill-rule="evenodd" clip-rule="evenodd" fill="#EFF0F0" d="M244.612,62.166c-0.865,0.896-2.672,0.849-3.36,1.92   c1.647,0.132,2.854-1.271,4.32-1.44c1.603-0.186,3.058,0.743,4.8,1.2c12.995,3.411,27.061,6.185,39.84,9.6   c13.582,3.63,28.743,8.238,42.96,11.76c4.578,1.134,9.098,2.974,13.68,4.08c3.47,0.838,7.153,0.85,10.08,2.88   c0.057,14.515-0.075,28.005,0,42c0.064,11.949,0.24,21.269,0.24,34.08c0,15.222-0.076,27.688,0,42   c0.062,11.549,0.244,23.729,0.24,37.44c-0.77,0.911-2.18,1.181-3.12,1.92c0.794,1.192,1.817-0.891,3.12-0.72c0,1.28,0,2.56,0,3.84   c-2.655,0.957-5.258,3.206-7.92,3.36c-0.779-28.025,0.819-48.36-0.48-77.04c-0.492-10.869,0-24.729,0-38.4   c0-13.687,0-28.046,0-41.76c1.127-1.273,3.441-1.358,4.561-2.64c-0.834-0.802-3.352,1.846-4.561,1.44   c-0.849-3.124,3.939-2.161,5.04-4.08c-1.567-0.923-4.382,2.841-6.479,1.44c-0.08-1.68,2.109-1.09,2.64-2.16   c-1.455-0.368-2.405,1.132-3.84,1.2c-1.771,0.083-4.478-1.271-6.96-1.92c-16.545-4.325-33.726-7.895-49.68-12.48   c-19.404-5.577-38.564-11.007-57.12-15.6C236.03,62.523,240.345,59.482,244.612,62.166z"/>
	<path fill-rule="evenodd" clip-rule="evenodd" fill="#EFF0F0" d="M346.852,95.525c0.801,1.163-1.524,0.946-1.68,1.92   c0.721,0.644,1.809-0.995,2.64-0.24c-0.57,1.881,0,4.024,0,6.24c0.001,16.901-0.604,36.194,0,52.56   c1.317,35.653-0.378,69.915,0.721,105.12c-1.136,0.544-2.139,1.221-3.601,1.439c-0.372-48.523-0.721-102.146-0.72-153.6   c0-3.766,0.466-8.615-0.479-10.32c-1.43-2.578-9.832-3.701-13.921-4.8c-14.773-3.972-30.125-7.465-44.399-11.28   c-20.085-5.368-38.41-11.021-58.32-15.84c1.398-1.365,3.127-1.872,5.521-1.44c5.217,0.943,10.412,2.751,15.6,4.08   c18.59,4.761,36.584,10.06,54.96,15.12c13.501,3.718,27.296,6.167,40.32,10.08c1.185-0.055,0.795,0.345,0.72,1.2   C345.039,95.319,346.062,94.755,346.852,95.525z M343.972,97.925c0.325,0.076,0.458,0.342,0.96,0.24c0-0.24,0-0.48,0-0.72   C344.385,97.378,344.029,97.503,343.972,97.925z"/>
	<path fill-rule="evenodd" clip-rule="evenodd" fill="#EFF0F0" d="M357.652,378.246c-2.447,1.153-5.267,3.212-7.681,3.6   c1.2-1.68,3.951-1.809,5.28-3.36c-1.501,0.021-3.696,1.422-5.04,2.4c-0.729-20.01-0.682-43.514-0.479-62.64   c0.119-11.345-0.282-21.144,0-33.36c0.062-1.058,1.29-0.949,1.92-1.44c-0.549-0.763-1.271,0.311-1.92,0.24   c0.01-1.789-0.14-2.247,0-3.84c2.206-0.913,4.407-1.832,6.239-3.12c-2.177-0.255-3.92,1.999-6.239,2.4   c-0.512-0.942-0.195-2.835,0-3.84c2.714-0.978,5.222-3.402,7.92-3.601c0.137,20.564-0.437,39.305-0.24,57.84   C357.567,344.191,357.801,360.769,357.652,378.246z"/>
	<path fill-rule="evenodd" clip-rule="evenodd" fill="#EFF0F0" d="M305.332,378.246c2.256-0.096,3.354,0.966,5.28,1.199   c0.184,4.964,1.38,11.146-0.24,16.561c-0.853,2.848-2.605,6.097-4.08,9.12c-7.089,14.53-14.146,28.396-21.6,43.68   c-1.219,2.498-2.753,5.578-4.32,8.64c-2.403,4.695-3.094,8.21-7.2,10.08c-43.851,0.404-89.133-3.391-127.92-13.2   c-19.38-4.901-38.422-9.765-55.2-17.04c-12.655-5.487-23.379-12.482-33.6-20.64c-3.28-2.617-7.08-5.191-8.88-9.12   c0.733-1.506,2.439-2.04,3.36-3.359c17.907,17.229,41.308,30.781,69.36,38.399c9.191,2.496,18.926,4.672,28.8,6.96   c14.397,3.337,29.699,6.313,45.601,8.4c16.243,2.132,31.405,3.426,48.479,4.319c8.383,0.439,16.796,0.548,22.32,0.721   c3.885,0.121,7.175,0.221,8.88-0.721c2.008-1.107,3.301-5.338,4.56-8.64c7.867-20.63,16.196-40.181,24.24-60.72   c0.626-1.599,1.682-3.317,1.92-4.561c0.672-3.496-0.461-7.607-0.24-9.6C304.677,378.333,305.329,377.681,305.332,378.246z    M307.732,392.166c-0.689,2.87-2.591,5.667-3.841,8.399c-3.924,8.58-7.631,16.916-11.279,25.44c2.618-4.721,5.27-10.185,7.68-15.84   c3.761-8.826,10.237-17.521,7.68-29.28C307.27,384.836,308.577,388.644,307.732,392.166z M53.092,409.206   c-0.051-0.29-0.267-0.148-0.48,0c0,0.239,0,0.479,0,0.72c12.535,10.422,26.522,20.472,43.44,26.88   c12.759,4.833,26.575,8.746,40.56,12.24c12.424,3.104,25.444,6.648,38.88,8.88c3.897,0.646,7.969,1.365,12,1.2   C135.522,449.657,84.37,439.366,53.092,409.206z M290.692,431.045c0.179-0.503,1.669-1.842,0.479-2.16   C291.036,429.483,289.972,430.386,290.692,431.045z M275.332,463.445c-2.719,2.282-7.922,1.432-13.2,1.2   c-10.436-0.457-20.122-0.625-30.24-1.2c-10.274-0.584-19.912-2.035-28.079-2.64c-4.21-0.312-6.951-0.839-10.08-0.48   c24.725,3.299,52.735,4.689,78.72,5.28c4.478-1.244,5.197-5.373,7.2-9.6c3.582-7.56,6.916-15.784,10.08-22.8   c-0.054-0.188-0.201-0.279-0.48-0.24C284.588,443.101,280.423,453.736,275.332,463.445z M190.372,459.845   c0.339-0.767-1.437-0.606-1.44-0.24C189.216,459.881,189.78,459.876,190.372,459.845z"/>
	<path fill-rule="evenodd" clip-rule="evenodd" fill="#EFF0F0" d="M346.852,382.325c0.676,0.647,0.985-0.425,1.92-0.239   c-0.462,1.537-2.331,1.669-3.84,2.159c0.03-35.37-0.073-65.831,0-97.439c0.654-1.106,2.385-1.135,3.36-1.92   c0.204-0.044,0.227,0.094,0.24,0.24c0.308,20.038-0.413,40.981,0,58.08c0.25,10.379,0.296,24.661,0.239,37.68   C348.749,381.982,347.363,381.716,346.852,382.325z"/>
</g>
<metadata><rdf:RDF><cc:Work><dc:format>image/svg+xml</dc:format><dc:type rdf:resource="http://purl.org/dc/dcmitype/StillImage"/><cc:license rdf:resource="http://creativecommons.org/licenses/publicdomain/"/><dc:publisher><cc:Agent rdf:about="http://openclipart.org/"><dc:title>Open Clip Art Library</dc:title></cc:Agent></dc:publisher><dc:title>monitor</dc:title><dc:date>2006-11-25T21:31:31</dc:date><dc:description>a computer monitor from a U.S. patent drawing</dc:description><dc:source>http://openclipart.org/detail/1637/monitor-by-johnny_automatic</dc:source><dc:creator><cc:Agent><dc:title>johnny_automatic</dc:title></cc:Agent></dc:creator><dc:subject><rdf:Bag><rdf:li>clip art</rdf:li><rdf:li>clipart</rdf:li><rdf:li>computer</rdf:li><rdf:li>computer</rdf:li><rdf:li>electronics</rdf:li><rdf:li>electronics</rdf:li><rdf:li>externalsource</rdf:li><rdf:li>image</rdf:li><rdf:li>media</rdf:li><rdf:li>monitor</rdf:li><rdf:li>monitor</rdf:li><rdf:li>png</rdf:li><rdf:li>public domain</rdf:li><rdf:li>svg</rdf:li><rdf:li>uspto</rdf:li><rdf:li>uspto</rdf:li><rdf:li>video</rdf:li><rdf:li>video</rdf:li></rdf:Bag></dc:subject></cc:Work><cc:License rdf:about="http://creativecommons.org/licenses/publicdomain/"><cc:permits rdf:resource="http://creativecommons.org/ns#Reproduction"/><cc:permits rdf:resource="http://creativecommons.org/ns#Distribution"/><cc:permits rdf:resource="http://creativecommons.org/ns#DerivativeWorks"/></cc:License></rdf:RDF></metadata></svg>